<svg width="56" height="56" viewBox="0 0 56 56" fill="none" xmlns="http://www.w3.org/2000/svg">
<rect y="8" width="56" height="40" rx="4" fill="white"/>
<mask id="mask0_0_1694" style="mask-type:luminance" maskUnits="userSpaceOnUse" x="0" y="8" width="56" height="40">
<rect y="8" width="56" height="40" rx="4" fill="white"/>
</mask>
<g mask="url(#mask0_0_1694)">
<rect x="26.6667" y="8" width="29.3333" height="40" fill="#1AB11F"/>
<path fill-rule="evenodd" clip-rule="evenodd" d="M0 48H18.6667V8H0V48Z" fill="#262626"/>
<path fill-rule="evenodd" clip-rule="evenodd" d="M18.6667 48H37.3334V8H18.6667V48Z" fill="#DC0D18"/>
<path opacity="0.75" d="M25.9964 30.1297L26.6656 28.9764L25.9964 30.1297ZM26.4805 31.9521L27.6338 32.6213L27.6338 32.6213L26.4805 31.9521ZM24.6581 32.4362L25.3272 31.283L24.6581 32.4362ZM31.5881 32.2862L32.3065 33.4094L31.5881 32.2862ZM29.7465 31.8813L28.6232 32.5997H28.6232L29.7465 31.8813ZM30.1513 30.0397L30.8697 31.1629L30.1513 30.0397ZM25.3334 26.6667C25.3334 25.1939 24.1394 24 22.6667 24V26.6667H25.3334ZM26.6656 28.9764C25.8639 28.5113 25.3334 27.6498 25.3334 26.6667H22.6667C22.6667 28.6375 23.7358 30.3596 25.3272 31.283L26.6656 28.9764ZM27.6338 32.6213C28.3729 31.3474 27.9394 29.7156 26.6656 28.9764L25.3272 31.283L25.3272 31.283L27.6338 32.6213ZM23.9889 33.5895C25.2628 34.3286 26.8946 33.8951 27.6338 32.6213L25.3272 31.283H25.3272L23.9889 33.5895ZM20 26.6667C20 29.6278 21.6101 32.2092 23.9889 33.5895L25.3272 31.283C23.7361 30.3597 22.6667 28.6378 22.6667 26.6667H20ZM22.6667 24C21.1939 24 20 25.1939 20 26.6667H22.6667V24ZM36 26.6667C36 25.1939 34.8061 24 33.3334 24V26.6667H36ZM32.3065 33.4094C34.5216 31.9927 36 29.5035 36 26.6667H33.3334C33.3334 28.5553 32.3516 30.2152 30.8697 31.1629L32.3065 33.4094ZM28.6232 32.5997C29.4167 33.8404 31.0658 34.2029 32.3065 33.4094L30.8697 31.1629L28.6232 32.5997ZM29.4329 28.9164C28.1922 29.7099 27.8297 31.359 28.6232 32.5997L30.8697 31.1629L29.4329 28.9164ZM30.6667 26.6667C30.6667 27.609 30.18 28.4386 29.4329 28.9164L30.8697 31.1629C32.3518 30.215 33.3334 28.5551 33.3334 26.6667H30.6667ZM33.3334 24C31.8606 24 30.6667 25.1939 30.6667 26.6667H33.3334V24Z" fill="white"/>
<ellipse cx="28" cy="25.3333" rx="2.66667" ry="4" fill="white" fill-opacity="0.5"/>
</g>
</svg>
