<svg width="56" height="56" viewBox="0 0 56 56" fill="none" xmlns="http://www.w3.org/2000/svg">
<rect y="8" width="56" height="40" rx="4" fill="white"/>
<mask id="mask0_0_2719" style="mask-type:luminance" maskUnits="userSpaceOnUse" x="0" y="8" width="56" height="40">
<rect y="8" width="56" height="40" rx="4" fill="white"/>
</mask>
<g mask="url(#mask0_0_2719)">
<rect y="8" width="56" height="40" fill="#E2243B"/>
<path fill-rule="evenodd" clip-rule="evenodd" d="M0 8H56L28 48L0 8Z" fill="#262626"/>
<mask id="mask1_0_2719" style="mask-type:luminance" maskUnits="userSpaceOnUse" x="0" y="8" width="56" height="40">
<path fill-rule="evenodd" clip-rule="evenodd" d="M0 8H56L28 48L0 8Z" fill="white"/>
</mask>
<g mask="url(#mask1_0_2719)">
<g filter="url(#filter0_d_0_2719)">
<path fill-rule="evenodd" clip-rule="evenodd" d="M28 30L23.4078 35.0866L23.7574 28.2426L16.9134 28.5922L22 24L16 18.6667L23.7574 20L22.6667 12L28 18.6667L33.3333 12L32.2426 20L40 18.6667L34 24L39.0866 28.5922L32.2426 28.2426L32.5922 35.0866L28 30Z" fill="#FFCF3C"/>
</g>
<g filter="url(#filter1_d_0_2719)">
<path fill-rule="evenodd" clip-rule="evenodd" d="M0 34.6667H56V24H0V34.6667Z" fill="#1984D8"/>
</g>
<path fill-rule="evenodd" clip-rule="evenodd" d="M0 48H56V34.6667H0V48Z" fill="white"/>
</g>
</g>
<defs>
<filter id="filter0_d_0_2719" x="16" y="12" width="24" height="23.0866" filterUnits="userSpaceOnUse" color-interpolation-filters="sRGB">
<feFlood flood-opacity="0" result="BackgroundImageFix"/>
<feColorMatrix in="SourceAlpha" type="matrix" values="0 0 0 0 0 0 0 0 0 0 0 0 0 0 0 0 0 0 127 0" result="hardAlpha"/>
<feOffset/>
<feColorMatrix type="matrix" values="0 0 0 0 0 0 0 0 0 0 0 0 0 0 0 0 0 0 0.06 0"/>
<feBlend mode="normal" in2="BackgroundImageFix" result="effect1_dropShadow_0_2719"/>
<feBlend mode="normal" in="SourceGraphic" in2="effect1_dropShadow_0_2719" result="shape"/>
</filter>
<filter id="filter1_d_0_2719" x="0" y="24" width="56" height="10.6667" filterUnits="userSpaceOnUse" color-interpolation-filters="sRGB">
<feFlood flood-opacity="0" result="BackgroundImageFix"/>
<feColorMatrix in="SourceAlpha" type="matrix" values="0 0 0 0 0 0 0 0 0 0 0 0 0 0 0 0 0 0 127 0" result="hardAlpha"/>
<feOffset/>
<feColorMatrix type="matrix" values="0 0 0 0 0 0 0 0 0 0 0 0 0 0 0 0 0 0 0.06 0"/>
<feBlend mode="normal" in2="BackgroundImageFix" result="effect1_dropShadow_0_2719"/>
<feBlend mode="normal" in="SourceGraphic" in2="effect1_dropShadow_0_2719" result="shape"/>
</filter>
</defs>
</svg>
