<svg width="56" height="56" viewBox="0 0 56 56" fill="none" xmlns="http://www.w3.org/2000/svg">
<rect y="8" width="56" height="40" rx="4" fill="white"/>
<mask id="mask0_0_2335" style="mask-type:luminance" maskUnits="userSpaceOnUse" x="0" y="8" width="56" height="40">
<rect y="8" width="56" height="40" rx="4" fill="white"/>
</mask>
<g mask="url(#mask0_0_2335)">
<rect y="8" width="56" height="40" fill="#0B36B2"/>
<g filter="url(#filter0_d_0_2335)">
<path fill-rule="evenodd" clip-rule="evenodd" d="M45.3334 48V8H17.3334L45.3334 48Z" fill="#FFD045"/>
</g>
<path fill-rule="evenodd" clip-rule="evenodd" d="M34.6666 45.3333L32.781 45.8856L33.3333 44L32.781 42.1144L34.6666 42.6667L36.5522 42.1144L36 44L36.5522 45.8856L34.6666 45.3333Z" fill="white"/>
<path fill-rule="evenodd" clip-rule="evenodd" d="M29.3334 37.3333L27.4478 37.8856L28 36L27.4478 34.1144L29.3334 34.6667L31.219 34.1144L30.6667 36L31.219 37.8856L29.3334 37.3333Z" fill="white"/>
<path fill-rule="evenodd" clip-rule="evenodd" d="M24 29.3333L22.1144 29.8856L22.6667 28L22.1144 26.1144L24 26.6667L25.8856 26.1144L25.3333 28L25.8856 29.8856L24 29.3333Z" fill="white"/>
<path fill-rule="evenodd" clip-rule="evenodd" d="M18.6666 21.3333L16.781 21.8856L17.3333 20L16.781 18.1144L18.6666 18.6667L20.5522 18.1144L20 20L20.5522 21.8856L18.6666 21.3333Z" fill="white"/>
<path fill-rule="evenodd" clip-rule="evenodd" d="M13.3334 13.3333L11.4478 13.8856L12 12L11.4478 10.1144L13.3334 10.6667L15.219 10.1144L14.6667 12L15.219 13.8856L13.3334 13.3333Z" fill="white"/>
</g>
<defs>
<filter id="filter0_d_0_2335" x="17.3334" y="8" width="28" height="40" filterUnits="userSpaceOnUse" color-interpolation-filters="sRGB">
<feFlood flood-opacity="0" result="BackgroundImageFix"/>
<feColorMatrix in="SourceAlpha" type="matrix" values="0 0 0 0 0 0 0 0 0 0 0 0 0 0 0 0 0 0 127 0" result="hardAlpha"/>
<feOffset/>
<feColorMatrix type="matrix" values="0 0 0 0 0 0 0 0 0 0 0 0 0 0 0 0 0 0 0.06 0"/>
<feBlend mode="normal" in2="BackgroundImageFix" result="effect1_dropShadow_0_2335"/>
<feBlend mode="normal" in="SourceGraphic" in2="effect1_dropShadow_0_2335" result="shape"/>
</filter>
</defs>
</svg>
