<svg width="56" height="56" viewBox="0 0 56 56" fill="none" xmlns="http://www.w3.org/2000/svg">
<rect y="8" width="56" height="40" rx="4" fill="white"/>
<mask id="mask0_0_2745" style="mask-type:luminance" maskUnits="userSpaceOnUse" x="0" y="8" width="56" height="40">
<rect y="8" width="56" height="40" rx="4" fill="white"/>
</mask>
<g mask="url(#mask0_0_2745)">
<rect y="8" width="56" height="40" fill="url(#paint0_linear_0_2745)"/>
<rect x="26.6667" y="8" width="29.3333" height="40" fill="#08379D"/>
<path fill-rule="evenodd" clip-rule="evenodd" d="M0 48H18.6667V8H0V48Z" fill="#08379D"/>
<path fill-rule="evenodd" clip-rule="evenodd" d="M18.6667 48H37.3334V8H18.6667V48Z" fill="#FFCC50"/>
<path fill-rule="evenodd" clip-rule="evenodd" d="M27.4913 20.827C27.7588 20.4336 28.3405 20.439 28.6007 20.8373L29.993 22.9687C30.2827 23.4121 29.9646 24 29.4349 24H29.4034C29.009 24 28.7008 24.3405 28.74 24.733L29.2734 30.0663C29.3075 30.4071 29.5942 30.6667 29.9367 30.6667H30.3927C30.5683 30.6667 30.7367 30.5974 30.8616 30.4739L31.8023 29.5433C31.9288 29.4181 32.0001 29.2475 32.0001 29.0694V26.9428C32.0001 26.766 31.9298 26.5964 31.8048 26.4714L31.4295 26.0961C31.0791 25.7456 31.2199 25.1489 31.6901 24.9922L33.5961 24.3569C34.0774 24.1964 34.5544 24.611 34.4626 25.1099L33.4795 30.4555C33.4542 30.5928 33.3865 30.7187 33.2859 30.8155L30.8603 33.1473C30.7361 33.2666 30.5705 33.3333 30.3983 33.3333H30.0001C29.6319 33.3333 29.3334 33.6318 29.3334 34V35.3333C29.3334 35.7015 29.0349 36 28.6667 36H27.3334C26.9652 36 26.6667 35.7015 26.6667 35.3333V34C26.6667 33.6318 26.3683 33.3333 26.0001 33.3333H25.6095C25.4327 33.3333 25.2632 33.2631 25.1381 33.1381L22.8095 30.8094C22.7164 30.7163 22.653 30.5978 22.6272 30.4687L21.5587 25.1265C21.4583 24.6245 21.9376 24.2014 22.4232 24.3633L24.3101 24.9922C24.7802 25.1489 24.9211 25.7456 24.5707 26.0961L24.1953 26.4714C24.0703 26.5964 24.0001 26.766 24.0001 26.9428V29.0694C24.0001 29.2475 24.0713 29.4181 24.1979 29.5433L25.1386 30.4739C25.2634 30.5974 25.4319 30.6667 25.6074 30.6667H26.0634C26.4059 30.6667 26.6927 30.4071 26.7268 30.0663L27.2601 24.733C27.2993 24.3405 26.9898 24 26.5954 24C26.0601 24 25.7407 23.401 26.0417 22.9584L27.4913 20.827Z" fill="#262626"/>
</g>
<defs>
<linearGradient id="paint0_linear_0_2745" x1="0" y1="8" x2="0" y2="48" gradientUnits="userSpaceOnUse">
<stop stop-color="#1132C7"/>
<stop offset="1" stop-color="#0522A5"/>
</linearGradient>
</defs>
</svg>
