<svg width="56" height="56" viewBox="0 0 56 56" fill="none" xmlns="http://www.w3.org/2000/svg">
<rect y="8" width="56" height="40" rx="4" fill="white"/>
<mask id="mask0_0_1769" style="mask-type:luminance" maskUnits="userSpaceOnUse" x="0" y="8" width="56" height="40">
<rect y="8" width="56" height="40" rx="4" fill="white"/>
</mask>
<g mask="url(#mask0_0_1769)">
<rect y="8" width="56" height="40" fill="#F1361D"/>
<path fill-rule="evenodd" clip-rule="evenodd" d="M20.1453 14.2015L22.0822 14.5317L23.5348 15.8547L23.865 13.9178L25.188 12.4652L23.2511 12.1349L21.7985 10.812L21.4683 12.7488L20.1453 14.2015ZM25.3333 20.9761L27.0117 19.9546L28.976 20L27.9545 18.3216L28 16.3573L26.3216 17.3788L24.3572 17.3333L25.3787 19.0118L25.3333 20.9761ZM23.0565 31.9417L21.4147 33.0212L21.3916 31.0565L20.3121 29.4147L22.2768 29.3916L23.9186 28.3121L23.9417 30.2768L25.0212 31.9186L23.0565 31.9417ZM24.4822 26.8629L26.4351 26.6464L28.1962 27.5177L27.9797 25.5649L28.8511 23.8038L26.8982 24.0203L25.1371 23.1489L25.3536 25.1018L24.4822 26.8629Z" fill="#FFDC42"/>
<path fill-rule="evenodd" clip-rule="evenodd" d="M13.3333 24.4533L8.63102 27.8054L10.366 22.2974L5.72485 18.8612L11.4994 18.8092L13.3333 13.3333L15.1672 18.8092L20.9418 18.8612L16.3006 22.2974L18.0356 27.8054L13.3333 24.4533Z" fill="#FFDC42"/>
</g>
</svg>
