<svg width="56" height="56" viewBox="0 0 56 56" fill="none" xmlns="http://www.w3.org/2000/svg">
<rect x="0.5" y="8.5" width="55" height="39" rx="3.5" fill="white" stroke="#F5F5F5"/>
<mask id="mask0_0_1780" style="mask-type:luminance" maskUnits="userSpaceOnUse" x="0" y="8" width="56" height="40">
<rect x="0.5" y="8.5" width="55" height="39" rx="3.5" fill="white" stroke="white"/>
</mask>
<g mask="url(#mask0_0_1780)">
<path fill-rule="evenodd" clip-rule="evenodd" d="M40 14.6667C40.7262 14.3036 41.4633 15.1385 41.0129 15.814L40.1345 17.1316C40.0457 17.2648 39.9315 17.379 39.7983 17.4678L36.1099 19.9268C36.0368 19.9755 35.9688 20.0313 35.9067 20.0934L35.6095 20.3905C35.0888 20.9112 35.0888 21.7554 35.6095 22.2761L36.3905 23.0572C36.9112 23.5779 36.9112 24.4221 36.3905 24.9428L35.3462 25.9871C34.9404 26.3929 34.3204 26.4935 33.8071 26.2369L33.1926 25.9296C32.534 25.6003 31.7331 25.8673 31.4037 26.5259L30.9137 27.506C30.7555 27.8223 30.4782 28.0628 30.1427 28.1746L26.872 29.2649C26.736 29.3102 26.5936 29.3333 26.4503 29.3333H24.8241C24.319 29.3333 23.8574 29.6187 23.6315 30.0704L23.263 30.8074C22.9337 31.4661 22.1328 31.733 21.4741 31.4037L17.5269 29.4301C17.3987 29.366 17.2817 29.2817 17.1804 29.1803L15.0572 27.0572C14.8072 26.8071 14.6667 26.468 14.6667 26.1144V24.9428C14.6667 24.4221 15.0888 24 15.6095 24C15.8595 24 16.0994 23.9007 16.2762 23.7239L18.2762 21.7239C18.5262 21.4738 18.8653 21.3333 19.219 21.3333H20.3723C20.9462 21.3333 21.4558 20.9661 21.6373 20.4216L22.2945 18.45C22.5071 17.812 23.1615 17.4323 23.8209 17.5642L29.0394 18.6079C29.2329 18.6466 29.4327 18.6418 29.6242 18.5939L34.5247 17.3688C34.6191 17.3452 34.7106 17.3114 34.7976 17.2679L37.3334 16L40 14.6667Z" fill="#E7832C"/>
<circle cx="28" cy="38.6666" r="1.33333" fill="#445128"/>
<path opacity="0.75" d="M32 37.3333C32 37.3333 36 36 37.3333 33.3333" stroke="#445128" stroke-width="2.66667" stroke-linecap="round"/>
<path opacity="0.75" d="M24 37.3333C24 37.3333 20 36 18.6667 33.3333" stroke="#445128" stroke-width="2.66667" stroke-linecap="round"/>
</g>
</svg>
