<svg width="56" height="56" viewBox="0 0 56 56" fill="none" xmlns="http://www.w3.org/2000/svg">
<rect x="0.5" y="8.5" width="55" height="39" rx="3.5" fill="white" stroke="#F5F5F5"/>
<mask id="mask0_0_670" style="mask-type:luminance" maskUnits="userSpaceOnUse" x="0" y="8" width="56" height="40">
<rect x="0.5" y="8.5" width="55" height="39" rx="3.5" fill="white" stroke="white"/>
</mask>
<g mask="url(#mask0_0_670)">
<path fill-rule="evenodd" clip-rule="evenodd" d="M0 48H29.3333V8H0V48Z" fill="#048345"/>
<path fill-rule="evenodd" clip-rule="evenodd" d="M34.6667 30.08L31.5318 32.3148L32.6885 28.6428L29.5944 26.3519L33.4441 26.3172L34.6667 22.6667L35.8893 26.3172L39.739 26.3519L36.6449 28.6428L37.8015 32.3148L34.6667 30.08Z" fill="#E81B42"/>
<path fill-rule="evenodd" clip-rule="evenodd" d="M35.36 19.2373C33.9418 18.5623 32.3375 18.1818 30.6387 18.1818C24.8639 18.1818 20.1825 22.5776 20.1825 28C20.1825 33.4224 24.8639 37.8182 30.6387 37.8182C32.3375 37.8182 33.9418 37.4377 35.36 36.7627C33.3038 38.7706 30.5404 40 27.5018 40C21.1495 40 16 34.6274 16 28C16 21.3726 21.1495 16 27.5018 16C30.5404 16 33.3038 17.2294 35.36 19.2373Z" fill="#E81B42"/>
</g>
</svg>
