<svg width="56" height="56" viewBox="0 0 56 56" fill="none" xmlns="http://www.w3.org/2000/svg">
<rect x="0.5" y="8.5" width="55" height="39" rx="3.5" fill="white" stroke="#F5F5F5"/>
<mask id="mask0_0_2881" style="mask-type:luminance" maskUnits="userSpaceOnUse" x="0" y="8" width="56" height="40">
<rect x="0.5" y="8.5" width="55" height="39" rx="3.5" fill="white" stroke="white"/>
</mask>
<g mask="url(#mask0_0_2881)">
<rect x="37.3333" y="8" width="18.6667" height="40" fill="#63AEE3"/>
<path fill-rule="evenodd" clip-rule="evenodd" d="M0 48H18.6667V8H0V48Z" fill="#63AEE3"/>
<path d="M25.9965 30.1297L26.6656 28.9765L25.9965 30.1297ZM26.4806 31.9521L27.6338 32.6213L27.6338 32.6213L26.4806 31.9521ZM24.6581 32.4362L25.3273 31.283L24.6581 32.4362ZM31.5882 32.2862L32.3066 33.4094L31.5882 32.2862ZM29.7465 31.8813L28.6233 32.5997H28.6233L29.7465 31.8813ZM30.1514 30.0397L30.8698 31.1629L30.1514 30.0397ZM25.3334 26.6667C25.3334 25.1939 24.1395 24 22.6667 24V26.6667H25.3334ZM26.6656 28.9765C25.8639 28.5113 25.3334 27.6499 25.3334 26.6667H22.6667C22.6667 28.6375 23.7359 30.3596 25.3273 31.283L26.6656 28.9765ZM27.6338 32.6213C28.373 31.3475 27.9395 29.7156 26.6656 28.9765L25.3273 31.283L25.3273 31.283L27.6338 32.6213ZM23.989 33.5895C25.2628 34.3286 26.8947 33.8952 27.6338 32.6213L25.3273 31.283H25.3273L23.989 33.5895ZM20.0001 26.6667C20.0001 29.6278 21.6102 32.2092 23.989 33.5895L25.3273 31.283C23.7361 30.3597 22.6667 28.6378 22.6667 26.6667H20.0001ZM22.6667 24C21.194 24 20.0001 25.1939 20.0001 26.6667H22.6667V24ZM36.0001 26.6667C36.0001 25.1939 34.8062 24 33.3334 24V26.6667H36.0001ZM32.3066 33.4094C34.5216 31.9928 36.0001 29.5035 36.0001 26.6667H33.3334C33.3334 28.5554 32.3516 30.2152 30.8698 31.1629L32.3066 33.4094ZM28.6233 32.5997C29.4168 33.8404 31.0659 34.203 32.3066 33.4094L30.8698 31.1629L28.6233 32.5997ZM29.433 28.9165C28.1923 29.71 27.8298 31.359 28.6233 32.5997L30.8698 31.1629L29.433 28.9165ZM30.6667 26.6667C30.6667 27.609 30.18 28.4387 29.433 28.9165L30.8698 31.1629C32.3518 30.2151 33.3334 28.5551 33.3334 26.6667H30.6667ZM33.3334 24C31.8607 24 30.6667 25.1939 30.6667 26.6667H33.3334V24Z" fill="#628A40"/>
<circle cx="27.9999" cy="26.6667" r="2.66667" fill="#DCC26D"/>
</g>
</svg>
