<svg width="56" height="56" viewBox="0 0 56 56" fill="none" xmlns="http://www.w3.org/2000/svg">
<rect y="8" width="56" height="40" rx="4" fill="white"/>
<mask id="mask0_0_1807" style="mask-type:luminance" maskUnits="userSpaceOnUse" x="0" y="8" width="56" height="40">
<rect y="8" width="56" height="40" rx="4" fill="white"/>
</mask>
<g mask="url(#mask0_0_1807)">
<path fill-rule="evenodd" clip-rule="evenodd" d="M0 48H56V8H0V48Z" fill="#F0371D"/>
<path fill-rule="evenodd" clip-rule="evenodd" d="M29.172 16.271C30.5727 16.7261 30.9703 19.3659 30.0601 22.1673C29.1499 24.9687 27.2765 26.8707 25.8759 26.4156C24.4752 25.9605 24.0776 23.3206 24.9878 20.5192C25.898 17.7179 27.7714 15.8158 29.172 16.271ZM16.7244 23.6116C17.59 22.4201 20.2236 22.8578 22.6065 24.5891C24.9895 26.3204 26.2195 28.6899 25.3539 29.8813C24.4882 31.0728 21.8547 30.6352 19.4717 28.9039C17.0887 27.1725 15.8587 24.8031 16.7244 23.6116ZM34.6667 28.5077C37.6122 28.5077 40 27.3138 40 25.841C40 24.3683 37.6122 23.1743 34.6667 23.1743C31.7211 23.1743 29.3333 24.3683 29.3333 25.841C29.3333 27.3138 31.7211 28.5077 34.6667 28.5077ZM35.3333 26.6667C35.7015 26.6667 36 26.3682 36 26C36 25.6318 35.7015 25.3333 35.3333 25.3333C34.9651 25.3333 34.6667 25.6318 34.6667 26C34.6667 26.3682 34.9651 26.6667 35.3333 26.6667ZM34.2443 39.0963C32.8437 39.5514 30.9703 37.6494 30.0601 34.8481C29.1499 32.0467 29.5475 29.4068 30.9482 28.9517C32.3488 28.4966 34.2222 30.3986 35.1324 33.2C36.0426 36.0013 35.645 38.6412 34.2443 39.0963ZM32.017 34.9132C32.1308 35.2634 32.5069 35.455 32.8571 35.3412C33.2072 35.2274 33.3989 34.8513 33.2851 34.5012C33.1713 34.151 32.7952 33.9594 32.445 34.0731C32.0949 34.1869 31.9032 34.563 32.017 34.9132ZM19.8592 37.7185C18.9935 36.527 20.2236 34.1576 22.6065 32.4262C24.9895 30.6949 27.6231 30.2573 28.4887 31.4488C29.3544 32.6403 28.1244 35.0097 25.7414 36.741C23.3584 38.4723 20.7249 38.91 19.8592 37.7185ZM23.1493 34.3075C22.8514 34.5239 22.7854 34.9408 23.0018 35.2387C23.2182 35.5366 23.6352 35.6026 23.933 35.3862C24.2309 35.1698 24.2969 34.7529 24.0805 34.455C23.8641 34.1571 23.4472 34.0911 23.1493 34.3075ZM20.9851 25.6867C20.6872 25.4703 20.2703 25.5363 20.0539 25.8342C19.8375 26.132 19.9035 26.5489 20.2014 26.7654C20.4992 26.9818 20.9161 26.9157 21.1326 26.6179C21.349 26.32 21.2829 25.9031 20.9851 25.6867ZM28.5152 20.9644C28.629 20.6142 28.4373 20.2381 28.0872 20.1243C27.737 20.0105 27.3609 20.2022 27.2471 20.5523C27.1334 20.9025 27.325 21.2786 27.6752 21.3924C28.0253 21.5062 28.4014 21.3145 28.5152 20.9644Z" fill="white"/>
</g>
</svg>
