<svg width="56" height="56" viewBox="0 0 56 56" fill="none" xmlns="http://www.w3.org/2000/svg">
<rect y="8" width="56" height="40" rx="4" fill="white"/>
<mask id="mask0_0_3112" style="mask-type:luminance" maskUnits="userSpaceOnUse" x="0" y="8" width="56" height="40">
<rect y="8" width="56" height="40" rx="4" fill="white"/>
</mask>
<g mask="url(#mask0_0_3112)">
<rect x="-12" y="8" width="80" height="40" fill="#CE1126"/>
<path d="M35.6968 26.8923C35.9053 26.9229 36.0047 26.9376 36.1165 26.9551C37.3101 27.141 37.9759 27.3752 38.4273 27.9024L38.7424 28.2706L38.2744 28.1449C37.873 28.037 37.4573 28.1896 36.6568 28.66L36.5516 28.7219C35.6381 29.2612 35.1868 29.4545 34.7244 29.3577C34.7073 29.3755 34.6862 29.3918 34.6613 29.406C34.5831 29.4504 34.4574 29.4821 34.2749 29.5088C33.9556 29.5556 33.4511 29.5867 32.7755 29.6038C31.5935 29.6337 29.9118 29.62 27.9049 29.5713C26.2982 29.5323 24.5512 29.472 23.0845 29.4087C22.4779 29.3825 21.9715 29.3579 21.658 29.3395C21.5042 29.3305 21.4016 29.3233 21.3536 29.3181C21.3352 29.316 21.3352 29.316 21.3123 29.3116C21.3019 29.3165 21.2989 29.318 21.2627 29.2773C21.0271 29.2202 20.7661 29.1759 20.3032 29.1077C20.0947 29.0771 19.9953 29.0624 19.8835 29.0449C18.6899 28.859 18.0241 28.6248 17.5727 28.0976L17.2576 27.7294L17.7256 27.8551C18.127 27.963 18.5427 27.8104 19.3432 27.34L19.4484 27.2781C20.0648 26.9142 20.4708 26.7078 20.8117 26.6418C20.7616 26.6135 20.7088 26.5841 20.653 26.5535C20.5401 26.4915 20.1421 26.2776 20.1038 26.2568C18.9542 25.6329 18.4013 25.1909 18.1665 24.5217L18.0121 24.0818L18.394 24.3491C18.7442 24.5942 19.1823 24.5872 20.1687 24.4038L20.2213 24.394C20.9165 24.2644 21.366 24.2094 21.7061 24.2619C21.5961 24.1362 21.4454 23.9678 21.2222 23.7189C20.3009 22.6917 19.9295 22.0945 19.9487 21.3667L19.9607 20.912L20.2215 21.2847C20.4681 21.6369 20.8767 21.7756 21.8911 21.9422L21.9285 21.9484C22.6224 22.0622 23.0637 22.1646 23.3658 22.3324C23.3095 22.1824 23.2356 21.9924 23.1326 21.7293C23.0264 21.4585 22.9598 21.2827 22.896 21.1005C22.5888 20.223 22.5043 19.5831 22.701 19.0186L22.8613 18.5588L22.9875 19.0291C23.0999 19.4478 23.4314 19.7128 24.3416 20.2247L24.3667 20.2388C24.9747 20.5808 25.3528 20.8283 25.5803 21.0917C25.5776 20.9418 25.5717 20.7618 25.5629 20.5313C25.5552 20.331 25.5518 20.2313 25.5487 20.1138C25.5188 18.9517 25.6408 18.2612 26.0968 17.7436L26.3985 17.4012L26.3588 17.8559C26.3211 18.2867 26.5417 18.6469 27.2249 19.44C27.286 19.511 27.286 19.511 27.3471 19.5822C27.733 20.0336 27.9767 20.3746 28.0917 20.6882C28.1258 20.5947 28.1622 20.4918 28.2021 20.3765C28.212 20.3482 28.3367 19.9852 28.3745 19.8774C28.7918 18.6857 29.1341 18.0654 29.7129 17.7145L30.1352 17.4585L29.9266 17.9062C29.7463 18.293 29.8315 18.7014 30.2044 19.6655L30.2076 19.674C30.4651 20.3398 30.6018 20.7796 30.606 21.1322C30.6389 21.0921 30.6733 21.0498 30.7094 21.005C30.7861 20.9096 31.0564 20.5682 31.0642 20.5584C31.8957 19.5142 32.4241 19.0449 33.1313 18.9203L33.5997 18.8377L33.2634 19.1741C32.9572 19.4803 32.8909 19.9045 32.8999 20.9365L32.9002 20.9629C32.9064 21.6737 32.8811 22.127 32.7663 22.456C32.9071 22.3717 33.0908 22.2584 33.356 22.0943C34.0052 21.6926 34.3863 21.4874 34.8065 21.3435C35.2063 21.2067 35.5753 21.162 35.9269 21.2229L36.3985 21.3045L35.9647 21.5066C35.5711 21.69 35.364 22.0659 35.0166 23.0457L35.0056 23.0768C34.7714 23.7375 34.5929 24.152 34.3735 24.4207C34.5273 24.3917 34.7168 24.3531 34.9705 24.3005C35.1989 24.2531 35.3375 24.2253 35.4853 24.198C36.5116 24.0084 37.1939 24.0212 37.7653 24.3411L38.1901 24.579L37.7051 24.6214C37.275 24.6591 36.9625 24.9355 36.3058 25.7413L36.3002 25.7482C35.8467 26.3046 35.5328 26.6402 35.2262 26.8194C35.3582 26.8414 35.5113 26.8649 35.6968 26.8923Z" fill="#BD9C08"/>
<path d="M36.0704 27.2515C35.9598 27.2343 35.8616 27.2197 35.6532 27.1891C35.1038 27.1081 34.8311 27.0599 34.5465 26.9835L33.4473 26.6887H34.5854C35.047 26.6887 35.375 26.4086 36.0677 25.5587L36.0733 25.5518C36.5713 24.9408 36.8905 24.607 37.2238 24.4449C36.7949 24.3328 36.2631 24.3594 35.5398 24.493C35.3948 24.5198 35.258 24.5472 35.0315 24.5942C34.3471 24.7362 34.1195 24.7778 33.8038 24.8054L32.6852 24.9032L33.7389 24.5152C34.152 24.3631 34.3631 23.9914 34.7229 22.9765L34.7339 22.9454C34.9983 22.1997 35.19 21.7725 35.453 21.5037C35.2791 21.5197 35.0967 21.5613 34.9037 21.6274C34.5113 21.7617 34.1447 21.9591 33.5139 22.3495C32.7875 22.799 32.6613 22.8737 32.3621 23.0133L31.3535 23.4838L32.2016 22.763C32.54 22.4755 32.6099 22.0558 32.6002 20.9655L32.6 20.9391C32.5931 20.15 32.6275 19.6837 32.7842 19.3414C32.3383 19.5481 31.907 19.9817 31.2989 20.7453C31.2918 20.7543 31.0208 21.0966 30.9431 21.1931C30.808 21.361 30.6963 21.4942 30.5887 21.6144C30.5212 21.6897 30.4563 21.7586 30.3928 21.8221L29.4449 22.7698L30.1599 21.636C30.4072 21.2438 30.3292 20.82 29.9279 19.7822L29.9246 19.7737C29.6444 19.0491 29.5128 18.609 29.5342 18.2432C29.2117 18.5853 28.9564 19.1234 28.6577 19.9765C28.6203 20.0834 28.4957 20.4457 28.4857 20.4748C28.3446 20.8817 28.2464 21.1396 28.136 21.3763L27.6277 22.467L27.8527 21.2849C27.9318 20.8697 27.7181 20.4778 27.1192 19.7772C27.0587 19.7067 27.0587 19.7067 26.9977 19.6358C26.4695 19.0227 26.1937 18.6441 26.096 18.2794C25.8884 18.6981 25.827 19.2658 25.8487 20.1061C25.8517 20.2219 25.8551 20.3208 25.8627 20.5199C25.8872 21.1601 25.8899 21.4202 25.8628 21.7291L25.7625 22.8757L25.5656 21.7417C25.4894 21.3026 25.1578 21.0279 24.2197 20.5003L24.1946 20.4862C23.5066 20.0993 23.1199 19.8396 22.9004 19.5382C22.8733 19.9362 22.9708 20.4061 23.1792 21.0014C23.2415 21.1793 23.307 21.3522 23.412 21.6199C23.6965 22.346 23.7628 22.526 23.8463 22.8386L24.1659 24.035L23.5699 22.9495C23.3582 22.5639 22.9566 22.4211 21.88 22.2444L21.8425 22.2383C21.0567 22.1092 20.6012 21.994 20.291 21.7761C20.4072 22.257 20.7659 22.7607 21.4456 23.5186C22.0803 24.2265 22.1393 24.2946 22.3322 24.5699L23.0292 25.5645L22.1112 24.7694C21.7807 24.4832 21.3585 24.4873 20.2763 24.6889L20.2236 24.6987C19.4657 24.8397 19.0006 24.8847 18.6361 24.789C18.9107 25.1891 19.4072 25.5373 20.2469 25.9931C20.2842 26.0133 20.6831 26.2278 20.7975 26.2906C21.0955 26.4542 21.3121 26.5837 21.5007 26.7158L22.45 27.3802L21.3629 26.9794C20.9473 26.8262 20.552 26.9751 19.6009 27.5364L19.4952 27.5987C18.888 27.9554 18.4779 28.1466 18.1125 28.1836C18.5035 28.4555 19.0662 28.614 19.9297 28.7485C20.0403 28.7657 20.1386 28.7803 20.347 28.8109C20.8964 28.8919 21.1691 28.9401 21.4536 29.0165L21.5005 29.0291C21.5476 29.0323 21.6063 29.036 21.6756 29.04C21.9873 29.0583 22.4923 29.0828 23.0976 29.109C24.5624 29.1722 26.3076 29.2324 27.9122 29.2714C29.9146 29.32 31.5921 29.3336 32.768 29.3039C33.4324 29.2871 33.9271 29.2565 34.2315 29.212C34.2814 29.2047 34.3256 29.197 34.3637 29.1893L33.5501 28.6198L34.6373 29.0206C35.0528 29.1738 35.4482 29.025 36.3992 28.4636L36.5049 28.4013C37.1121 28.0446 37.5222 27.8534 37.8876 27.8164C37.4966 27.5445 36.9339 27.386 36.0704 27.2515Z" fill="#FCD116"/>
<path d="M22.0516 28L18.1794 26.4175C18.0301 26.3565 18.0691 26.1351 18.2303 26.1288L22.4103 25.9657L19.3126 23.1537C19.1932 23.0453 19.3057 22.8506 19.4592 22.8998L23.4431 24.1771L21.4941 20.4755C21.4189 20.3328 21.5911 20.1883 21.7186 20.287L25.0259 22.8487L24.4608 18.7044C24.439 18.5446 24.6503 18.4677 24.7363 18.6041L26.9673 22.1429L27.8535 18.0545C27.8877 17.8969 28.1125 17.8969 28.1467 18.0545L29.033 22.1429L31.2639 18.6041C31.3499 18.4677 31.5612 18.5446 31.5394 18.7044L30.9743 22.8487L34.2802 20.287C34.4077 20.1882 34.58 20.3327 34.5049 20.4754L32.5571 24.1771L36.5396 22.8998C36.6932 22.8506 36.8057 23.0453 36.6863 23.1537L33.5899 25.9657L37.7686 26.1288C37.9298 26.1351 37.9688 26.3565 37.8195 26.4175L33.9485 28L37.8195 29.5825C37.9718 29.6447 37.9273 29.8713 37.7628 29.8713H18.2361C18.0716 29.8713 18.0271 29.6447 18.1794 29.5825L22.0516 28Z" fill="#BD9C08"/>
<path d="M22.5048 27.8612C22.6292 27.912 22.6292 28.088 22.5048 28.1389L18.9996 29.5713H36.9994L33.4953 28.1388C33.371 28.088 33.371 27.912 33.4953 27.8612L37.0657 26.4016L33.2116 26.2512C33.0774 26.246 33.0171 26.0806 33.1166 25.9903L35.9723 23.3968L32.2992 24.5748C32.1713 24.6159 32.0581 24.481 32.1207 24.3622L33.9173 20.9477L30.8679 23.3106C30.7618 23.3928 30.6093 23.3048 30.6274 23.1717L31.1486 19.3494L29.091 22.6133C29.0193 22.727 28.8459 22.6964 28.8175 22.5651L28.0001 18.7943L27.1827 22.5651C27.1542 22.6964 26.9808 22.727 26.9092 22.6133L24.8515 19.3494L25.3727 23.1717C25.3908 23.3048 25.2384 23.3928 25.1322 23.3106L22.0817 20.9477L23.8795 24.3621C23.942 24.481 23.8288 24.6159 23.7009 24.5748L20.0267 23.3968L22.8836 25.9903C22.983 26.0805 22.9228 26.246 22.7886 26.2512L18.9333 26.4016L22.5048 27.8612Z" fill="#FCD116"/>
<path fill-rule="evenodd" clip-rule="evenodd" d="M33.6645 28C33.6645 31.1284 31.1285 33.6644 28.0001 33.6644C24.8717 33.6644 22.3357 31.1284 22.3357 28C22.3357 24.8716 24.8717 22.3356 28.0001 22.3356C31.1285 22.3356 33.6645 24.8716 33.6645 28ZM22.6357 28C22.6357 30.9627 25.0374 33.3644 28.0001 33.3644C30.9628 33.3644 33.3645 30.9627 33.3645 28C33.3645 25.0373 30.9628 22.6356 28.0001 22.6356C25.0374 22.6356 22.6357 25.0373 22.6357 28Z" fill="#BD9C08"/>
<path d="M29.8135 14.6483L32.7708 14.6679C32.7895 14.5428 32.5175 14.2939 32.2841 14.2575C31.5361 14.1399 30.9748 14.3823 30.0655 14.3916L29.8135 14.6483H29.8135Z" fill="#FCD116" stroke="#BD9C08" stroke-width="0.2"/>
<path d="M23.924 13.9524C24.6187 14.8297 25.9654 15.4395 27.2507 15.4475C28.984 15.4581 30.9067 14.0553 33.2307 13.6259L25.6427 13.4696C24.66 12.7969 23.9147 12.8823 23.4067 13.2993L21.956 13.3432C21.7507 13.4551 22.1254 13.9223 22.4294 13.9393L23.924 13.9524Z" fill="#FCD116" stroke="#BD9C08" stroke-width="0.2"/>
<path d="M27.3548 13.4491C27.0788 12.18 26.0602 11.6331 24.8362 11.4708C23.4215 11.2833 20.1668 11.0912 18.0042 10.4701C18.9402 11.3903 20.8988 11.8496 22.2602 12.0573C23.7015 12.2773 25.1042 12.5979 26.2162 13.4375L27.3548 13.4491Z" fill="#FCD116" stroke="#BD9C08" stroke-width="0.2"/>
<path d="M26.436 14.2961C26.888 14.8767 27.5894 14.8439 28.344 14.3373C29.096 13.8325 29.9134 12.4111 30.308 12.3877C33.0667 12.2275 36.404 11.0629 37.996 10.1636C35.9774 10.4493 33.9774 10.7733 31.9414 10.7813C28.468 10.7952 28.0574 12.3771 26.6414 13.4861" fill="#FCD116"/>
<path d="M26.436 14.2961C26.888 14.8767 27.5894 14.8439 28.344 14.3373C29.096 13.8325 29.9134 12.4111 30.308 12.3877C33.0667 12.2275 36.404 11.0629 37.996 10.1636C35.9774 10.4493 33.9774 10.7733 31.9414 10.7813C28.468 10.7952 28.0574 12.3771 26.6414 13.4861" stroke="#BD9C08" stroke-width="0.2" stroke-linecap="round"/>
<path d="M27.0285 13.6981C27.3963 13.4637 27.6717 13.2467 28.2453 12.7611L28.2737 12.7371C28.6551 12.4143 28.8396 12.2633 29.069 12.0933C30.0104 11.3955 30.8679 11.2447 32.908 11.2195C33.4701 11.2126 34.2437 11.1072 35.204 10.9212C35.5122 10.8615 35.8354 10.7943 36.1792 10.7191C36.6082 10.6252 36.8208 10.5761 37.6016 10.3931C37.6554 10.3805 37.6887 10.3267 37.6761 10.2729C37.6635 10.2191 37.6097 10.1858 37.556 10.1984C36.7762 10.3811 36.5641 10.4301 36.1364 10.5237C35.7942 10.5986 35.4725 10.6655 35.166 10.7248C34.2165 10.9087 33.4529 11.0128 32.9055 11.0195C30.8246 11.0452 29.9364 11.2014 28.9499 11.9326C28.7159 12.106 28.5291 12.2589 28.1445 12.5844L28.1161 12.6085C27.5493 13.0883 27.2788 13.3014 26.921 13.5294C26.8745 13.5591 26.8608 13.6209 26.8904 13.6675C26.9201 13.714 26.9819 13.7277 27.0285 13.6981Z" fill="#BD9C08"/>
<path d="M26.3023 13.3727C26.1003 12.3178 25.2824 11.8694 23.5978 11.6134C23.2785 11.5649 23.0127 11.5282 22.45 11.4532C21.9776 11.3902 21.7868 11.3643 21.5339 11.3278C20.5979 11.1929 19.8879 11.0573 19.204 10.8683C19.012 10.8153 18.8569 10.7541 18.529 10.6107L18.5171 10.6055C18.3446 10.5301 18.2661 10.4966 18.1675 10.4577L18.094 10.6437C18.1897 10.6815 18.2667 10.7143 18.437 10.7888L18.4489 10.794C18.7854 10.9411 18.9466 11.0047 19.1508 11.0611C19.8442 11.2527 20.5617 11.3898 21.5054 11.5258C21.7592 11.5624 21.9504 11.5883 22.4236 11.6514C22.9851 11.7263 23.2501 11.7629 23.5677 11.8111C25.1766 12.0557 25.925 12.4659 26.1059 13.4103L26.3023 13.3727Z" fill="#BD9C08"/>
<path d="M26.662 15.1641C27.8848 15.2538 28.8017 14.992 30.2713 14.2598C30.3207 14.2351 30.3408 14.1751 30.3162 14.1257C30.2915 14.0762 30.2315 14.0561 30.1821 14.0808C28.7418 14.7984 27.8565 15.0512 26.6767 14.9647C26.6216 14.9606 26.5736 15.002 26.5696 15.0571C26.5656 15.1122 26.6069 15.1601 26.662 15.1641Z" fill="#BD9C08"/>
<path d="M21.9508 13.6822H23.6788C23.7341 13.6822 23.7788 13.6375 23.7788 13.5822C23.7788 13.527 23.7341 13.4822 23.6788 13.4822H21.9508C21.8956 13.4822 21.8508 13.527 21.8508 13.5822C21.8508 13.6375 21.8956 13.6822 21.9508 13.6822Z" fill="#BD9C08"/>
<circle cx="24.2333" cy="13.3916" r="0.216" fill="#BD9C08"/>
<rect x="-12" y="30" width="80" height="18" fill="#003F87"/>
<path d="M-12 42.2853C-9.33333 42.2853 -6.66667 44 -4 44C-1.33333 44 1.33333 42.2853 4 42.2853C6.66667 42.2853 9.33333 44 12 44C14.6667 44 17.3333 42.2853 20 42.2853C22.6667 42.2853 25.3333 44 28 44C30.6667 44 33.3333 42.2853 36 42.2853C38.6667 42.2853 41.3333 44 44 44C46.6667 44 49.3333 42.2853 52 42.2853C54.6667 42.2853 57.3333 44 60 44C62.6667 44 65.3333 42.2853 68 42.2853V39.428C65.3333 39.428 62.6667 41.1427 60 41.1427C57.3333 41.1427 54.6667 39.428 52 39.428C49.3333 39.428 46.6667 41.1427 44 41.1427C41.3333 41.1427 38.6667 39.428 36 39.428C33.3333 39.428 30.6667 41.1427 28 41.1427C25.3333 41.1427 22.6667 39.428 20 39.428C17.3333 39.428 14.6667 41.1427 12 41.1427C9.33333 41.1427 6.66667 39.428 4 39.428C1.33333 39.428 -1.33333 41.1427 -4 41.1427C-6.66667 41.1427 -9.33333 39.428 -12 39.428V42.2853Z" fill="white"/>
<path d="M-12 36.571C-9.33333 36.571 -6.66667 38.2857 -4 38.2857C-1.33333 38.2857 1.33333 36.571 4 36.571C6.66667 36.571 9.33333 38.2857 12 38.2857C14.6667 38.2857 17.3333 36.571 20 36.571C22.6667 36.571 25.3333 38.2857 28 38.2857C30.6667 38.2857 33.3333 36.571 36 36.571C38.6667 36.571 41.3333 38.2857 44 38.2857C46.6667 38.2857 49.3333 36.571 52 36.571C54.6667 36.571 57.3333 38.2857 60 38.2857C62.6667 38.2857 65.3333 36.571 68 36.571V33.7137C65.3333 33.7137 62.6667 35.4284 60 35.4284C57.3333 35.4284 54.6667 33.7137 52 33.7137C49.3333 33.7137 46.6667 35.4284 44 35.4284C41.3333 35.4284 38.6667 33.7137 36 33.7137C33.3333 33.7137 30.6667 35.4284 28 35.4284C25.3333 35.4284 22.6667 33.7137 20 33.7137C17.3333 33.7137 14.6667 35.4284 12 35.4284C9.33333 35.4284 6.66667 33.7137 4 33.7137C1.33333 33.7137 -1.33333 35.4284 -4 35.4284C-6.66667 35.4284 -9.33333 33.7137 -12 33.7137V36.571Z" fill="white"/>
<path d="M-12 30.8568C-9.33333 30.8568 -6.66667 32.5714 -4 32.5714C-1.33333 32.5714 1.33333 30.8568 4 30.8568C6.66667 30.8568 9.33333 32.5714 12 32.5714C14.6667 32.5714 17.3333 30.8568 20 30.8568C22.6667 30.8568 25.3333 32.5714 28 32.5714C30.6667 32.5714 33.3333 30.8568 36 30.8568C38.6667 30.8568 41.3333 32.5714 44 32.5714C46.6667 32.5714 49.3333 30.8568 52 30.8568C54.6667 30.8568 57.3333 32.5714 60 32.5714C62.6667 32.5714 65.3333 30.8568 68 30.8568V27.9994C65.3333 27.9994 62.6667 29.7141 60 29.7141C57.3333 29.7141 54.6667 27.9994 52 27.9994C49.3333 27.9994 46.6667 29.7141 44 29.7141C41.3333 29.7141 38.6667 27.9994 36 27.9994C33.3333 27.9994 30.6667 29.7141 28 29.7141C25.3333 29.7141 22.6667 27.9994 20 27.9994C17.3333 27.9994 14.6667 29.7141 12 29.7141C9.33333 29.7141 6.66667 27.9994 4 27.9994C1.33333 27.9994 -1.33333 29.7141 -4 29.7141C-6.66667 29.7141 -9.33333 27.9994 -12 27.9994V30.8568Z" fill="white"/>
</g>
</svg>
