<svg width="56" height="56" viewBox="0 0 56 56" fill="none" xmlns="http://www.w3.org/2000/svg">
<rect y="8" width="56" height="40" rx="4" fill="white"/>
<mask id="mask0_0_1905" style="mask-type:luminance" maskUnits="userSpaceOnUse" x="0" y="8" width="56" height="40">
<rect y="8" width="56" height="40" rx="4" fill="white"/>
</mask>
<g mask="url(#mask0_0_1905)">
<rect y="8" width="56" height="40" fill="#30C6E0"/>
<circle cx="28" cy="28" r="8" fill="#FFCD4B"/>
<path fill-rule="evenodd" clip-rule="evenodd" d="M24.7363 42.2989L28 37.4272L31.2636 42.2989L32.0903 36.4936L37.1445 39.4669L35.3705 33.8778L41.2142 34.3636L37.1908 30.0977L42.6666 28L37.1908 25.9022L41.2142 21.6364L35.3705 22.1222L37.1445 16.5331L32.0903 19.5064L31.2636 13.701L28 18.5728L24.7363 13.701L23.9097 19.5064L18.8555 16.5331L20.6295 22.1222L14.7858 21.6364L18.8091 25.9022L13.3333 28L18.8091 30.0977L14.7858 34.3636L20.6295 33.8778L18.8555 39.4669L23.9097 36.4936L24.7363 42.2989ZM28 37.3333C33.1546 37.3333 37.3333 33.1546 37.3333 28C37.3333 22.8453 33.1546 18.6667 28 18.6667C22.8453 18.6667 18.6666 22.8453 18.6666 28C18.6666 33.1546 22.8453 37.3333 28 37.3333Z" fill="#FFCD4B"/>
<path fill-rule="evenodd" clip-rule="evenodd" d="M2.66669 11.3334C2.66669 10.9652 2.96516 10.6667 3.33335 10.6667H4.66669C5.03488 10.6667 5.33335 10.9652 5.33335 11.3334V12.6667C5.33335 13.0349 5.03488 13.3334 4.66669 13.3334H3.33335C2.96516 13.3334 2.66669 13.0349 2.66669 12.6667V11.3334ZM2.66669 16.6667C2.66669 16.2985 2.96516 16 3.33335 16H4.66669C5.03488 16 5.33335 16.2985 5.33335 16.6667V18C5.33335 18.3682 5.03488 18.6667 4.66669 18.6667H3.33335C2.96516 18.6667 2.66669 18.3682 2.66669 18V16.6667ZM3.33335 21.3334C2.96516 21.3334 2.66669 21.6318 2.66669 22V23.3334C2.66669 23.7015 2.96516 24 3.33335 24H4.66669C5.03488 24 5.33335 23.7015 5.33335 23.3334V22C5.33335 21.6318 5.03488 21.3334 4.66669 21.3334H3.33335ZM2.66669 27.3334C2.66669 26.9652 2.96516 26.6667 3.33335 26.6667H4.66669C5.03488 26.6667 5.33335 26.9652 5.33335 27.3334V28.6667C5.33335 29.0349 5.03488 29.3334 4.66669 29.3334H3.33335C2.96516 29.3334 2.66669 29.0349 2.66669 28.6667V27.3334ZM3.33335 32C2.96516 32 2.66669 32.2985 2.66669 32.6667V34C2.66669 34.3682 2.96516 34.6667 3.33335 34.6667H4.66669C5.03488 34.6667 5.33335 34.3682 5.33335 34V32.6667C5.33335 32.2985 5.03488 32 4.66669 32H3.33335ZM2.66669 38C2.66669 37.6318 2.96516 37.3334 3.33335 37.3334H4.66669C5.03488 37.3334 5.33335 37.6318 5.33335 38V39.3334C5.33335 39.7015 5.03488 40 4.66669 40H3.33335C2.96516 40 2.66669 39.7015 2.66669 39.3334V38ZM3.33335 42.6667C2.96516 42.6667 2.66669 42.9652 2.66669 43.3334V44.6667C2.66669 45.0349 2.96516 45.3334 3.33335 45.3334H4.66669C5.03488 45.3334 5.33335 45.0349 5.33335 44.6667V43.3334C5.33335 42.9652 5.03488 42.6667 4.66669 42.6667H3.33335ZM5.33335 40.6667C5.33335 40.2985 5.63183 40 6.00002 40H7.33335C7.70154 40 8.00002 40.2985 8.00002 40.6667V42C8.00002 42.3682 7.70154 42.6667 7.33335 42.6667H6.00002C5.63183 42.6667 5.33335 42.3682 5.33335 42V40.6667ZM6.00002 34.6667C5.63183 34.6667 5.33335 34.9652 5.33335 35.3334V36.6667C5.33335 37.0349 5.63183 37.3334 6.00002 37.3334H7.33335C7.70154 37.3334 8.00002 37.0349 8.00002 36.6667V35.3334C8.00002 34.9652 7.70154 34.6667 7.33335 34.6667H6.00002ZM5.33335 30C5.33335 29.6318 5.63183 29.3334 6.00002 29.3334H7.33335C7.70154 29.3334 8.00002 29.6318 8.00002 30V31.3334C8.00002 31.7015 7.70154 32 7.33335 32H6.00002C5.63183 32 5.33335 31.7015 5.33335 31.3334V30ZM6.00002 24C5.63183 24 5.33335 24.2985 5.33335 24.6667V26C5.33335 26.3682 5.63183 26.6667 6.00002 26.6667H7.33335C7.70154 26.6667 8.00002 26.3682 8.00002 26V24.6667C8.00002 24.2985 7.70154 24 7.33335 24H6.00002ZM5.33335 19.3334C5.33335 18.9652 5.63183 18.6667 6.00002 18.6667H7.33335C7.70154 18.6667 8.00002 18.9652 8.00002 19.3334V20.6667C8.00002 21.0349 7.70154 21.3334 7.33335 21.3334H6.00002C5.63183 21.3334 5.33335 21.0349 5.33335 20.6667V19.3334ZM6.00002 13.3334C5.63183 13.3334 5.33335 13.6318 5.33335 14V15.3334C5.33335 15.7015 5.63183 16 6.00002 16H7.33335C7.70154 16 8.00002 15.7015 8.00002 15.3334V14C8.00002 13.6318 7.70154 13.3334 7.33335 13.3334H6.00002Z" fill="#FFCD4B"/>
</g>
</svg>
