<svg width="56" height="56" viewBox="0 0 56 56" fill="none" xmlns="http://www.w3.org/2000/svg">
<rect x="0.5" y="8.5" width="55" height="39" rx="3.5" fill="white" stroke="#F5F5F5"/>
<mask id="mask0_0_2544" style="mask-type:luminance" maskUnits="userSpaceOnUse" x="0" y="8" width="56" height="40">
<rect x="0.5" y="8.5" width="55" height="39" rx="3.5" fill="white" stroke="white"/>
</mask>
<g mask="url(#mask0_0_2544)">
<path fill-rule="evenodd" clip-rule="evenodd" d="M29.3334 48H56V8H29.3334V48Z" fill="#DE233C"/>
<mask id="path-4-outside-1_0_2544" maskUnits="userSpaceOnUse" x="3.33337" y="11.3333" width="12" height="12" fill="black">
<rect fill="white" x="3.33337" y="11.3333" width="12" height="12"/>
<path fill-rule="evenodd" clip-rule="evenodd" d="M10.6667 13.3333H8.00004V16H5.33337V18.6667H8.00004V21.3333H10.6667V18.6667H13.3334V16H10.6667V13.3333Z"/>
</mask>
<path fill-rule="evenodd" clip-rule="evenodd" d="M10.6667 13.3333H8.00004V16H5.33337V18.6667H8.00004V21.3333H10.6667V18.6667H13.3334V16H10.6667V13.3333Z" fill="#CCCCCD"/>
<path d="M8.00004 13.3333V12H6.66671V13.3333H8.00004ZM10.6667 13.3333H12V12H10.6667V13.3333ZM8.00004 16V17.3333H9.33337V16H8.00004ZM5.33337 16V14.6667H4.00004V16H5.33337ZM5.33337 18.6667H4.00004V20H5.33337V18.6667ZM8.00004 18.6667H9.33337V17.3333H8.00004V18.6667ZM8.00004 21.3333H6.66671V22.6667H8.00004V21.3333ZM10.6667 21.3333V22.6667H12V21.3333H10.6667ZM10.6667 18.6667V17.3333H9.33337V18.6667H10.6667ZM13.3334 18.6667V20H14.6667V18.6667H13.3334ZM13.3334 16H14.6667V14.6667H13.3334V16ZM10.6667 16H9.33337V17.3333H10.6667V16ZM8.00004 14.6667H10.6667V12H8.00004V14.6667ZM9.33337 16V13.3333H6.66671V16H9.33337ZM5.33337 17.3333H8.00004V14.6667H5.33337V17.3333ZM6.66671 18.6667V16H4.00004V18.6667H6.66671ZM8.00004 17.3333H5.33337V20H8.00004V17.3333ZM9.33337 21.3333V18.6667H6.66671V21.3333H9.33337ZM10.6667 20H8.00004V22.6667H10.6667V20ZM9.33337 18.6667V21.3333H12V18.6667H9.33337ZM13.3334 17.3333H10.6667V20H13.3334V17.3333ZM12 16V18.6667H14.6667V16H12ZM10.6667 17.3333H13.3334V14.6667H10.6667V17.3333ZM9.33337 13.3333V16H12V13.3333H9.33337Z" fill="#7B716A" fill-opacity="0.66" mask="url(#path-4-outside-1_0_2544)"/>
<circle cx="9.33333" cy="17.3333" r="1.33333" fill="#7B716A"/>
</g>
</svg>
