<svg width="56" height="56" viewBox="0 0 56 56" fill="none" xmlns="http://www.w3.org/2000/svg">
<rect y="8" width="56" height="40" rx="4" fill="white"/>
<mask id="mask0_0_1023" style="mask-type:luminance" maskUnits="userSpaceOnUse" x="0" y="8" width="56" height="40">
<rect y="8" width="56" height="40" rx="4" fill="white"/>
</mask>
<g mask="url(#mask0_0_1023)">
<g filter="url(#filter0_d_0_1023)">
<path fill-rule="evenodd" clip-rule="evenodd" d="M0 48H56V37.3333H0V48Z" fill="#2D754D"/>
</g>
<path fill-rule="evenodd" clip-rule="evenodd" d="M0 26.6667H56V8H0V26.6667Z" fill="#25B1EB"/>
<path fill-rule="evenodd" clip-rule="evenodd" d="M0 37.3334H56V26.6667H0V37.3334Z" fill="#FECB2F"/>
<path fill-rule="evenodd" clip-rule="evenodd" d="M42.6667 20L40.6257 22.2607L40.7811 19.219L37.7393 19.3743L40 17.3333L37.7393 15.2924L40.7811 15.4477L40.6257 12.406L42.6667 14.6667L44.7077 12.406L44.5523 15.4477L47.594 15.2924L45.3333 17.3333L47.594 19.3743L44.5523 19.219L44.7077 22.2607L42.6667 20Z" fill="#FECB2F"/>
</g>
<defs>
<filter id="filter0_d_0_1023" x="0" y="37.3333" width="56" height="10.6667" filterUnits="userSpaceOnUse" color-interpolation-filters="sRGB">
<feFlood flood-opacity="0" result="BackgroundImageFix"/>
<feColorMatrix in="SourceAlpha" type="matrix" values="0 0 0 0 0 0 0 0 0 0 0 0 0 0 0 0 0 0 127 0" result="hardAlpha"/>
<feOffset/>
<feColorMatrix type="matrix" values="0 0 0 0 0 0 0 0 0 0 0 0 0 0 0 0 0 0 0.06 0"/>
<feBlend mode="normal" in2="BackgroundImageFix" result="effect1_dropShadow_0_1023"/>
<feBlend mode="normal" in="SourceGraphic" in2="effect1_dropShadow_0_1023" result="shape"/>
</filter>
</defs>
</svg>
