<svg width="56" height="56" viewBox="0 0 56 56" fill="none" xmlns="http://www.w3.org/2000/svg">
<rect y="8" width="56" height="40" rx="4" fill="white"/>
<mask id="mask0_0_2105" style="mask-type:luminance" maskUnits="userSpaceOnUse" x="0" y="8" width="56" height="40">
<rect y="8" width="56" height="40" rx="4" fill="white"/>
</mask>
<g mask="url(#mask0_0_2105)">
<rect y="8" width="56" height="40" fill="#128C4B"/>
<path fill-rule="evenodd" clip-rule="evenodd" d="M13.3334 32H34.6667V30.1574C34.6667 29.1662 35.7098 28.5215 36.5963 28.9648L37.3334 29.3333V32H41.3334C42.0698 32 42.6667 32.597 42.6667 33.3333V34.6667C42.6667 36.1394 41.4728 37.3333 40 37.3333H36C35.2637 37.3333 34.6667 36.7364 34.6667 36V34.6667H16.5523C16.1987 34.6667 15.8596 34.5262 15.6095 34.2761L13.3334 32Z" fill="white"/>
<path fill-rule="evenodd" clip-rule="evenodd" d="M13.3334 24.2762C13.3334 24.0994 13.4036 23.9298 13.5286 23.8048L14.1953 23.1381C14.4557 22.8777 14.4557 22.4556 14.1953 22.1953L13.5286 21.5286C13.4036 21.4036 13.3334 21.234 13.3334 21.0572V19.3334C13.3334 18.9652 13.6319 18.6667 14 18.6667H15.4908C15.772 18.6667 16 18.8947 16 19.176C16 19.7134 16.7245 19.8844 16.9648 19.4037L17.1636 19.0062C17.2677 18.7981 17.4803 18.6667 17.713 18.6667H20.6667C21.0349 18.6667 21.3334 18.9652 21.3334 19.3334C21.3334 19.7015 21.0349 20 20.6667 20H19.3334C18.9652 20 18.6667 20.2985 18.6667 20.6667C18.6667 21.0349 18.9652 21.3334 19.3334 21.3334H20.6667C21.0349 21.3334 21.3334 21.6318 21.3334 22V26C21.3334 26.3682 21.0349 26.6667 20.6667 26.6667H19.3334C18.9652 26.6667 18.6667 26.3682 18.6667 26V24.6667C18.6667 24.2985 18.9652 24 19.3334 24C19.7016 24 20 23.7015 20 23.3334C20 22.9652 19.7016 22.6667 19.3334 22.6667H18C17.6319 22.6667 17.3334 22.9652 17.3334 23.3334V26C17.3334 26.3682 17.0349 26.6667 16.6667 26.6667C16.2985 26.6667 16 26.3682 16 26V24.6667C16 24.2985 15.7016 24 15.3334 24C14.9652 24 14.6667 24.2985 14.6667 24.6667V26C14.6667 26.3682 14.3682 26.6667 14 26.6667C13.6319 26.6667 13.3334 26.3682 13.3334 26V24.2762Z" fill="white"/>
<path fill-rule="evenodd" clip-rule="evenodd" d="M34.6666 24.2762C34.6666 24.0994 34.7369 23.9298 34.8619 23.8048L35.5286 23.1381C35.7889 22.8777 35.7889 22.4556 35.5286 22.1953L34.8619 21.5286C34.7369 21.4036 34.6666 21.234 34.6666 21.0572V19.3334C34.6666 18.9652 34.9651 18.6667 35.3333 18.6667H36.824C37.1053 18.6667 37.3333 18.8947 37.3333 19.176C37.3333 19.7134 38.0578 19.8844 38.2981 19.4037L38.4969 19.0062C38.6009 18.7981 38.8136 18.6667 39.0462 18.6667H42C42.3681 18.6667 42.6666 18.9652 42.6666 19.3334C42.6666 19.7015 42.3681 20 42 20H40.6666C40.2984 20 40 20.2985 40 20.6667C40 21.0349 40.2984 21.3334 40.6666 21.3334H42C42.3681 21.3334 42.6666 21.6318 42.6666 22V26C42.6666 26.3682 42.3681 26.6667 42 26.6667H40.6666C40.2984 26.6667 40 26.3682 40 26V24.6667C40 24.2985 40.2984 24 40.6666 24C41.0348 24 41.3333 23.7015 41.3333 23.3334C41.3333 22.9652 41.0348 22.6667 40.6666 22.6667H39.3333C38.9651 22.6667 38.6666 22.9652 38.6666 23.3334V26C38.6666 26.3682 38.3681 26.6667 38 26.6667C37.6318 26.6667 37.3333 26.3682 37.3333 26V24.6667C37.3333 24.2985 37.0348 24 36.6666 24C36.2984 24 36 24.2985 36 24.6667V26C36 26.3682 35.7015 26.6667 35.3333 26.6667C34.9651 26.6667 34.6666 26.3682 34.6666 26V24.2762Z" fill="white"/>
<path fill-rule="evenodd" clip-rule="evenodd" d="M32 20.6604C32 21.0321 31.7917 21.5417 31.5186 21.8147L31.148 22.1853C30.8822 22.4512 30.875 22.875 31.148 23.1481L31.5186 23.5187C31.7845 23.7845 32 24.2854 32 24.6729V25.9938C32 26.3654 31.7146 26.6667 31.3271 26.6667H30.0062C29.6346 26.6667 29.3333 26.3813 29.3333 25.9938V24.6729C29.3333 24.3013 29.2103 24.2461 29.0241 24.6185L28.3092 26.0482C28.1385 26.3898 27.6861 26.6667 27.3395 26.6667H24.6605C24.2957 26.6667 24 26.3574 24 26C24 25.6318 24.2854 25.3334 24.6729 25.3334H25.9938C26.3654 25.3334 26.6667 25.0241 26.6667 24.6667C26.6667 24.2985 26.3813 24 25.9938 24H24.6729C24.3013 24 24 23.7133 24 23.346V19.3207C24 18.9595 24.2854 18.6667 24.6729 18.6667H25.9938C26.3654 18.6667 26.6667 18.9521 26.6667 19.3396V20.6604C26.6667 21.0321 26.3574 21.3334 26 21.3334C25.6318 21.3334 25.3333 21.6426 25.3333 22C25.3333 22.3682 25.6187 22.6667 26.0062 22.6667H27.3271C27.6987 22.6667 28 22.3528 28 22.0062V19.3272C28 18.9624 28.3092 18.6667 28.6667 18.6667C29.0349 18.6667 29.3333 18.9521 29.3333 19.3396V20.6604C29.3333 21.0321 29.6426 21.3334 30 21.3334C30.3682 21.3334 30.6667 21.048 30.6667 20.6604V19.3396C30.6667 18.968 30.9759 18.6667 31.3333 18.6667C31.7015 18.6667 32 18.9521 32 19.3396V20.6604Z" fill="white"/>
</g>
</svg>
