<svg width="56" height="56" viewBox="0 0 56 56" fill="none" xmlns="http://www.w3.org/2000/svg">
<rect x="0.5" y="8.5" width="55" height="39" rx="3.5" fill="white" stroke="#F5F5F5"/>
<mask id="mask0_0_2665" style="mask-type:luminance" maskUnits="userSpaceOnUse" x="0" y="8" width="56" height="40">
<rect x="0.5" y="8.5" width="55" height="39" rx="3.5" fill="white" stroke="white"/>
</mask>
<g mask="url(#mask0_0_2665)">
<path fill-rule="evenodd" clip-rule="evenodd" d="M0 34.6666H56V21.3333H18.488V18.6666C18.488 18.6666 16.6073 17.3333 14.6667 17.3333C12.726 17.3333 10.6667 18.6666 10.6667 18.6666V21.3333H0V34.6666ZM14.6667 26.6666C16.1394 26.6666 17.3333 25.4727 17.3333 24C17.3333 22.5272 16.1394 21.3333 14.6667 21.3333C13.1939 21.3333 12 22.5272 12 24C12 25.4727 13.1939 26.6666 14.6667 26.6666Z" fill="#0C47B7"/>
<g filter="url(#filter0_d_0_2665)">
<path fill-rule="evenodd" clip-rule="evenodd" d="M0 48H56V34.6667H0V48Z" fill="#E53B35"/>
</g>
</g>
<defs>
<filter id="filter0_d_0_2665" x="0" y="34.6667" width="56" height="13.3333" filterUnits="userSpaceOnUse" color-interpolation-filters="sRGB">
<feFlood flood-opacity="0" result="BackgroundImageFix"/>
<feColorMatrix in="SourceAlpha" type="matrix" values="0 0 0 0 0 0 0 0 0 0 0 0 0 0 0 0 0 0 127 0" result="hardAlpha"/>
<feOffset/>
<feColorMatrix type="matrix" values="0 0 0 0 0 0 0 0 0 0 0 0 0 0 0 0 0 0 0.06 0"/>
<feBlend mode="normal" in2="BackgroundImageFix" result="effect1_dropShadow_0_2665"/>
<feBlend mode="normal" in="SourceGraphic" in2="effect1_dropShadow_0_2665" result="shape"/>
</filter>
</defs>
</svg>
