<svg width="56" height="56" viewBox="0 0 56 56" fill="none" xmlns="http://www.w3.org/2000/svg">
<rect x="0.5" y="8.5" width="55" height="39" rx="3.5" fill="white" stroke="#F5F5F5"/>
<mask id="mask0_0_2652" style="mask-type:luminance" maskUnits="userSpaceOnUse" x="0" y="8" width="56" height="40">
<rect x="0.5" y="8.5" width="55" height="39" rx="3.5" fill="white" stroke="white"/>
</mask>
<g mask="url(#mask0_0_2652)">
<path fill-rule="evenodd" clip-rule="evenodd" d="M0 34.6666H56V21.3333H0V34.6666Z" fill="#0C47B7"/>
<path fill-rule="evenodd" clip-rule="evenodd" d="M0 48H56V34.6667H0V48Z" fill="#E53B35"/>
<path d="M13.8994 14.6667C11.7501 14.6667 9.98498 16.3652 9.90238 18.5129L9.38388 31.9939C9.33693 33.2145 9.85031 34.3897 10.7778 35.1846L16.5291 40.1144C18.5264 41.8263 21.4736 41.8263 23.4709 40.1144L29.2223 35.1846C30.1497 34.3897 30.6631 33.2145 30.6161 31.9939L30.0977 18.5129C30.015 16.3652 28.2499 14.6667 26.1006 14.6667H13.8994Z" fill="#F73744" stroke="white" stroke-width="2.66667"/>
<mask id="mask1_0_2652" style="mask-type:luminance" maskUnits="userSpaceOnUse" x="8" y="13" width="24" height="30">
<path d="M13.8994 14.6667C11.7501 14.6667 9.98498 16.3652 9.90238 18.5129L9.38388 31.9939C9.33693 33.2145 9.85031 34.3897 10.7778 35.1846L16.5291 40.1144C18.5264 41.8263 21.4736 41.8263 23.4709 40.1144L29.2223 35.1846C30.1497 34.3897 30.6631 33.2145 30.6161 31.9939L30.0977 18.5129C30.015 16.3652 28.2499 14.6667 26.1006 14.6667H13.8994Z" fill="white" stroke="white" stroke-width="2.66667"/>
</mask>
<g mask="url(#mask1_0_2652)">
<path fill-rule="evenodd" clip-rule="evenodd" d="M18.6667 30C18.6667 29.6318 18.3683 29.3334 18.0001 29.3334H15.3334C14.9652 29.3334 14.6667 29.0349 14.6667 28.6667V27.3334C14.6667 26.9652 14.9652 26.6667 15.3334 26.6667H18.0001C18.3683 26.6667 18.6667 26.3682 18.6667 26V24.6667C18.6667 24.2985 18.3683 24 18.0001 24H16.6667C16.2986 24 16.0001 23.7015 16.0001 23.3334V22C16.0001 21.6318 16.2986 21.3334 16.6667 21.3334H18.0001C18.3683 21.3334 18.6667 21.0349 18.6667 20.6667V19.3334C18.6667 18.9652 18.9652 18.6667 19.3334 18.6667H20.6667C21.0349 18.6667 21.3334 18.9652 21.3334 19.3334V20.6667C21.3334 21.0349 21.6319 21.3334 22.0001 21.3334H23.3334C23.7016 21.3334 24.0001 21.6318 24.0001 22V23.3334C24.0001 23.7015 23.7016 24 23.3334 24H22.0001C21.6319 24 21.3334 24.2985 21.3334 24.6667V26C21.3334 26.3682 21.6319 26.6667 22.0001 26.6667H24.6667C25.0349 26.6667 25.3334 26.9652 25.3334 27.3334V28.6667C25.3334 29.0349 25.0349 29.3334 24.6667 29.3334H22.0001C21.6319 29.3334 21.3334 29.6318 21.3334 30V34C21.3334 34.3682 21.0349 34.6667 20.6667 34.6667H19.3334C18.9652 34.6667 18.6667 34.3682 18.6667 34V30Z" fill="white"/>
<path fill-rule="evenodd" clip-rule="evenodd" d="M17.5929 34.8509C18.0222 33.9533 18.9387 33.3333 20 33.3333C21.0613 33.3333 21.9778 33.9533 22.4071 34.8509C25.6491 35.3617 28 36.8769 28 38.6666C28 40.8758 24.4183 42.6666 20 42.6666C15.5817 42.6666 12 40.8758 12 38.6666C12 36.8769 14.3509 35.3617 17.5929 34.8509Z" fill="#1251A1"/>
</g>
</g>
</svg>
