<svg width="56" height="56" viewBox="0 0 56 56" fill="none" xmlns="http://www.w3.org/2000/svg">
<rect y="8" width="56" height="40" rx="4" fill="#06A86E"/>
<mask id="mask0_0_1082" style="mask-type:luminance" maskUnits="userSpaceOnUse" x="0" y="8" width="56" height="40">
<rect y="8" width="56" height="40" rx="4" fill="white"/>
</mask>
<g mask="url(#mask0_0_1082)">
<rect x="-6" y="8" width="68" height="40" fill="#003893"/>
<rect x="-6" y="28" width="68" height="10" fill="white"/>
<rect x="-6" y="31.3333" width="68" height="3.33333" fill="#CF2027"/>
<path d="M19.6476 21L18.9441 23.038L20.0268 23.3691" fill="#F7D116"/>
<path d="M19.9278 21L20.7938 23.038L19.4612 23.3691" fill="#F7D116"/>
<path d="M21.6267 22.4379L19.4711 22.3985L19.4908 23.5305" fill="#F7D116"/>
<path d="M21.7133 22.7043L20.0426 24.1577L19.316 22.9927" fill="#F7D116"/>
<path d="M20.8708 24.7645L20.2421 22.7022L19.1716 23.0707" fill="#F7D116"/>
<path d="M20.6441 24.9292L18.7457 23.7894L19.6291 22.7383" fill="#F7D116"/>
<path d="M18.4245 24.7645L20.1916 23.5293L19.5103 22.625" fill="#F7D116"/>
<path d="M18.1978 24.5997L18.6951 22.442L19.9678 22.9574" fill="#F7D116"/>
<path d="M17.6685 22.4379L19.3893 23.7368L20.0388 22.8094" fill="#F7D116"/>
<path d="M17.7551 22.1714L19.9609 21.9777L19.864 23.3473" fill="#F7D116"/>
<path d="M19.6476 41L18.9441 43.038L20.0268 43.3691" fill="#F7D116"/>
<path d="M19.9278 41L20.7938 43.038L19.4612 43.3691" fill="#F7D116"/>
<path d="M21.6267 42.4379L19.4711 42.3985L19.4908 43.5305" fill="#F7D116"/>
<path d="M21.7133 42.7043L20.0426 44.1577L19.316 42.9927" fill="#F7D116"/>
<path d="M20.8708 44.7645L20.2421 42.7022L19.1716 43.0707" fill="#F7D116"/>
<path d="M20.6441 44.9292L18.7457 43.7894L19.6291 42.7383" fill="#F7D116"/>
<path d="M18.4245 44.7645L20.1916 43.5293L19.5103 42.625" fill="#F7D116"/>
<path d="M18.1978 44.5997L18.6951 42.442L19.9678 42.9574" fill="#F7D116"/>
<path d="M17.6685 42.4379L19.3893 43.7368L20.0388 42.8094" fill="#F7D116"/>
<path d="M17.7551 42.1714L19.9609 41.9777L19.864 43.3473" fill="#F7D116"/>
<path d="M30.9583 29.4322L28.8027 29.3929L28.8224 30.5249" fill="#F7D116"/>
<path d="M31.0449 29.6987L29.3743 31.152L28.6476 29.987" fill="#F7D116"/>
<path d="M30.2024 31.7587L29.5737 29.6964L28.5032 30.065" fill="#F7D116"/>
<path d="M29.9757 31.9234L28.0772 30.7837L28.9606 29.7326" fill="#F7D116"/>
<path d="M27.756 31.7587L29.5231 30.5235L28.8418 29.6193" fill="#F7D116"/>
<path d="M27.5293 31.594L28.0267 29.4363L29.2993 29.9517" fill="#F7D116"/>
<path d="M27.0001 29.4322L28.7209 30.7311L29.3704 29.8037" fill="#F7D116"/>
<path d="M27.0867 29.1657L29.2925 28.9719L29.1956 30.3415" fill="#F7D116"/>
<path d="M28.9792 27.9943L28.2757 30.0322L29.3583 30.3633" fill="#F7D116"/>
<path d="M29.2594 27.9943L30.1253 30.0323L28.7928 30.3633" fill="#F7D116"/>
<path d="M11.9372 35.6126L9.78156 35.5732L9.80124 36.7052" fill="#F7D116"/>
<path d="M12.0238 35.879L10.3531 37.3323L9.62647 36.1673" fill="#F7D116"/>
<path d="M11.1813 37.9391L10.5526 35.8768L9.48204 36.2453" fill="#F7D116"/>
<path d="M10.9545 38.1038L9.05611 36.964L9.93953 35.9129" fill="#F7D116"/>
<path d="M8.73493 37.9391L10.502 36.7039L9.82073 35.7996" fill="#F7D116"/>
<path d="M8.50822 37.7744L9.00556 35.6166L10.2782 36.132" fill="#F7D116"/>
<path d="M7.97901 35.6125L9.69982 36.9114L10.3493 35.984" fill="#F7D116"/>
<path d="M8.0656 35.3461L10.2714 35.1523L10.1745 36.5219" fill="#F7D116"/>
<path d="M9.95811 34.1746L9.25454 36.2126L10.3372 36.5437" fill="#F7D116"/>
<path d="M10.2383 34.1746L11.1042 36.2126L9.77169 36.5437" fill="#F7D116"/>
<path d="M26.434 42.795L25.8053 40.7327L24.7348 41.1012" fill="#F7D116"/>
<path d="M26.2073 42.9597L24.3089 41.8199L25.1923 40.7688" fill="#F7D116"/>
<path d="M23.9877 42.795L25.7548 41.5598L25.0735 40.6555" fill="#F7D116"/>
<path d="M23.761 42.6303L24.2583 40.4725L25.531 40.9879" fill="#F7D116"/>
<path d="M23.2318 40.4684L24.9526 41.7673L25.602 40.8399" fill="#F7D116"/>
<path d="M23.3183 40.202L25.5242 40.0082L25.4273 41.3778" fill="#F7D116"/>
<path d="M25.2109 39.0305L24.5073 41.0685L25.59 41.3996" fill="#F7D116"/>
<path d="M25.4911 39.0305L26.357 41.0685L25.0245 41.3996" fill="#F7D116"/>
<path d="M27.19 40.4684L25.0343 40.429L25.054 41.561" fill="#F7D116"/>
<path d="M27.2765 40.7349L25.6059 42.1882L24.8792 41.0232" fill="#F7D116"/>
<path d="M14.6783 26.6146L14.0496 24.5523L12.9791 24.9209" fill="#F7D116"/>
<path d="M14.4516 26.7793L12.5532 25.6396L13.4366 24.5885" fill="#F7D116"/>
<path d="M12.232 26.6146L13.9991 25.3794L13.3178 24.4752" fill="#F7D116"/>
<path d="M12.0053 26.4499L12.5026 24.2922L13.7753 24.8076" fill="#F7D116"/>
<path d="M11.476 24.2881L13.1969 25.587L13.8463 24.6596" fill="#F7D116"/>
<path d="M11.5626 24.0216L13.7685 23.8278L13.6716 25.1974" fill="#F7D116"/>
<path d="M13.4552 22.8502L12.7516 24.8881L13.8343 25.2192" fill="#F7D116"/>
<path d="M13.7354 22.8502L14.6013 24.8882L13.2688 25.2192" fill="#F7D116"/>
<path d="M15.4342 24.288L13.2786 24.2487L13.2983 25.3807" fill="#F7D116"/>
<path d="M15.5208 24.5545L13.8502 26.0078L13.1235 24.8428" fill="#F7D116"/>
<path d="M12.3272 42.6214L14.0942 41.3862L13.4129 40.482" fill="#F7D116"/>
<path d="M12.1004 42.4567L12.5978 40.2989L13.8704 40.8143" fill="#F7D116"/>
<path d="M11.5712 40.2948L13.292 41.5937L13.9415 40.6664" fill="#F7D116"/>
<path d="M11.6578 40.0284L13.8636 39.8346L13.7667 41.2042" fill="#F7D116"/>
<path d="M13.5503 38.8569L12.8468 40.8949L13.9294 41.226" fill="#F7D116"/>
<path d="M13.8305 38.8569L14.6964 40.8949L13.3639 41.226" fill="#F7D116"/>
<path d="M15.5294 40.2949L13.3738 40.2555L13.3934 41.3875" fill="#F7D116"/>
<path d="M15.616 40.5613L13.9453 42.0147L13.2187 40.8497" fill="#F7D116"/>
<path d="M14.7734 42.6214L14.1447 40.5591L13.0742 40.9276" fill="#F7D116"/>
<path d="M14.5467 42.7861L12.6483 41.6463L13.5317 40.5952" fill="#F7D116"/>
<path d="M24.0829 26.441L25.8499 25.2058L25.1687 24.3016" fill="#F7D116"/>
<path d="M23.8562 26.2763L24.3535 24.1186L25.6261 24.634" fill="#F7D116"/>
<path d="M23.3269 24.1145L25.0477 25.4134L25.6972 24.486" fill="#F7D116"/>
<path d="M23.4135 23.848L25.6193 23.6542L25.5224 25.0239" fill="#F7D116"/>
<path d="M25.306 22.6766L24.6025 24.7145L25.6851 25.0456" fill="#F7D116"/>
<path d="M25.5862 22.6766L26.4521 24.7146L25.1196 25.0457" fill="#F7D116"/>
<path d="M27.2851 24.1145L25.1295 24.0752L25.1491 25.2072" fill="#F7D116"/>
<path d="M27.3717 24.381L25.701 25.8343L24.9744 24.6693" fill="#F7D116"/>
<path d="M26.5292 26.441L25.9005 24.3787L24.8299 24.7473" fill="#F7D116"/>
<path d="M26.3024 26.6058L24.404 25.466L25.2874 24.4149" fill="#F7D116"/>
<path d="M8.13294 29.1514L9.85376 30.4503L10.5032 29.5229" fill="#F7D116"/>
<path d="M8.21953 28.8849L10.4253 28.6912L10.3285 30.0608" fill="#F7D116"/>
<path d="M10.112 27.7135L9.40847 29.7515L10.4911 30.0826" fill="#F7D116"/>
<path d="M10.3922 27.7135L11.2581 29.7515L9.92562 30.0826" fill="#F7D116"/>
<path d="M12.0911 29.1515L9.93549 29.1121L9.95517 30.2441" fill="#F7D116"/>
<path d="M12.1777 29.4179L10.5071 30.8712L9.78041 29.7062" fill="#F7D116"/>
<path d="M11.3352 31.478L10.7065 29.4157L9.63597 29.7842" fill="#F7D116"/>
<path d="M11.1085 31.6427L9.21004 30.5029L10.0935 29.4518" fill="#F7D116"/>
<path d="M8.88889 31.478L10.656 30.2428L9.97469 29.3386" fill="#F7D116"/>
<path d="M8.66218 31.3133L9.15953 29.1556L10.4322 29.671" fill="#F7D116"/>
<path d="M27.1541 35.3318L28.8749 36.6307L29.5243 35.7033" fill="#F7D116"/>
<path d="M27.2406 35.0653L29.4465 34.8715L29.3496 36.2411" fill="#F7D116"/>
<path d="M29.1332 33.8939L28.4296 35.9318L29.5123 36.2629" fill="#F7D116"/>
<path d="M29.4133 33.8939L30.2793 35.9319L28.9467 36.2629" fill="#F7D116"/>
<path d="M31.1123 35.3318L28.9566 35.2925L28.9763 36.4244" fill="#F7D116"/>
<path d="M31.1988 35.5983L29.5282 37.0516L28.8015 35.8866" fill="#F7D116"/>
<path d="M30.3563 37.6583L29.7276 35.596L28.6571 35.9646" fill="#F7D116"/>
<path d="M30.1296 37.823L28.2312 36.6833L29.1146 35.6322" fill="#F7D116"/>
<path d="M27.91 37.6584L29.6771 36.4232L28.9958 35.5189" fill="#F7D116"/>
<path d="M27.6833 37.4937L28.1806 35.3359L29.4533 35.8513" fill="#F7D116"/>
</g>
</svg>
