<svg width="56" height="56" viewBox="0 0 56 56" fill="none" xmlns="http://www.w3.org/2000/svg">
<rect y="8" width="56" height="40" rx="4" fill="white"/>
<mask id="mask0_0_2202" style="mask-type:luminance" maskUnits="userSpaceOnUse" x="0" y="8" width="56" height="40">
<rect y="8" width="56" height="40" rx="4" fill="white"/>
</mask>
<g mask="url(#mask0_0_2202)">
<rect y="8" width="56" height="40" fill="#E92434"/>
<path fill-rule="evenodd" clip-rule="evenodd" d="M38.0417 29.5367L35.5921 32.5067L35.7589 28.6604L32.1773 27.2485L35.8869 26.2186L36.123 22.376L38.2488 25.5857L41.9763 24.6228L39.5805 27.6364L41.6481 30.884L38.0417 29.5367Z" fill="white"/>
<path fill-rule="evenodd" clip-rule="evenodd" d="M34.8056 20.6318C33.1111 19.4002 30.9807 18.6667 28.6667 18.6667C23.1439 18.6667 18.6667 22.8453 18.6667 28C18.6667 33.1547 23.1439 37.3333 28.6667 37.3333C30.9807 37.3333 33.1111 36.5998 34.8056 35.3682C32.6097 38.187 29.1833 40 25.3334 40C18.706 40 13.3334 34.6274 13.3334 28C13.3334 21.3726 18.706 16 25.3334 16C29.1833 16 32.6097 17.813 34.8056 20.6318Z" fill="white"/>
</g>
</svg>
