<svg width="56" height="56" viewBox="0 0 56 56" fill="none" xmlns="http://www.w3.org/2000/svg">
<rect x="0.5" y="8.5" width="55" height="39" rx="3.5" fill="white" stroke="#F5F5F5"/>
<mask id="mask0_0_2256" style="mask-type:luminance" maskUnits="userSpaceOnUse" x="0" y="8" width="56" height="40">
<rect x="0.5" y="8.5" width="55" height="39" rx="3.5" fill="white" stroke="white"/>
</mask>
<g mask="url(#mask0_0_2256)">
<path fill-rule="evenodd" clip-rule="evenodd" d="M0 21.3333H56V8H0V21.3333Z" fill="#04AAC8"/>
<path fill-rule="evenodd" clip-rule="evenodd" d="M0 48H56V34.6667H0V48Z" fill="#23C840"/>
<path fill-rule="evenodd" clip-rule="evenodd" d="M11.3334 11.3334C11.4083 11.3334 11.4826 11.3358 11.5562 11.3407C10.9205 10.915 10.1559 10.6667 9.33337 10.6667C7.12424 10.6667 5.33337 12.4575 5.33337 14.6667C5.33337 16.8758 7.12424 18.6667 9.33337 18.6667C10.1559 18.6667 10.9205 18.4184 11.5562 17.9927C11.4826 17.9976 11.4083 18 11.3334 18C9.49242 18 8.00004 16.5076 8.00004 14.6667C8.00004 12.8257 9.49242 11.3334 11.3334 11.3334ZM14.6667 18.6667C15.4031 18.6667 16 18.0697 16 17.3334C16 16.597 15.4031 16 14.6667 16C13.9303 16 13.3334 16.597 13.3334 17.3334C13.3334 18.0697 13.9303 18.6667 14.6667 18.6667ZM21.3334 12C21.3334 12.7364 20.7364 13.3334 20 13.3334C19.2637 13.3334 18.6667 12.7364 18.6667 12C18.6667 11.2636 19.2637 10.6667 20 10.6667C20.7364 10.6667 21.3334 11.2636 21.3334 12ZM25.3334 13.3334C26.0698 13.3334 26.6667 12.7364 26.6667 12C26.6667 11.2636 26.0698 10.6667 25.3334 10.6667C24.597 10.6667 24 11.2636 24 12C24 12.7364 24.597 13.3334 25.3334 13.3334ZM26.6667 17.3334C26.6667 18.0697 26.0698 18.6667 25.3334 18.6667C24.597 18.6667 24 18.0697 24 17.3334C24 16.597 24.597 16 25.3334 16C26.0698 16 26.6667 16.597 26.6667 17.3334ZM20 18.6667C20.7364 18.6667 21.3334 18.0697 21.3334 17.3334C21.3334 16.597 20.7364 16 20 16C19.2637 16 18.6667 16.597 18.6667 17.3334C18.6667 18.0697 19.2637 18.6667 20 18.6667Z" fill="white"/>
</g>
</svg>
