<svg width="56" height="56" viewBox="0 0 56 56" fill="none" xmlns="http://www.w3.org/2000/svg">
<rect y="8" width="56" height="40" rx="4" fill="white"/>
<mask id="mask0_0_3082" style="mask-type:luminance" maskUnits="userSpaceOnUse" x="0" y="8" width="56" height="40">
<rect y="8" width="56" height="40" rx="4" fill="white"/>
</mask>
<g mask="url(#mask0_0_3082)">
<rect y="8" width="56" height="40" fill="#0A17A7"/>
<path d="M0 7.33333H-1.80217L-0.433861 8.50617L8.66667 16.3066V18.3236L-0.387492 24.7908L-0.666667 24.9903V25.3333V26.6667V27.8695L0.353333 27.232L10.8579 20.6667H13.1197L22.1642 27.127C22.352 27.2612 22.5771 27.3333 22.808 27.3333C23.8363 27.3333 24.3096 26.054 23.5288 25.3847L15.3333 18.36V16.3431L24.1083 10.0752C24.4587 9.82495 24.6667 9.42086 24.6667 8.99025V8V6.79717L23.6467 7.43467L13.1421 14H10.8803L1.72083 7.45751L1.54698 7.33333H1.33333H0Z" fill="#FF2E3B" stroke="white" stroke-width="1.33333"/>
<path fill-rule="evenodd" clip-rule="evenodd" d="M0 14.6667V20H9.33333V26.6667C9.33333 27.403 9.93029 28 10.6667 28H13.3333C14.0697 28 14.6667 27.403 14.6667 26.6667V20H24C24.7364 20 25.3333 19.403 25.3333 18.6667V16C25.3333 15.2636 24.7364 14.6667 24 14.6667H14.6667V8H9.33333V14.6667H0Z" fill="url(#paint0_linear_0_3082)"/>
<path fill-rule="evenodd" clip-rule="evenodd" d="M0 16H10.6667V14.6667V8H13.3333V14.6667V16H24V18.6667H13.3333V20V26.6667H10.6667V20V18.6667H0V16Z" fill="url(#paint1_linear_0_3082)"/>
<path fill-rule="evenodd" clip-rule="evenodd" d="M12 40.6667L9.64889 41.9027L10.0979 39.2847L8.1958 37.4306L10.8245 37.0486L12 34.6667L13.1756 37.0486L15.8043 37.4306L13.9021 39.2847L14.3512 41.9027L12 40.6667Z" fill="white"/>
<path fill-rule="evenodd" clip-rule="evenodd" d="M40.0001 42.6667L38.1145 43.219L38.6668 41.3333L38.1145 39.4477L40.0001 40L41.8857 39.4477L41.3335 41.3333L41.8857 43.219L40.0001 42.6667Z" fill="white"/>
<path fill-rule="evenodd" clip-rule="evenodd" d="M40.0001 17.3333L38.1145 17.8856L38.6668 16L38.1145 14.1144L40.0001 14.6667L41.8857 14.1144L41.3335 16L41.8857 17.8856L40.0001 17.3333Z" fill="white"/>
<path fill-rule="evenodd" clip-rule="evenodd" d="M48.0001 25.3333L46.1145 25.8856L46.6668 24L46.1145 22.1144L48.0001 22.6667L49.8857 22.1144L49.3335 24L49.8857 25.8856L48.0001 25.3333Z" fill="white"/>
<path fill-rule="evenodd" clip-rule="evenodd" d="M32.0001 28L30.1145 28.5523L30.6668 26.6667L30.1145 24.781L32.0001 25.3333L33.8857 24.781L33.3335 26.6667L33.8857 28.5523L32.0001 28Z" fill="white"/>
<path fill-rule="evenodd" clip-rule="evenodd" d="M43.9999 31.3333L43.0571 31.6095L43.3333 30.6667L43.0571 29.7239L43.9999 30L44.9427 29.7239L44.6666 30.6667L44.9427 31.6095L43.9999 31.3333Z" fill="white"/>
</g>
<defs>
<linearGradient id="paint0_linear_0_3082" x1="0" y1="8" x2="0" y2="28" gradientUnits="userSpaceOnUse">
<stop stop-color="white"/>
<stop offset="1" stop-color="#F0F0F0"/>
</linearGradient>
<linearGradient id="paint1_linear_0_3082" x1="0" y1="8" x2="0" y2="26.6667" gradientUnits="userSpaceOnUse">
<stop stop-color="#FF2E3B"/>
<stop offset="1" stop-color="#FC0D1B"/>
</linearGradient>
</defs>
</svg>
