<svg width="56" height="56" viewBox="0 0 56 56" fill="none" xmlns="http://www.w3.org/2000/svg">
<rect x="0.5" y="8.5" width="55" height="39" rx="3.5" fill="white" stroke="#F5F5F5"/>
<mask id="mask0_0_2780" style="mask-type:luminance" maskUnits="userSpaceOnUse" x="0" y="8" width="56" height="40">
<rect x="0.5" y="8.5" width="55" height="39" rx="3.5" fill="white" stroke="white"/>
</mask>
<g mask="url(#mask0_0_2780)">
<rect x="40" y="8" width="16" height="40" fill="#FF3131"/>
<path fill-rule="evenodd" clip-rule="evenodd" d="M0 48H16V8H0V48Z" fill="#FF3131"/>
<path fill-rule="evenodd" clip-rule="evenodd" d="M32.2237 26.4431C31.7573 26.9095 30.9692 26.4877 31.0986 25.8409L32.0001 21.3334L29.3334 22.6667L28.0001 18.6667L26.6667 22.6667L24.0001 21.3334L24.9016 25.8409C25.031 26.4877 24.2429 26.9095 23.7765 26.4431L23.1382 25.8048C22.8778 25.5444 22.4557 25.5444 22.1953 25.8048L21.3334 26.6667L18.6667 25.3334L20.0001 28L19.1382 28.8619C18.8778 29.1223 18.8778 29.5444 19.1382 29.8048L22.6667 33.3334H26.6667L27.3334 37.3334H28.6667L29.3334 33.3334H33.3334L36.862 29.8048C37.1224 29.5444 37.1224 29.1223 36.862 28.8619L36.0001 28L37.3334 25.3334L34.6667 26.6667L33.8048 25.8048C33.5445 25.5444 33.1224 25.5444 32.862 25.8048L32.2237 26.4431Z" fill="#FF3131"/>
</g>
</svg>
