<svg width="56" height="56" viewBox="0 0 56 56" fill="none" xmlns="http://www.w3.org/2000/svg">
<rect x="0.5" y="8.5" width="55" height="39" rx="3.5" fill="white" stroke="#F5F5F5"/>
<mask id="mask0_0_2352" style="mask-type:luminance" maskUnits="userSpaceOnUse" x="0" y="8" width="56" height="40">
<rect x="0.5" y="8.5" width="55" height="39" rx="3.5" fill="white" stroke="white"/>
</mask>
<g mask="url(#mask0_0_2352)">
<path fill-rule="evenodd" clip-rule="evenodd" d="M0 21.3333H56V8H0V21.3333Z" fill="#FF202D"/>
<path opacity="0.5" fill-rule="evenodd" clip-rule="evenodd" d="M21.3334 18.6666L22.6667 17.3333L24 18.6666V21.3333H21.3334V18.6666ZM26.6667 18.6666L28 17.3333L29.3334 18.6666V21.3333H26.6667V18.6666ZM33.3334 17.3333L32 18.6666V21.3333H34.6667V18.6666L33.3334 17.3333Z" fill="#1895DB"/>
<path opacity="0.5" fill-rule="evenodd" clip-rule="evenodd" d="M25.3333 17.3333L24 18.6666V21.3333H26.6667V18.6666L25.3333 17.3333ZM30.6667 17.3333L29.3333 18.6666V21.3333H32V18.6666L30.6667 17.3333Z" fill="#191F94"/>
<path fill-rule="evenodd" clip-rule="evenodd" d="M0 48H56V34.6667H0V48Z" fill="#2027AC"/>
<path fill-rule="evenodd" clip-rule="evenodd" d="M24 21.3333H22.6667L21.3334 24H24V26.6666H21.3334V29.3333H24V32H21.3334V34.6666H24V37.3333H26.6667V34.6666H29.3334V37.3333H32V34.6666H34.6667V32H32V29.3333H34.6667V26.6666H32V24H34.6667L33.3334 21.3333H32V24H29.3334V21.3333H26.6667V24H24V21.3333ZM26.6667 26.6666V24H29.3334V26.6666H26.6667ZM26.6667 29.3333V26.6666H24V29.3333H26.6667ZM29.3334 29.3333H26.6667V32H24V34.6666H26.6667V32H29.3334V34.6666H32V32H29.3334V29.3333ZM29.3334 29.3333H32V26.6666H29.3334V29.3333Z" fill="url(#paint0_linear_0_2352)"/>
</g>
<defs>
<linearGradient id="paint0_linear_0_2352" x1="21.3334" y1="21.3333" x2="21.3334" y2="37.3333" gradientUnits="userSpaceOnUse">
<stop stop-color="#FF212E"/>
<stop offset="1" stop-color="#FD0D1B"/>
</linearGradient>
</defs>
</svg>
