<svg width="56" height="56" viewBox="0 0 56 56" fill="none" xmlns="http://www.w3.org/2000/svg">
<rect y="8" width="56" height="40" rx="4" fill="white"/>
<mask id="mask0_0_2898" style="mask-type:luminance" maskUnits="userSpaceOnUse" x="0" y="8" width="56" height="40">
<rect y="8" width="56" height="40" rx="4" fill="white"/>
</mask>
<g mask="url(#mask0_0_2898)">
<path fill-rule="evenodd" clip-rule="evenodd" d="M0 26.6667H56V8H0V26.6667Z" fill="#112EBC"/>
<path fill-rule="evenodd" clip-rule="evenodd" d="M0 48H56V26.6667H0V48Z" fill="#E3264A"/>
<rect x="18.6667" y="21.3333" width="18.6667" height="16" rx="1.33333" fill="url(#paint0_linear_0_2898)"/>
<mask id="mask1_0_2898" style="mask-type:luminance" maskUnits="userSpaceOnUse" x="18" y="21" width="20" height="17">
<rect x="18.6667" y="21.3333" width="18.6667" height="16" rx="1.33333" fill="white"/>
</mask>
<g mask="url(#mask1_0_2898)">
<path d="M19.3334 36.6667V35.0787L23.1721 33.1593C23.8201 32.8353 24.5346 32.6667 25.2591 32.6667H30.7411C31.4655 32.6667 32.1801 32.8353 32.828 33.1593L36.6667 35.0787V36.6667H19.3334Z" fill="#AABCAE" stroke="#366C14" stroke-width="1.33333"/>
<circle cx="28" cy="28" r="4" fill="#D4B872"/>
<path d="M22.0002 30.7741C22.0002 30.2151 22.6468 29.9044 23.0833 30.2536L26.7508 33.1876C27.4812 33.7719 28.5191 33.7719 29.2496 33.1876L32.917 30.2536C33.3535 29.9044 34.0002 30.2151 34.0002 30.7741V33.3333C34.0002 33.7015 33.7017 34 33.3335 34H22.6668C22.2986 34 22.0002 33.7015 22.0002 33.3333V30.7741Z" fill="#C28321" stroke="#0D3488" stroke-width="1.33333"/>
<path fill-rule="evenodd" clip-rule="evenodd" d="M25.1381 25.1381C24.7181 24.7181 25.0155 24 25.6095 24H30.3905C30.9845 24 31.2819 24.7181 30.8619 25.1381L28.4714 27.5286C28.2111 27.7889 27.7889 27.7889 27.5286 27.5286L25.1381 25.1381Z" fill="#216C30"/>
</g>
</g>
<defs>
<linearGradient id="paint0_linear_0_2898" x1="18.6667" y1="21.3333" x2="18.6667" y2="37.3333" gradientUnits="userSpaceOnUse">
<stop stop-color="white"/>
<stop offset="1" stop-color="#F0F0F0"/>
</linearGradient>
</defs>
</svg>
