<svg width="56" height="56" viewBox="0 0 56 56" fill="none" xmlns="http://www.w3.org/2000/svg">
<rect x="0.5" y="8.5" width="55" height="39" rx="3.5" fill="white" stroke="#F5F5F5"/>
<mask id="mask0_0_2128" style="mask-type:luminance" maskUnits="userSpaceOnUse" x="0" y="8" width="56" height="40">
<rect x="0.5" y="8.5" width="55" height="39" rx="3.5" fill="white" stroke="white"/>
</mask>
<g mask="url(#mask0_0_2128)">
<circle cx="28" cy="28" r="9.33333" fill="#E01B41"/>
<mask id="mask1_0_2128" style="mask-type:luminance" maskUnits="userSpaceOnUse" x="18" y="18" width="20" height="20">
<circle cx="28" cy="28" r="9.33333" fill="white"/>
</mask>
<g mask="url(#mask1_0_2128)">
<path fill-rule="evenodd" clip-rule="evenodd" d="M18.6666 29.3334C21.3333 31.8334 25.3333 33.3334 28 29.3334C30.6666 25.3334 36 25.3334 37.3333 29.3334C38.6666 33.3334 37.3333 37.3334 37.3333 37.3334H18.6666C18.6666 37.3334 16 26.8334 18.6666 29.3334Z" fill="#0E4B9C"/>
</g>
<path opacity="0.75" fill-rule="evenodd" clip-rule="evenodd" d="M12.3462 15.1132C12.5303 14.7944 12.938 14.6851 13.2569 14.8692L14.4116 15.5359C14.7304 15.72 14.8397 16.1277 14.6556 16.4466L11.3223 22.2201C11.1382 22.5389 10.7304 22.6482 10.4116 22.4641L9.25687 21.7974C8.93801 21.6133 8.82875 21.2056 9.01285 20.8867L12.3462 15.1132ZM41.5885 15.5359C41.2696 15.72 41.1604 16.1277 41.3445 16.4466L44.6778 22.2201C44.8619 22.5389 45.2696 22.6482 45.5885 22.4641L46.7432 21.7974C47.062 21.6133 47.1713 21.2056 46.9872 20.8867L43.6539 15.1132C43.4698 14.7944 43.062 14.6851 42.7432 14.8692L41.5885 15.5359ZM38.1244 17.5359C37.8055 17.72 37.6963 18.1277 37.8804 18.4466L41.2137 24.2201C41.3978 24.5389 41.8055 24.6482 42.1244 24.4641L43.2791 23.7974C43.5979 23.6133 43.7072 23.2056 43.5231 22.8867L40.1898 17.1132C40.0057 16.7944 39.5979 16.6851 39.2791 16.8692L38.1244 17.5359ZM9.01285 35.1132C8.82875 34.7944 8.93801 34.3866 9.25687 34.2025L10.4116 33.5359C10.7304 33.3518 11.1382 33.461 11.3223 33.7799L14.6556 39.5534C14.8397 39.8723 14.7304 40.28 14.4116 40.4641L13.2569 41.1307C12.938 41.3148 12.5303 41.2056 12.3462 40.8867L9.01285 35.1132ZM12.721 32.2025C12.4021 32.3866 12.2929 32.7944 12.477 33.1132L15.8103 38.8867C15.9944 39.2056 16.4021 39.3148 16.721 39.1307L17.8757 38.4641C18.1945 38.28 18.3038 37.8723 18.1197 37.5534L14.7864 31.7799C14.6023 31.461 14.1945 31.3518 13.8757 31.5359L12.721 32.2025ZM41.2137 31.7799C41.3978 31.461 41.8055 31.3518 42.1244 31.5359L43.2791 32.2025C43.5979 32.3866 43.7072 32.7944 43.5231 33.1132L40.1898 38.8867C40.0057 39.2056 39.5979 39.3148 39.2791 39.1307L38.1244 38.4641C37.8055 38.28 37.6963 37.8723 37.8804 37.5534L41.2137 31.7799ZM45.5885 33.5359C45.2696 33.3518 44.8619 33.461 44.6778 33.7799L41.3445 39.5534C41.1604 39.8723 41.2696 40.28 41.5885 40.4641L42.7432 41.1307C43.062 41.3148 43.4698 41.2056 43.6539 40.8867L46.9872 35.1132C47.1713 34.7944 47.062 34.3866 46.7432 34.2025L45.5885 33.5359ZM16.721 16.8692C16.4021 16.6851 15.9944 16.7944 15.8103 17.1132L12.477 22.8867C12.2929 23.2056 12.4021 23.6133 12.721 23.7974L13.8757 24.4641C14.1945 24.6482 14.6023 24.5389 14.7864 24.2201L18.1197 18.4466C18.3038 18.1277 18.1945 17.72 17.8757 17.5359L16.721 16.8692Z" fill="#262626"/>
</g>
</svg>
