<svg width="56" height="56" viewBox="0 0 56 56" fill="none" xmlns="http://www.w3.org/2000/svg">
<rect y="8" width="56" height="40" rx="4" fill="white"/>
<mask id="mask0_0_2145" style="mask-type:luminance" maskUnits="userSpaceOnUse" x="0" y="8" width="56" height="40">
<rect y="8" width="56" height="40" rx="4" fill="white"/>
</mask>
<g mask="url(#mask0_0_2145)">
<rect y="8" width="56" height="40" fill="#FFBF19"/>
<path fill-rule="evenodd" clip-rule="evenodd" d="M21.3334 10.6667H50.6667C52.1395 10.6667 53.3334 11.8606 53.3334 13.3334V42.6667C53.3334 44.1394 52.1395 45.3334 50.6667 45.3334H21.3334V10.6667Z" fill="#A52531"/>
<path d="M2.66663 13.3334C2.66663 11.8606 3.86053 10.6667 5.33329 10.6667H10.6666V45.3334H5.33329C3.86053 45.3334 2.66663 44.1394 2.66663 42.6667V13.3334Z" fill="#03664F"/>
<rect x="10.6666" y="10.6667" width="8" height="34.6667" rx="1.33333" fill="#FF6816"/>
<path fill-rule="evenodd" clip-rule="evenodd" d="M25.3333 16C26.0697 16 26.6667 15.403 26.6667 14.6666C26.6667 13.9303 26.0697 13.3333 25.3333 13.3333C24.597 13.3333 24 13.9303 24 14.6666C24 15.403 24.597 16 25.3333 16ZM49.3333 16C48.597 16 48 15.403 48 14.6666C48 13.9303 48.597 13.3333 49.3333 13.3333C50.0697 13.3333 50.6667 13.9303 50.6667 14.6666C50.6667 15.403 50.0697 16 49.3333 16ZM48 41.3333C48 40.5969 48.597 40 49.3333 40C50.0697 40 50.6667 40.5969 50.6667 41.3333C50.6667 42.0697 50.0697 42.6666 49.3333 42.6666C48.597 42.6666 48 42.0697 48 41.3333ZM25.3333 40C26.0697 40 26.6667 40.5969 26.6667 41.3333C26.6667 42.0697 26.0697 42.6666 25.3333 42.6666C24.597 42.6666 24 42.0697 24 41.3333C24 40.5969 24.597 40 25.3333 40Z" fill="#FFBF18"/>
<path fill-rule="evenodd" clip-rule="evenodd" d="M32 33.1471C32 32.5136 31.4864 32 30.8528 32C30.7295 32 30.6073 31.9803 30.4912 31.9388C29.7197 31.6631 26.6666 30.4982 26.6666 29.3333C26.6666 28.6036 27.066 27.8739 27.4276 27.3628C27.7424 26.9177 27.8596 26.3394 27.6664 25.8296C27.2132 24.6337 26.4794 22.4567 26.6666 21.3333C26.7664 20.735 27.1647 20.2111 27.6243 19.7897C28.3356 19.1376 29.3333 19.7539 29.3333 20.719V25.8426C29.3333 26.3476 29.6186 26.8093 30.0704 27.0352L31.4234 27.7117C31.7677 27.8838 32.1836 27.8164 32.4558 27.5441C32.8875 27.1124 32.7694 26.3847 32.2234 26.1117L30.6666 25.3333V24C31.3309 24 31.5423 23.1045 30.9482 22.8074L30.6666 22.6666V21.3333H32.781C33.1346 21.3333 33.4738 21.1928 33.7238 20.9428L34.2761 20.3905C34.5262 20.1405 34.8653 20 35.2189 20H36.5093C37.0143 20 37.476 20.2853 37.7018 20.737L38.4196 22.1727C38.5778 22.489 38.6038 22.8551 38.492 23.1906L37.9183 24.9117C37.6305 25.775 38.2731 26.6666 39.1832 26.6666H43.5665C43.844 26.6666 44.1102 26.5564 44.3065 26.3601C44.8117 25.855 44.6735 25.0034 44.0345 24.6839L42.9482 24.1407C42.763 24.0482 42.5589 24 42.3519 24H41.3333C40.5969 24 40 23.403 40 22.6666V21.8856C40 21.532 40.1404 21.1928 40.3905 20.9428L41.3333 20V21.3333C41.3333 22.0697 41.9303 22.6666 42.6666 22.6666H44.5093C45.0143 22.6666 45.476 22.952 45.7018 23.4037L46.5597 25.1194C46.6304 25.2609 46.6755 25.4131 46.6899 25.5706C46.7512 26.2417 46.8974 28.1794 46.6666 29.3333C46.4796 30.2683 45.9561 31.1338 45.6234 31.6122C45.4446 31.8693 45.3333 32.1716 45.3333 32.4848V36.3147C45.3333 36.8773 44.8773 37.3333 44.3147 37.3333C43.5575 37.3333 43.0651 36.5365 43.4037 35.8592L43.8592 34.9482C43.9478 34.7709 43.9478 34.5623 43.8592 34.3851L43.7963 34.2592C43.5149 33.6964 42.6666 33.8967 42.6666 34.5259C42.6666 34.6184 42.6451 34.7097 42.6037 34.7925L41.6629 36.6741C41.4609 37.0781 41.048 37.3333 40.5963 37.3333C39.7097 37.3333 39.1331 36.4003 39.5296 35.6074L39.8592 34.9482C39.9518 34.763 40 34.5589 40 34.3519V33.3333C40 32.5969 39.403 32 38.6666 32H36C35.2636 32 34.6666 32.5969 34.6666 33.3333V34.3519C34.6666 34.5589 34.6184 34.763 34.5259 34.9482L33.6629 36.6741C33.4609 37.0781 33.048 37.3333 32.5963 37.3333C31.7097 37.3333 31.1331 36.4003 31.5296 35.6074L31.8592 34.9482C31.9518 34.763 32 34.5589 32 34.3519V33.1471Z" fill="#FFBF18"/>
</g>
</svg>
