<svg width="56" height="56" viewBox="0 0 56 56" fill="none" xmlns="http://www.w3.org/2000/svg">
<rect y="8" width="56" height="40" rx="4" fill="white"/>
<mask id="mask0_0_3141" style="mask-type:luminance" maskUnits="userSpaceOnUse" x="0" y="8" width="56" height="40">
<rect y="8" width="56" height="40" rx="4" fill="white"/>
</mask>
<g mask="url(#mask0_0_3141)">
<rect x="-2" y="8" width="76" height="40" fill="#003893"/>
<path d="M-2 47.36V46.4L74 12.6667V24.32L-2 47.36Z" fill="white"/>
<path d="M-2 46.72V46.08L74 8.64001V16.48L-2 46.72Z" fill="#DD7500"/>
<path d="M12.6047 10.2048L13.35 22.6048H11.8594L12.6047 10.2048Z" fill="white"/>
<path d="M14.9025 14.0289L13.4835 22.8403L11.7258 22.3693L14.9025 14.0289Z" fill="white"/>
<path d="M17.0438 14.9159L13.3926 23.0597L11.8167 22.1499L17.0438 14.9159Z" fill="white"/>
<path d="M18.8826 16.3268L13.248 23.2482L11.9613 21.9614L18.8826 16.3268Z" fill="white"/>
<path d="M20.2938 18.1656L13.0598 23.3928L12.1499 21.8168L20.2938 18.1656Z" fill="white"/>
<path d="M21.1806 20.3069L12.8402 23.4837L12.3692 21.7259L21.1806 20.3069Z" fill="white"/>
<path d="M25.0049 22.6048L12.6049 23.3501V21.8595L25.0049 22.6048Z" fill="white"/>
<path d="M21.1808 24.9027L12.3694 23.4837L12.8404 21.7259L21.1808 24.9027Z" fill="white"/>
<path d="M20.2938 27.044L12.15 23.3928L13.0599 21.8168L20.2938 27.044Z" fill="white"/>
<path d="M18.883 28.8828L11.9616 23.2482L13.2484 21.9614L18.883 28.8828Z" fill="white"/>
<path d="M17.0443 30.2937L11.8171 23.0598L13.3931 22.1499L17.0443 30.2937Z" fill="white"/>
<path d="M14.9029 31.1807L11.7261 22.8403L13.4838 22.3693L14.9029 31.1807Z" fill="white"/>
<path d="M12.6048 35.0048L11.8594 22.6048H13.3501L12.6048 35.0048Z" fill="white"/>
<path d="M10.3069 31.1807L11.726 22.3693L13.4837 22.8403L10.3069 31.1807Z" fill="white"/>
<path d="M8.16565 30.2937L11.8169 22.1499L13.3928 23.0597L8.16565 30.2937Z" fill="white"/>
<path d="M6.32684 28.8828L11.9614 21.9614L13.2482 23.2482L6.32684 28.8828Z" fill="white"/>
<path d="M4.91567 27.044L12.1497 21.8168L13.0595 23.3928L4.91567 27.044Z" fill="white"/>
<path d="M4.02891 24.9027L12.3693 21.7259L12.8403 23.4837L4.02891 24.9027Z" fill="white"/>
<path d="M0.204834 22.6048L12.6048 21.8595V23.3502L0.204834 22.6048Z" fill="white"/>
<path d="M4.02895 20.3069L12.8403 21.726L12.3693 23.4837L4.02895 20.3069Z" fill="white"/>
<path d="M4.91587 18.1656L13.0597 21.8168L12.1499 23.3928L4.91587 18.1656Z" fill="white"/>
<path d="M6.32672 16.3268L13.2481 21.9614L11.9613 23.2482L6.32672 16.3268Z" fill="white"/>
<path d="M8.16541 14.9159L13.3926 22.1499L11.8166 23.0597L8.16541 14.9159Z" fill="white"/>
<path d="M10.3068 14.0289L13.4836 22.3693L11.7259 22.8403L10.3068 14.0289Z" fill="white"/>
</g>
</svg>
