<svg width="56" height="56" viewBox="0 0 56 56" fill="none" xmlns="http://www.w3.org/2000/svg">
<rect y="8" width="56" height="40" rx="4" fill="white"/>
<mask id="mask0_0_1959" style="mask-type:luminance" maskUnits="userSpaceOnUse" x="0" y="8" width="56" height="40">
<rect y="8" width="56" height="40" rx="4" fill="white"/>
</mask>
<g mask="url(#mask0_0_1959)">
<path fill-rule="evenodd" clip-rule="evenodd" d="M0 48H56V8H0V48Z" fill="#079D7B"/>
<path fill-rule="evenodd" clip-rule="evenodd" d="M31.7701 25.3334C31.7701 25.9171 31.7277 26.4833 31.648 27.0228C31.8525 26.96 32.0608 26.9 32.2726 26.8433C35.829 25.8903 39.0033 26.2047 39.3626 27.5455C39.7219 28.8864 37.1301 30.7458 33.5736 31.6988C33.1238 31.8193 32.68 31.9195 32.2473 32H38.6667C38.3504 32.9494 37.9247 33.844 37.4057 34.6667H18.5944C18.0753 33.844 17.6496 32.9494 17.3334 32H23.6663C23.2846 31.9252 22.8948 31.8351 22.5004 31.7294C18.9439 30.7764 16.3521 28.917 16.7114 27.5762C17.0706 26.2354 20.2449 25.9209 23.8014 26.8739C23.9881 26.9239 24.1722 26.9765 24.3533 27.0313C24.2728 26.4892 24.2299 25.9201 24.2299 25.3334C24.2299 21.6515 25.9179 18.6667 28 18.6667C30.0822 18.6667 31.7701 21.6515 31.7701 25.3334ZM28 40C30.6935 40 33.167 39.0011 35.1096 37.3334H20.8905C22.833 39.0011 25.3066 40 28 40ZM28 32C31.6819 32 34.6667 31.4031 34.6667 30.6667C34.6667 29.9303 31.6819 29.3334 28 29.3334C24.3181 29.3334 21.3334 29.9303 21.3334 30.6667C21.3334 31.4031 24.3181 32 28 32Z" fill="white"/>
<path fill-rule="evenodd" clip-rule="evenodd" d="M29.3333 14.6667C29.3333 15.4031 28.7364 16 28 16C27.2636 16 26.6667 15.4031 26.6667 14.6667C26.6667 13.9303 27.2636 13.3333 28 13.3333C28.7364 13.3333 29.3333 13.9303 29.3333 14.6667ZM18.6667 21.3333C18.6667 22.0697 18.0697 22.6667 17.3333 22.6667C16.597 22.6667 16 22.0697 16 21.3333C16 20.597 16.597 20 17.3333 20C18.0697 20 18.6667 20.597 18.6667 21.3333ZM38.6667 22.6667C39.403 22.6667 40 22.0697 40 21.3333C40 20.597 39.403 20 38.6667 20C37.9303 20 37.3333 20.597 37.3333 21.3333C37.3333 22.0697 37.9303 22.6667 38.6667 22.6667ZM36 17.3333C36 18.0697 35.403 18.6667 34.6667 18.6667C33.9303 18.6667 33.3333 18.0697 33.3333 17.3333C33.3333 16.597 33.9303 16 34.6667 16C35.403 16 36 16.597 36 17.3333ZM21.3333 18.6667C22.0697 18.6667 22.6667 18.0697 22.6667 17.3333C22.6667 16.597 22.0697 16 21.3333 16C20.597 16 20 16.597 20 17.3333C20 18.0697 20.597 18.6667 21.3333 18.6667Z" fill="#FCD117"/>
</g>
</svg>
