<svg width="56" height="56" viewBox="0 0 56 56" fill="none" xmlns="http://www.w3.org/2000/svg">
<rect x="0.5" y="8.5" width="55" height="39" rx="3.5" fill="white" stroke="#F5F5F5"/>
<path fill-rule="evenodd" clip-rule="evenodd" d="M0 12C0 9.79086 1.79086 8 4 8L4.92963 8C5.19287 8 5.45021 8.07792 5.66923 8.22393L30.0051 24.4479C32.2004 25.9114 31.1644 29.3333 28.5259 29.3333H16L31.9921 43.3265C33.8452 44.9479 32.6984 48 30.2361 48H4C1.79086 48 0 46.2091 0 44V12Z" fill="white"/>
<mask id="mask0_0_2030" style="mask-type:luminance" maskUnits="userSpaceOnUse" x="0" y="8" width="33" height="40">
<path fill-rule="evenodd" clip-rule="evenodd" d="M0 12C0 9.79086 1.79086 8 4 8L4.92963 8C5.19287 8 5.45021 8.07792 5.66923 8.22393L30.0051 24.4479C32.2004 25.9114 31.1644 29.3333 28.5259 29.3333H16L31.9921 43.3265C33.8452 44.9479 32.6984 48 30.2361 48H4C1.79086 48 0 46.2091 0 44V12Z" fill="white"/>
</mask>
<g mask="url(#mask0_0_2030)">
<path d="M30.2361 46.6667H1.33333V9.33333L4.92963 9.33333L29.2655 25.5573C30.3632 26.289 29.8451 28 28.5259 28H16C15.4445 28 14.9472 28.3444 14.7519 28.8644C14.5565 29.3843 14.704 29.971 15.122 30.3368L31.1141 44.3299C32.0407 45.1406 31.4673 46.6667 30.2361 46.6667Z" fill="#EE1B44" stroke="#0543A8" stroke-width="2.66667" stroke-linejoin="round"/>
<path fill-rule="evenodd" clip-rule="evenodd" d="M13.7022 23.6015C14.4705 23.391 15.1787 23.103 15.8051 22.7523C15.1838 25.009 13.1168 26.6666 10.6626 26.6666C8.20838 26.6666 6.14136 25.009 5.52006 22.7523C6.14819 23.104 6.8586 23.3926 7.62928 23.6033L8.66673 22.6666L6.97121 21.1359L9.25251 21.2524L9.13599 18.9711L10.6667 20.6666L12.1975 18.9711L12.0809 21.2524L14.3622 21.1359L12.6667 22.6666L13.7022 23.6015ZM8.62575 42.2607L10.6667 40L12.7077 42.2607L12.5523 39.2189L15.5941 39.3743L13.3334 37.3333L15.5941 35.2923L12.5523 35.4477L12.7077 32.406L10.6667 34.6666L8.62575 32.406L8.78111 35.4477L5.73937 35.2923L8.00006 37.3333L5.73937 39.3743L8.78111 39.2189L8.62575 42.2607Z" fill="white"/>
</g>
</svg>
