<svg width="56" height="56" viewBox="0 0 56 56" fill="none" xmlns="http://www.w3.org/2000/svg">
<rect x="0.5" y="8.5" width="55" height="39" rx="3.5" fill="white" stroke="#F5F5F5"/>
<mask id="mask0_0_2082" style="mask-type:luminance" maskUnits="userSpaceOnUse" x="0" y="8" width="56" height="40">
<rect x="0.5" y="8.5" width="55" height="39" rx="3.5" fill="white" stroke="white"/>
</mask>
<g mask="url(#mask0_0_2082)">
<path fill-rule="evenodd" clip-rule="evenodd" d="M0 48H56V26.6667H24.8889L26.6667 28L0 48Z" fill="#DD1C34"/>
<path fill-rule="evenodd" clip-rule="evenodd" d="M56 26.6667H24.8889L0 8H56V26.6667Z" fill="#0D4BC3"/>
<path fill-rule="evenodd" clip-rule="evenodd" d="M5.33329 14.6667C5.33329 15.4031 4.73634 16 3.99996 16C3.26358 16 2.66663 15.4031 2.66663 14.6667C2.66663 13.9303 3.26358 13.3333 3.99996 13.3333C4.73634 13.3333 5.33329 13.9303 5.33329 14.6667ZM21.3333 28C21.3333 28.7364 20.7363 29.3333 20 29.3333C19.2636 29.3333 18.6666 28.7364 18.6666 28C18.6666 27.2636 19.2636 26.6667 20 26.6667C20.7363 26.6667 21.3333 27.2636 21.3333 28ZM3.99996 42.6667C4.73634 42.6667 5.33329 42.0697 5.33329 41.3333C5.33329 40.597 4.73634 40 3.99996 40C3.26358 40 2.66663 40.597 2.66663 41.3333C2.66663 42.0697 3.26358 42.6667 3.99996 42.6667ZM9.06411 30.6533L6.78207 34.1592L7.64753 30.0663C7.50826 29.9526 7.38071 29.825 7.26695 29.6858L3.1741 30.5512L6.68004 28.2692C6.67117 28.1807 6.66663 28.0909 6.66663 28C6.66663 27.9092 6.67117 27.8194 6.68004 27.7308L3.1741 25.4488L7.26695 26.3142C7.38071 26.175 7.50826 26.0474 7.64753 25.9337L6.78207 21.8408L9.06411 25.3468C9.15263 25.3379 9.24243 25.3333 9.33329 25.3333C9.42415 25.3333 9.51395 25.3379 9.60248 25.3468L11.8845 21.8408L11.0191 25.9337C11.1583 26.0474 11.2859 26.175 11.3996 26.3142L15.4925 25.4488L11.9865 27.7308C11.9954 27.8193 12 27.9091 12 28C12 28.0909 11.9954 28.1807 11.9865 28.2692L15.4925 30.5512L11.3996 29.6858C11.2859 29.825 11.1583 29.9526 11.0191 30.0663L11.8845 34.1592L9.60248 30.6533C9.51395 30.6621 9.42415 30.6667 9.33329 30.6667C9.24243 30.6667 9.15263 30.6621 9.06411 30.6533Z" fill="#FDD64D"/>
</g>
</svg>
