<svg width="56" height="56" viewBox="0 0 56 56" fill="none" xmlns="http://www.w3.org/2000/svg">
<rect x="0.5" y="8.5" width="55" height="39" rx="3.5" fill="white" stroke="#F5F5F5"/>
<mask id="mask0_0_2114" style="mask-type:luminance" maskUnits="userSpaceOnUse" x="0" y="8" width="56" height="40">
<rect x="0.5" y="8.5" width="55" height="39" rx="3.5" fill="white" stroke="white"/>
</mask>
<g mask="url(#mask0_0_2114)">
<path fill-rule="evenodd" clip-rule="evenodd" d="M0 29.3333H56V8H0V29.3333Z" fill="#E12237"/>
<path fill-rule="evenodd" clip-rule="evenodd" d="M16 12C16.8195 12 17.6045 12.1479 18.3297 12.4184C16.9607 11.3222 15.2236 10.6667 13.3334 10.6667C8.9151 10.6667 5.33337 14.2484 5.33337 18.6667C5.33337 23.085 8.9151 26.6667 13.3334 26.6667C15.2236 26.6667 16.9607 26.0111 18.3297 24.915C17.6045 25.1855 16.8195 25.3334 16 25.3334C12.3181 25.3334 9.33337 22.3486 9.33337 18.6667C9.33337 14.9848 12.3181 12 16 12ZM14.6667 18.6667C15.4031 18.6667 16 18.0697 16 17.3334C16 16.597 15.4031 16 14.6667 16C13.9303 16 13.3334 16.597 13.3334 17.3334C13.3334 18.0697 13.9303 18.6667 14.6667 18.6667ZM18.6667 22.6667C18.6667 23.4031 18.0698 24 17.3334 24C16.597 24 16 23.4031 16 22.6667C16 21.9303 16.597 21.3334 17.3334 21.3334C18.0698 21.3334 18.6667 21.9303 18.6667 22.6667ZM22.6667 24C23.4031 24 24 23.4031 24 22.6667C24 21.9303 23.4031 21.3334 22.6667 21.3334C21.9303 21.3334 21.3334 21.9303 21.3334 22.6667C21.3334 23.4031 21.9303 24 22.6667 24ZM26.6667 17.3334C26.6667 18.0697 26.0698 18.6667 25.3334 18.6667C24.597 18.6667 24 18.0697 24 17.3334C24 16.597 24.597 16 25.3334 16C26.0698 16 26.6667 16.597 26.6667 17.3334ZM20 14.6667C20.7364 14.6667 21.3334 14.0697 21.3334 13.3334C21.3334 12.597 20.7364 12 20 12C19.2637 12 18.6667 12.597 18.6667 13.3334C18.6667 14.0697 19.2637 14.6667 20 14.6667Z" fill="white"/>
</g>
</svg>
