<svg width="56" height="56" viewBox="0 0 56 56" fill="none" xmlns="http://www.w3.org/2000/svg">
<rect x="0.5" y="8.5" width="55" height="39" rx="3.5" fill="white" stroke="#F5F5F5"/>
<mask id="mask0_0_2632" style="mask-type:luminance" maskUnits="userSpaceOnUse" x="0" y="8" width="56" height="40">
<rect x="0.5" y="8.5" width="55" height="39" rx="3.5" fill="white" stroke="white"/>
</mask>
<g mask="url(#mask0_0_2632)">
<path fill-rule="evenodd" clip-rule="evenodd" d="M0 48H56V26.6667H0V48Z" fill="#7CCCF5"/>
<path d="M25.9963 30.1297L26.6655 28.9764L25.9963 30.1297ZM26.4804 31.9521L27.6337 32.6213L27.6337 32.6213L26.4804 31.9521ZM24.658 32.4362L25.3272 31.2829L24.658 32.4362ZM31.5881 32.2862L32.3064 33.4094L31.5881 32.2862ZM29.7464 31.8813L28.6232 32.5997H28.6232L29.7464 31.8813ZM30.1513 30.0397L30.8697 31.1629L30.1513 30.0397ZM25.3333 26.6667C25.3333 25.1939 24.1394 24 22.6666 24V26.6667H25.3333ZM26.6655 28.9764C25.8638 28.5113 25.3333 27.6498 25.3333 26.6667H22.6666C22.6666 28.6375 23.7358 30.3595 25.3272 31.2829L26.6655 28.9764ZM27.6337 32.6213C28.3728 31.3474 27.9394 29.7156 26.6655 28.9764L25.3272 31.2829L25.3272 31.2829L27.6337 32.6213ZM23.9889 33.5895C25.2627 34.3286 26.8946 33.8951 27.6337 32.6213L25.3272 31.2829H25.3272L23.9889 33.5895ZM20 26.6667C20 29.6278 21.6101 32.2092 23.9889 33.5895L25.3272 31.2829C23.736 30.3597 22.6666 28.6378 22.6666 26.6667H20ZM22.6666 24C21.1939 24 20 25.1939 20 26.6667H22.6666V24ZM36 26.6667C36 25.1939 34.8061 24 33.3333 24V26.6667H36ZM32.3064 33.4094C34.5215 31.9927 36 29.5035 36 26.6667H33.3333C33.3333 28.5553 32.3515 30.2152 30.8697 31.1629L32.3064 33.4094ZM28.6232 32.5997C29.4167 33.8404 31.0657 34.2029 32.3064 33.4094L30.8697 31.1629L28.6232 32.5997ZM29.4329 28.9164C28.1922 29.7099 27.8296 31.359 28.6232 32.5997L30.8697 31.1629L29.4329 28.9164ZM30.6666 26.6667C30.6666 27.609 30.1799 28.4386 29.4329 28.9164L30.8697 31.1629C32.3517 30.215 33.3333 28.5551 33.3333 26.6667H30.6666ZM33.3333 24C31.8605 24 30.6666 25.1939 30.6666 26.6667H33.3333V24Z" fill="#445F42"/>
<ellipse cx="28" cy="25.3333" rx="2.66667" ry="4" fill="#D89F3D"/>
</g>
</svg>
