<svg width="56" height="56" viewBox="0 0 56 56" fill="none" xmlns="http://www.w3.org/2000/svg">
<rect x="0.5" y="8.5" width="55" height="39" rx="3.5" fill="white" stroke="#F5F5F5"/>
<mask id="mask0_0_2857" style="mask-type:luminance" maskUnits="userSpaceOnUse" x="0" y="8" width="56" height="40">
<rect x="0.5" y="8.5" width="55" height="39" rx="3.5" fill="white" stroke="white"/>
</mask>
<g mask="url(#mask0_0_2857)">
<path fill-rule="evenodd" clip-rule="evenodd" d="M0 21.3333H56V8H0V21.3333Z" fill="#1B57C4"/>
<path fill-rule="evenodd" clip-rule="evenodd" d="M0 48H56V34.6667H0V48Z" fill="#1B57C4"/>
<path fill-rule="evenodd" clip-rule="evenodd" d="M24.8 23.733C23.5046 24.706 22.6667 26.2552 22.6667 28C22.6667 30.9455 25.0546 33.3333 28.0001 33.3333C30.9456 33.3333 33.3334 30.9455 33.3334 28C33.3334 26.2552 32.4955 24.706 31.2002 23.733L29.3334 29.3333H26.6667L24.8 23.733Z" fill="url(#paint0_linear_0_2857)"/>
<path fill-rule="evenodd" clip-rule="evenodd" d="M28.0001 22.6667L29.3334 29.3333H26.6667L28.0001 22.6667Z" fill="#F9C92E"/>
</g>
<defs>
<linearGradient id="paint0_linear_0_2857" x1="22.6667" y1="23.7332" x2="22.6667" y2="33.3333" gradientUnits="userSpaceOnUse">
<stop stop-color="#3C7839"/>
<stop offset="1" stop-color="#31642E"/>
</linearGradient>
</defs>
</svg>
