<svg width="56" height="56" viewBox="0 0 56 56" fill="none" xmlns="http://www.w3.org/2000/svg">
<rect x="0.5" y="8.5" width="55" height="39" rx="3.5" fill="white" stroke="#F5F5F5"/>
<mask id="mask0_0_2174" style="mask-type:luminance" maskUnits="userSpaceOnUse" x="0" y="8" width="56" height="40">
<rect x="0.5" y="8.5" width="55" height="39" rx="3.5" fill="white" stroke="white"/>
</mask>
<g mask="url(#mask0_0_2174)">
<path fill-rule="evenodd" clip-rule="evenodd" d="M0 21.3333H56V8H0V21.3333Z" fill="#D9101C"/>
<path fill-rule="evenodd" clip-rule="evenodd" d="M0 48H56V34.6667H0V48Z" fill="#0F7811"/>
<path fill-rule="evenodd" clip-rule="evenodd" d="M25.3333 26.6667C26.0697 26.6667 26.6666 26.0697 26.6666 25.3333C26.6666 24.597 26.0697 24 25.3333 24C24.5969 24 24 24.597 24 25.3333C24 26.0697 24.5969 26.6667 25.3333 26.6667ZM25.3333 29.3333H26.6666C26.6666 27.8606 27.2636 26.6667 28 26.6667C28.7363 26.6667 29.3333 27.8606 29.3333 29.3333H30.6666C31.403 29.3333 32 29.9303 32 30.6667C32 31.403 31.403 32 30.6666 32H28H25.3333C24.5969 32 24 31.403 24 30.6667C24 29.9303 24.5969 29.3333 25.3333 29.3333ZM30.6666 26.6667C31.403 26.6667 32 26.0697 32 25.3333C32 24.597 31.403 24 30.6666 24C29.9302 24 29.3333 24.597 29.3333 25.3333C29.3333 26.0697 29.9302 26.6667 30.6666 26.6667ZM37.3333 28C37.3333 28.7364 36.7363 29.3333 36 29.3333C35.2636 29.3333 34.6666 28.7364 34.6666 28C34.6666 27.2636 35.2636 26.6667 36 26.6667C36.7363 26.6667 37.3333 27.2636 37.3333 28ZM20 29.3333C20.7363 29.3333 21.3333 28.7364 21.3333 28C21.3333 27.2636 20.7363 26.6667 20 26.6667C19.2636 26.6667 18.6666 27.2636 18.6666 28C18.6666 28.7364 19.2636 29.3333 20 29.3333Z" fill="#FAD14E"/>
</g>
</svg>
