<svg width="56" height="56" viewBox="0 0 56 56" fill="none" xmlns="http://www.w3.org/2000/svg">
<rect y="8" width="56" height="40" rx="4" fill="#009F60"/>
<mask id="mask0_0_1405" style="mask-type:luminance" maskUnits="userSpaceOnUse" x="0" y="8" width="56" height="40">
<rect y="8" width="56" height="40" rx="4" fill="white"/>
</mask>
<g mask="url(#mask0_0_1405)">
<rect x="48" y="29.3333" width="8" height="18.6667" fill="#EA8B42"/>
<path fill-rule="evenodd" clip-rule="evenodd" d="M40 48H48V29.3333H40V48Z" fill="#1A1919"/>
<path fill-rule="evenodd" clip-rule="evenodd" d="M32 48H40V29.3333H32V48Z" fill="#DB3C36"/>
<path fill-rule="evenodd" clip-rule="evenodd" d="M42.0283 14.9681C41.8445 14.9732 41.7094 14.9096 41.6611 14.8026C41.9607 14.6268 42.1634 14.666 42.4147 14.89C42.463 14.7148 42.4147 14.5197 42.3084 14.4028C42.2021 14.2858 42.115 14.2858 41.9703 14.2758C41.8253 14.2661 41.6803 14.2273 41.5836 14.2273C41.442 13.9152 41.0871 14.0473 40.7463 14.1753C40.1923 14.3831 39.6944 14.7606 39.4709 15.1374C39.3687 15.3098 39.3564 15.3775 39.2936 15.4753C39.3454 15.4687 39.342 15.4687 39.3742 15.4491C39.3355 15.8782 39.284 16.2746 39.3612 16.5282C39.2648 16.8988 39.342 17.1327 39.4579 17.2497C39.5741 17.3667 39.6221 17.4156 39.6416 17.5522C39.6608 17.6884 39.7188 17.8151 39.8155 17.8932C39.9122 17.9713 39.9701 18.0883 39.9797 18.1567C39.9893 18.2249 40.2883 18.5187 40.4144 18.5954C40.4628 18.6243 40.4724 18.6832 40.5307 18.7609C40.4048 19.5021 40.9075 20.2433 40.7912 20.9745C40.8783 20.9841 40.9942 20.9745 41.1104 20.9452C41.2068 21.569 41.2647 21.8715 40.7237 22.0566C40.1827 22.2421 39.8868 22.4244 40.0376 22.6319C40.1439 22.7781 40.364 22.6508 40.5015 22.5246C40.6078 22.4272 40.7333 22.3394 40.83 22.3102C40.9267 22.2809 40.9462 22.3102 40.8975 22.4368C40.8492 22.5638 40.5886 22.8366 40.5787 22.9732C40.5691 23.1098 40.685 23.2072 40.8687 23.0999C41.0522 22.9925 41.2136 22.7117 41.2551 22.5442C41.2839 22.4272 41.3326 22.3491 41.3227 22.5442C41.3131 22.7393 41.1972 23.0902 41.4581 23.1487C41.719 23.2072 41.7965 22.8951 41.7094 22.6123C41.6223 22.3298 41.5935 22.1736 41.6319 22.0762C41.6707 21.9785 41.7094 21.9203 41.8058 21.9492C41.9024 21.9785 42.0958 21.9396 42.0862 21.7837C42.0763 21.6279 41.9412 21.5009 41.7866 21.5886C41.6319 21.6764 41.516 21.6633 41.5836 21.4717C41.6319 21.3351 41.719 21.1692 41.7286 21.0622C41.8349 21.2181 42.4339 21.2377 42.6756 21.0914C42.7335 21.3839 42.8882 21.6471 42.5501 21.9203C42.2117 22.1932 41.9412 22.4564 41.9508 22.6515C41.9607 22.8466 42.0379 22.9633 42.2117 22.8659C42.3855 22.7685 42.4918 22.6319 42.5306 22.5053C42.5693 22.3783 42.6468 22.3783 42.608 22.5345C42.5693 22.6904 42.5018 22.9148 42.5306 23.0514C42.5597 23.1876 42.7723 23.1976 42.859 23.0706C42.9461 22.944 42.9266 22.7781 42.9074 22.6123C42.8882 22.4465 42.9173 22.2713 42.9557 22.2028C42.9944 22.1347 43.0716 22.037 43.1491 22.2225C43.2266 22.4076 43.265 22.5538 43.4196 22.6027C43.5742 22.6515 43.6901 22.5831 43.6613 22.3979C43.6322 22.2128 43.4292 22.0077 43.2266 21.8519C43.0236 21.696 43.0911 21.6179 43.1007 21.4717C43.1103 21.3254 43.0815 21.0622 43.0716 20.9452C43.2554 21.0818 43.4583 21.0622 43.5547 21.0622C43.6514 21.0622 43.8101 21.0323 43.6514 20.8867C43.3325 20.5942 43.4388 20.4184 43.2166 20.204C42.9944 19.9897 42.7915 19.658 42.7239 19.3755C42.656 19.0926 42.5072 18.5758 42.2117 18.3126C42.0475 18.1664 41.9991 17.7665 42.0379 17.3082C42.0763 16.8499 42.0862 16.3431 41.6707 16.1091C41.2551 15.8751 41.2647 15.68 41.4002 15.4753C41.5352 15.2705 41.7091 15.0703 41.9316 15.0558C41.9816 15.0527 42.0972 15.0431 42.1442 15.0087C42.1232 14.9925 42.0893 14.9667 42.0283 14.9681Z" fill="#EA8B42"/>
<path fill-rule="evenodd" clip-rule="evenodd" d="M39.3259 16.0213C39.3156 16.2195 39.3204 16.394 39.3612 16.5282C39.2649 16.8987 39.342 17.1327 39.4579 17.2497C39.5741 17.3667 39.6221 17.4156 39.6417 17.5522C39.6609 17.6884 39.7188 17.815 39.8155 17.8932C39.9122 17.9713 39.9701 18.0882 39.9797 18.1567C39.9893 18.2249 40.2883 18.5187 40.4145 18.5954C40.4628 18.6243 40.4724 18.6832 40.5307 18.7609C40.4782 19.0689 40.5334 19.3769 40.6089 19.6841C39.9259 20.256 39.2518 19.9862 39.5354 19.4013C38.9683 19.8562 37.9894 19.8434 38.2085 19.4013C37.3195 19.7134 37.049 19.4532 37.1649 19.1673C36.4178 19.4663 36.031 19.1804 36.1342 18.9722C35.5157 19.1412 35.1163 19.0372 35.0518 18.9333C34.9877 18.8294 35.142 18.5954 35.2839 18.4784C35.0004 18.5824 34.7299 18.5824 34.4721 18.5435C34.2146 18.5042 34.279 18.4261 34.3305 18.3092C34.3822 18.1922 34.4498 18.007 34.6558 17.825C34.1631 17.9224 33.5446 17.9909 33.1099 17.8443C33.0279 17.8168 32.8877 17.7858 32.9745 17.6984C33.0615 17.6107 33.3225 17.3959 33.6413 17.2593C32.9165 17.3667 31.5444 17.4448 31.158 17.0061C31.5348 17.0839 32.0179 16.928 32.3271 16.8014C31.1097 16.6648 29.4478 15.8262 29.4283 15.0073C29.7763 15.5726 30.3756 15.7677 30.9746 15.9432C30.1627 15.4653 29.8246 14.89 29.7958 14.5098C30.2594 14.9584 30.9646 15.4653 31.6606 15.5826C31.1676 15.3194 30.5299 14.549 30.3561 14.0125C30.7137 14.3343 31.6315 14.8511 32.2596 15.0169C31.8249 14.6756 31.1196 13.8663 31.158 13.418C31.3222 13.5838 31.7282 13.8956 32.5589 14.3831C33.39 14.8707 33.8409 14.8349 34.5269 14.9812C34.4014 14.8122 34.2886 14.5879 34.279 14.5294C34.482 14.5586 34.675 14.6367 35.2548 14.9973C35.8346 15.3583 37.1014 15.4687 37.8252 15.7873C38.3563 16.0213 39.1133 15.8751 39.3259 16.0213Z" fill="#EA8B42"/>
<path fill-rule="evenodd" clip-rule="evenodd" d="M43.699 21.0288C43.7309 21.0033 43.7309 20.9593 43.6514 20.8867C43.3325 20.5942 43.4388 20.4184 43.2166 20.204C42.9944 19.9897 42.7915 19.658 42.7239 19.3755C42.656 19.0926 42.5072 18.5758 42.2117 18.3126C42.0475 18.1664 41.9991 17.7665 42.0379 17.3082C42.0708 16.9159 42.0828 16.4883 41.825 16.2264C42.308 16.0898 42.7531 16.0602 42.9074 16.2161C43.7093 16.0113 44.4053 15.9494 45.0879 15.9043C45.8738 15.852 47.3552 15.5141 48.4119 14.7991C48.3475 15.0593 47.9868 15.4491 47.6645 15.6442C48.7339 15.3841 50.0223 14.903 51.1174 14.0841C51.1044 14.6563 50.6408 15.0851 50.37 15.3194C51.1174 14.903 52.2122 14.3831 52.5859 13.7332C52.7501 14.3993 51.6327 15.2705 51.0269 15.7516C51.6454 15.4526 52.4443 15.1763 52.7535 14.7341C52.747 15.2736 52.0448 15.9432 51.3749 16.3331C52.0579 16.0733 52.818 15.8001 53.2558 15.3972C53.3072 15.9401 51.2138 17.1881 50.1766 17.5291C51.0787 17.3082 52.2509 17.0092 52.7662 16.6971C52.7405 16.8076 52.5303 16.9624 52.3774 17.0753C51.7472 17.5412 50.7807 17.7913 50.1896 17.9062C50.2671 18.2314 50.1639 18.4134 49.8032 18.4392C49.4426 18.4654 48.5696 18.3257 48.1318 18.1044C48.0674 18.1433 47.9899 18.1567 47.9028 18.1664C48.3279 18.4881 48.473 18.7221 48.3859 18.8587C48.2991 18.9953 47.9947 18.9705 47.7629 18.922C47.9463 19.4388 47.3326 19.4047 46.8207 19.1119C47.0237 19.3755 47.0528 19.5995 46.7724 19.658C46.4923 19.7165 46.2698 19.6972 45.9992 19.5214C45.98 19.7165 45.7932 19.8465 45.5453 19.7815C46.3956 20.2983 46.3472 20.4869 46.2022 20.6816C46.0575 20.8767 45.5501 20.8378 45.2796 20.6624C45.1637 21.0622 44.7015 21.0636 44.3566 20.7453C44.3535 20.9046 44.0244 21.2208 43.699 21.0288Z" fill="#EA8B42"/>
<path fill-rule="evenodd" clip-rule="evenodd" d="M39.7545 22.9894C39.7685 22.8662 39.7802 22.7231 39.883 22.6319C39.9862 22.5407 40.0507 22.463 40.1409 22.5538C40.231 22.645 40.1731 22.7296 40.0507 22.7685C39.9283 22.8074 39.8446 22.9178 39.8251 22.9894C39.8059 23.061 39.7414 23.0999 39.7545 22.9894Z" fill="black"/>
<path fill-rule="evenodd" clip-rule="evenodd" d="M40.4563 23.5874C40.3925 23.383 40.4244 23.1195 40.495 23.0414C40.566 22.9633 40.6561 22.9113 40.7398 22.9894C40.8235 23.0675 40.8557 23.178 40.7011 23.243C40.5643 23.3005 40.5529 23.4443 40.5468 23.5486C40.5403 23.6525 40.495 23.711 40.4563 23.5874Z" fill="black"/>
<path fill-rule="evenodd" clip-rule="evenodd" d="M41.3583 23.061C41.3086 23.1446 41.371 23.4835 41.5387 23.5678C41.6573 23.6277 41.7125 23.6136 41.6415 23.5028C41.5709 23.3923 41.5966 23.2884 41.6354 23.2299C41.6738 23.1714 41.6676 23.0675 41.5836 23.0156C41.4999 22.9633 41.3967 22.996 41.3583 23.061Z" fill="black"/>
<path fill-rule="evenodd" clip-rule="evenodd" d="M42.0863 22.7554C41.98 22.6749 41.8802 22.7716 41.8415 22.8397C41.764 22.9763 41.8223 23.1714 41.9447 23.2819C42.0671 23.3923 42.0475 23.243 42.0088 23.178C41.9704 23.1129 41.9639 22.9829 42.0475 22.9698C42.1312 22.9571 42.1895 22.8332 42.0863 22.7554Z" fill="black"/>
<path fill-rule="evenodd" clip-rule="evenodd" d="M42.6917 22.9763C42.5881 22.9457 42.4856 23.0545 42.4983 23.1845C42.5079 23.2816 42.5179 23.4054 42.6142 23.4705C42.679 23.5138 42.7239 23.542 42.6917 23.425C42.6595 23.308 42.7112 23.2103 42.7688 23.178C42.8268 23.1456 42.8011 23.009 42.6917 22.9763Z" fill="black"/>
<path fill-rule="evenodd" clip-rule="evenodd" d="M43.5485 22.4237C43.4734 22.4767 43.4775 22.5996 43.5485 22.645C43.6191 22.6904 43.7223 22.7554 43.7031 22.8659C43.6836 22.9763 43.7415 23.0156 43.7933 22.892C43.8447 22.7685 43.8512 22.5865 43.7933 22.5018C43.735 22.4172 43.6126 22.3783 43.5485 22.4237Z" fill="black"/>
<path fill-rule="evenodd" clip-rule="evenodd" d="M41.6806 14.7937C41.7254 14.8929 41.8538 14.9515 42.0277 14.9466L42.0278 14.9466C42.0831 14.9453 42.1165 14.9601 42.1568 15.026C42.1143 15.0572 42.0343 15.071 41.933 15.0773C41.7483 15.0893 41.587 15.231 41.418 15.4872C41.2658 15.7172 41.3191 15.8864 41.6812 16.0903C42.041 16.2929 42.1149 16.6458 42.0592 17.31C42.0184 17.7926 42.0772 18.1641 42.2259 18.2965C42.472 18.5157 42.6305 18.8945 42.7448 19.3705C42.81 19.6431 43.0073 19.9722 43.2315 20.1885C43.2842 20.2394 43.3218 20.2906 43.3519 20.3491C43.3693 20.3828 43.3819 20.4131 43.4024 20.4676C43.4731 20.6558 43.5208 20.7378 43.6658 20.8708C43.7462 20.9446 43.7619 21.0059 43.7122 21.0458C43.6795 21.0721 43.6204 21.0837 43.5547 21.0837C43.5383 21.0838 43.5383 21.0838 43.519 21.0842C43.3631 21.0871 43.2626 21.0742 43.1471 21.0167C43.13 21.0082 43.1133 20.9988 43.097 20.9886C43.0978 20.9969 43.0986 21.0057 43.0994 21.0147C43.1023 21.0471 43.1055 21.0813 43.1069 21.0971C43.1111 21.1454 43.1145 21.1882 43.1172 21.229C43.124 21.3313 43.1261 21.413 43.1221 21.4731C43.1206 21.4958 43.1181 21.5156 43.1132 21.5468C43.1042 21.6045 43.1025 21.6202 43.1042 21.6453C43.1085 21.7068 43.1448 21.762 43.2396 21.8348C43.4879 22.0258 43.6555 22.2232 43.6825 22.3946C43.7124 22.5872 43.5916 22.6796 43.4132 22.6232C43.3039 22.5887 43.2476 22.5172 43.1829 22.3622C43.1793 22.3536 43.1699 22.3306 43.1598 22.3057C43.1479 22.2762 43.135 22.2443 43.1293 22.2308C43.0977 22.1552 43.0691 22.1309 43.0438 22.1382C43.0221 22.1445 42.9979 22.1721 42.9744 22.2134C42.9346 22.2843 42.9113 22.46 42.9286 22.6098L42.9288 22.6114C42.9582 22.8647 42.9531 22.9717 42.8767 23.0828C42.7798 23.2246 42.543 23.2118 42.5096 23.0558C42.4944 22.9835 42.5029 22.888 42.5301 22.7613C42.5376 22.7264 42.5462 22.6902 42.5575 22.6458C42.5585 22.6417 42.5615 22.63 42.5653 22.6154C42.5729 22.5857 42.5836 22.5439 42.5873 22.5293C42.6022 22.4692 42.5981 22.4355 42.5944 22.4348C42.5884 22.4337 42.5662 22.462 42.551 22.5116C42.5077 22.6533 42.3905 22.7903 42.2221 22.8847C42.0445 22.9842 41.9411 22.8829 41.9294 22.6526C41.9204 22.469 42.1237 22.2365 42.5367 21.9036C42.6168 21.8388 42.6708 21.773 42.7027 21.7041C42.7606 21.5793 42.7522 21.4834 42.6886 21.2386C42.6755 21.1882 42.6673 21.1554 42.6605 21.1244C42.4164 21.2494 41.9057 21.2387 41.7432 21.1083C41.7322 21.1596 41.7083 21.2223 41.6603 21.3369L41.6601 21.3375C41.6299 21.4094 41.617 21.4415 41.6038 21.4788C41.5751 21.5603 41.5811 21.6033 41.6098 21.615C41.6409 21.6277 41.7019 21.612 41.776 21.5699C41.9357 21.4793 42.0958 21.598 42.1076 21.7824C42.117 21.9351 41.9388 22.012 41.7996 21.9698C41.7273 21.9482 41.6944 21.9768 41.6519 22.0841C41.6177 22.1707 41.6395 22.3128 41.7299 22.6059C41.8306 22.9331 41.7161 23.2286 41.4534 23.1697C41.2927 23.1337 41.2506 23.0062 41.2731 22.7832C41.2759 22.7555 41.2792 22.7291 41.2848 22.6879C41.2971 22.5977 41.2996 22.5772 41.3013 22.5431C41.3029 22.5117 41.303 22.4869 41.3017 22.469C41.2935 22.4882 41.2839 22.5171 41.2759 22.5493C41.2263 22.7497 41.0502 23.0185 40.8795 23.1184C40.6961 23.2256 40.5453 23.1423 40.5573 22.9717C40.5619 22.9089 40.6067 22.8288 40.6989 22.6993L40.7245 22.6636C40.8413 22.502 40.8606 22.4736 40.8775 22.4291C40.92 22.3185 40.9138 22.3073 40.8362 22.3308C40.749 22.3571 40.6285 22.4373 40.516 22.5404C40.325 22.7158 40.1226 22.7853 40.0203 22.6446C39.9394 22.5332 39.9728 22.4234 40.1082 22.3189C40.2272 22.2271 40.4278 22.1353 40.7168 22.0362C41.1747 21.8796 41.2098 21.7288 41.1157 20.9661C40.9993 20.9953 40.8805 21.0059 40.7701 20.9711C40.8175 20.6728 40.7803 20.4331 40.6388 19.8854C40.4941 19.3251 40.456 19.0727 40.5136 18.7739C40.4985 18.7538 40.4859 18.7341 40.4728 18.7113C40.4707 18.7076 40.466 18.699 40.4609 18.6899C40.4545 18.6782 40.4476 18.6658 40.445 18.6614C40.4306 18.6367 40.4191 18.6232 40.4033 18.6138C40.266 18.5303 39.9689 18.2337 39.9585 18.1597C39.948 18.0851 39.8848 17.9767 39.802 17.9099C39.7048 17.8313 39.6413 17.7033 39.6204 17.5552C39.6039 17.4396 39.5794 17.4025 39.4427 17.2649C39.2997 17.1206 39.2525 16.861 39.3407 16.5344C39.2811 16.3386 39.2867 16.1501 39.3422 15.5618L39.3492 15.4871C39.3429 15.4893 39.3361 15.4909 39.327 15.4924C39.3141 15.4943 39.3141 15.4943 39.2963 15.4966L39.2963 15.4966L39.2756 15.4636C39.2884 15.4437 39.2996 15.4243 39.3106 15.4031C39.3152 15.394 39.3175 15.3894 39.3198 15.3848C39.3221 15.3801 39.3244 15.3754 39.3289 15.366C39.3251 15.374 39.3634 15.2922 39.3766 15.2657C39.3987 15.221 39.4227 15.1767 39.4525 15.1264C39.6795 14.7437 40.1823 14.3639 40.7388 14.1552C41.2662 13.9571 41.4781 13.9428 41.5836 14.2058C41.6302 14.2058 41.6537 14.209 41.7908 14.2314C41.8692 14.2441 41.9194 14.2508 41.9718 14.2543L42.0049 14.2565C42.1284 14.2649 42.1801 14.2759 42.2428 14.3169C42.2703 14.3349 42.297 14.3583 42.3242 14.3883C42.4383 14.5138 42.4845 14.7176 42.4353 14.8957L42.4004 14.906C42.1477 14.6808 41.9547 14.6552 41.6806 14.7937ZM42.1311 15.0257C42.0974 14.9997 42.0724 14.9886 42.0288 14.9896L42.0289 14.9896C41.8394 14.9949 41.6946 14.9288 41.6503 14.784C41.9394 14.6143 42.1482 14.6349 42.402 14.8505C42.3998 14.8618 42.3971 14.8731 42.394 14.8842L42.4289 14.8739C42.4199 14.8659 42.4109 14.8581 42.402 14.8505C42.4332 14.695 42.3895 14.5239 42.2926 14.4172C42.2677 14.3898 42.2437 14.3689 42.2194 14.353C42.1647 14.3172 42.1186 14.3073 42.002 14.2995L41.9689 14.2972C41.9149 14.2936 41.8636 14.2868 41.7839 14.2738C41.7591 14.2698 41.738 14.2663 41.7198 14.2634C41.6401 14.2505 41.6151 14.2464 41.5641 14.2362C41.4536 13.9926 41.2592 14.0056 40.7538 14.1954C40.2059 14.401 39.7109 14.7749 39.4893 15.1484C39.4601 15.1977 39.4366 15.2411 39.415 15.2848C39.4021 15.3108 39.3639 15.3922 39.3676 15.3845C39.363 15.3942 39.3606 15.399 39.3583 15.4038C39.3559 15.4086 39.3535 15.4134 39.3486 15.4229C39.3445 15.4308 39.3404 15.4385 39.3361 15.4461C39.3322 15.4476 39.3276 15.4487 39.3201 15.4499C39.3155 15.4506 39.3127 15.4511 39.31 15.4514C39.3058 15.452 39.3016 15.4526 39.291 15.4539L39.3117 15.4869C39.3204 15.4733 39.3284 15.4599 39.3361 15.4461C39.3369 15.4458 39.3377 15.4455 39.3385 15.4451C39.3429 15.4431 39.3467 15.4408 39.3631 15.4307L39.3956 15.451L39.3849 15.5659C39.3301 16.1467 39.3245 16.334 39.3819 16.5336C39.2975 16.8582 39.3419 17.1021 39.4731 17.2345C39.6157 17.3781 39.6447 17.422 39.6629 17.5492C39.6823 17.6871 39.7409 17.8053 39.8289 17.8764C39.92 17.95 39.9889 18.0681 40.0009 18.1537C40.0089 18.2106 40.2986 18.4998 40.4254 18.577C40.4484 18.5907 40.4642 18.6092 40.482 18.6396C40.4848 18.6445 40.4922 18.6579 40.4988 18.6699C40.5037 18.6786 40.5081 18.6866 40.51 18.6899C40.5132 18.6955 40.5164 18.701 40.5197 18.7065C40.5288 18.7221 40.5386 18.7387 40.5518 18.7645C40.4996 19.0718 40.5371 19.3202 40.6803 19.8746C40.8233 20.4281 40.8611 20.6717 40.7936 20.9531C40.873 20.9618 40.9758 20.9539 41.0994 20.9444C41.11 20.9436 41.1207 20.9427 41.1316 20.9419C41.255 21.7407 41.2154 21.9111 40.7306 22.0769C40.4458 22.1746 40.2487 22.2647 40.1343 22.353C40.0155 22.4447 39.9897 22.5295 40.055 22.6192C40.1351 22.7295 40.3131 22.6685 40.4871 22.5087C40.604 22.4016 40.7293 22.3182 40.8238 22.2896C40.9423 22.2537 40.9711 22.3052 40.9176 22.4445C40.8985 22.4944 40.8801 22.5216 40.7591 22.6889L40.7337 22.7243C40.6467 22.8465 40.6038 22.9233 40.6001 22.9747C40.5906 23.1095 40.7032 23.1717 40.8579 23.0813C41.0177 22.9878 41.1873 22.7288 41.2343 22.539C41.2506 22.473 41.271 22.4231 41.2915 22.4093C41.3167 22.3923 41.3354 22.4111 41.3414 22.4412C41.3456 22.4626 41.3465 22.497 41.3441 22.5452C41.3423 22.5811 41.3398 22.602 41.3273 22.6937C41.3217 22.7345 41.3185 22.7605 41.3157 22.7875C41.2952 22.9914 41.3304 23.0981 41.4628 23.1277C41.682 23.1769 41.7816 22.9197 41.6889 22.6186C41.5955 22.3156 41.5728 22.1677 41.612 22.0683C41.6617 21.9429 41.7124 21.8988 41.8119 21.9286C41.9267 21.9634 42.072 21.9007 42.0648 21.7851C42.0549 21.6295 41.9261 21.5341 41.7971 21.6074C41.7125 21.6553 41.6404 21.6739 41.5937 21.6548C41.5375 21.6319 41.528 21.5648 41.5634 21.4644C41.577 21.4261 41.5901 21.3935 41.6205 21.3208L41.6208 21.3202C41.6811 21.1763 41.7022 21.1165 41.7073 21.0603L41.7463 21.05C41.8453 21.1952 42.432 21.2137 42.6645 21.073L42.6966 21.0872C42.7045 21.1272 42.7131 21.1626 42.73 21.2278C42.7962 21.4822 42.8052 21.585 42.7416 21.7222C42.7067 21.7974 42.6486 21.8684 42.5635 21.9371C42.163 22.26 41.9642 22.4874 41.9722 22.6504C41.9825 22.8536 42.0579 22.9274 42.2013 22.8471C42.3604 22.758 42.4701 22.6296 42.5101 22.499C42.5311 22.4302 42.566 22.3857 42.6023 22.3926C42.6425 22.4001 42.6494 22.457 42.6288 22.5397C42.6252 22.5545 42.6144 22.5966 42.6067 22.6264C42.603 22.6408 42.6 22.6524 42.599 22.6564C42.5879 22.7004 42.5794 22.7361 42.572 22.7703C42.5459 22.8915 42.5379 22.9822 42.5515 23.0468C42.5761 23.1618 42.7638 23.172 42.8414 23.0584C42.9096 22.9592 42.9143 22.859 42.8863 22.6164L42.8861 22.6148C42.8678 22.4567 42.8922 22.2721 42.9371 22.1922C42.9659 22.1415 42.9959 22.1073 43.0319 22.0969C43.0838 22.0819 43.1299 22.1209 43.1688 22.2141C43.1746 22.2279 43.1878 22.2604 43.1998 22.29C43.2097 22.3146 43.2189 22.3373 43.2224 22.3456C43.2827 22.4899 43.3319 22.5524 43.426 22.5821C43.5754 22.6293 43.665 22.5609 43.6401 22.4013C43.6154 22.2442 43.4537 22.0537 43.2135 21.8689C43.1098 21.7893 43.0667 21.7237 43.0614 21.6483C43.0594 21.6187 43.0613 21.6014 43.0709 21.5401C43.0756 21.5101 43.078 21.4914 43.0794 21.4702C43.0831 21.4125 43.0811 21.3325 43.0744 21.2319C43.0717 21.1914 43.0684 21.1489 43.0642 21.1008C43.0628 21.0852 43.0597 21.0512 43.0567 21.0189C43.0538 20.9869 43.051 20.9564 43.0502 20.947L43.0843 20.9279C43.1105 20.9474 43.1378 20.964 43.1661 20.9782C43.2739 21.0319 43.3687 21.0439 43.5182 21.0412C43.5284 21.041 43.5333 21.0409 43.5381 21.0408C43.5423 21.0408 43.5466 21.0407 43.5547 21.0407C43.6112 21.0407 43.6625 21.0307 43.6854 21.0122C43.7089 20.9934 43.7007 20.961 43.6369 20.9026C43.486 20.7641 43.4351 20.6767 43.3623 20.4828C43.3423 20.4298 43.3302 20.4006 43.3139 20.3689C43.2859 20.3145 43.251 20.267 43.2018 20.2195C42.9719 19.9977 42.7703 19.6615 42.7031 19.3805C42.5908 18.9127 42.4349 18.5401 42.1975 18.3287C42.0351 18.1841 41.9746 17.8019 42.0165 17.3064C42.0708 16.658 41.9999 16.3191 41.6602 16.1278C41.2775 15.9123 41.2155 15.7155 41.3823 15.4634C41.5581 15.197 41.7282 15.0475 41.9303 15.0344C41.9593 15.0326 41.9868 15.03 42.0119 15.0277C42.0661 15.0227 42.1089 15.0187 42.1311 15.0257Z" fill="black"/>
<path fill-rule="evenodd" clip-rule="evenodd" d="M38.8039 15.9197C39.1343 15.9313 39.2545 15.9461 39.338 16.0036L39.3473 16.0224C39.3358 16.243 39.3452 16.4018 39.3819 16.5336C39.2975 16.8582 39.3419 17.1021 39.4731 17.2345C39.6157 17.3781 39.6447 17.422 39.6629 17.5492C39.6823 17.6872 39.7409 17.8053 39.8289 17.8764C39.92 17.95 39.9889 18.0681 40.0009 18.1537C40.0089 18.2106 40.2986 18.4998 40.4254 18.577C40.4484 18.5907 40.4642 18.6093 40.482 18.6396C40.4848 18.6445 40.4922 18.6579 40.4989 18.6699C40.5037 18.6786 40.5081 18.6866 40.51 18.6899C40.5132 18.6955 40.5164 18.701 40.5197 18.7065C40.5288 18.7221 40.5386 18.7387 40.5518 18.7646C40.5066 19.0298 40.5353 19.2947 40.6226 19.7006C40.2993 19.9713 39.95 20.0751 39.7032 19.997C39.4795 19.9263 39.3915 19.7216 39.4844 19.4665C39.2213 19.6524 38.8718 19.7608 38.577 19.7592C38.2735 19.7575 38.1021 19.6362 38.1702 19.4372C37.4368 19.6834 37.0287 19.544 37.1292 19.2041C36.5222 19.4305 36.0192 19.2735 36.0987 19.0039C35.5776 19.1376 35.124 19.0904 35.0336 18.9447C34.9773 18.8534 35.0649 18.6691 35.1979 18.5295C34.9675 18.5971 34.7328 18.6045 34.4688 18.5647C34.3445 18.5458 34.2829 18.5166 34.2664 18.4668C34.2538 18.4288 34.2577 18.4173 34.3049 18.3137L34.3109 18.3004C34.3107 18.3008 34.3418 18.229 34.3525 18.2056C34.3712 18.1645 34.3896 18.128 34.4104 18.0916C34.4578 18.0088 34.5149 17.9325 34.5872 17.8601C33.9844 17.9729 33.4701 17.9885 33.1031 17.8647C33.0986 17.8632 33.0861 17.8592 33.0739 17.8553C33.0631 17.8518 33.0524 17.8484 33.0481 17.847C32.9968 17.83 32.9653 17.8151 32.9453 17.7942C32.9151 17.7626 32.9196 17.7232 32.9593 17.6832C33.0765 17.5651 33.2838 17.4133 33.5042 17.3003C32.4581 17.4381 31.4569 17.378 31.1419 17.0203L31.1623 16.985C31.4558 17.0456 31.8334 16.9706 32.2412 16.8125C30.9055 16.6341 29.4249 15.7642 29.4069 15.0078L29.4465 14.996C29.7175 15.4362 30.0791 15.6456 30.824 15.8755C30.1791 15.4585 29.8069 14.9403 29.7745 14.5114L29.8107 14.4943C30.3375 15.0042 30.965 15.4023 31.5412 15.5367C31.0639 15.2262 30.499 14.5234 30.3357 14.0192L30.3704 13.9965C30.7344 14.3241 31.5789 14.7867 32.1644 14.9673C31.6314 14.5195 31.1041 13.7961 31.1366 13.4161L31.1732 13.4028C31.3768 13.6085 31.8442 13.9388 32.5697 14.3646C33.0192 14.6283 33.3617 14.7494 33.8129 14.8327C33.8767 14.8445 33.9385 14.855 34.0357 14.871C34.2754 14.9103 34.3639 14.9254 34.4774 14.9488C34.3723 14.7967 34.2686 14.5982 34.2579 14.5329L34.2821 14.5081C34.5075 14.5406 34.723 14.6412 35.2661 14.9791C35.5278 15.142 35.8477 15.2377 36.624 15.4183L36.6598 15.4267C37.2863 15.5725 37.5647 15.6492 37.8338 15.7677C37.9742 15.8295 38.1382 15.8682 38.3338 15.8907C38.4661 15.906 38.5617 15.9111 38.8039 15.9197ZM39.3039 16.0327C39.3041 16.0285 39.3043 16.0244 39.3045 16.0202L39.3138 16.0391C39.3106 16.0369 39.3073 16.0347 39.3039 16.0327ZM31.2216 17.0387C31.5335 17.0809 31.921 16.9909 32.3352 16.8213L32.3295 16.78C31.0433 16.6357 29.5847 15.8168 29.4584 15.0933C29.7506 15.5231 30.1527 15.7248 30.9686 15.9639L30.9854 15.9247C30.2969 15.5194 29.8872 14.9986 29.8237 14.5661C30.3852 15.0979 31.0537 15.5021 31.6571 15.6038L31.6707 15.5636C31.2067 15.3159 30.6078 14.6087 30.4035 14.0817C30.8234 14.4287 31.6919 14.8893 32.2541 15.0377L32.2728 15C31.7463 14.5866 31.1935 13.8615 31.1783 13.4678C31.4008 13.6779 31.8587 13.9971 32.5481 14.4017C33.0021 14.6681 33.3493 14.7908 33.8052 14.875C33.8693 14.8869 33.9313 14.8974 34.0288 14.9134C34.3042 14.9586 34.3792 14.9717 34.5225 15.0022L34.5441 14.9683C34.4462 14.8365 34.3401 14.6439 34.3087 14.5559C34.5159 14.5925 34.732 14.6975 35.2435 15.0156C35.5109 15.1821 35.8326 15.2784 36.6143 15.4602L36.6501 15.4686C37.2738 15.6137 37.5509 15.6901 37.8166 15.807C37.9614 15.8708 38.1294 15.9105 38.3289 15.9334C38.4627 15.9489 38.5591 15.9541 38.8024 15.9627C39.1074 15.9734 39.2296 15.9873 39.3039 16.0327C39.2932 16.2514 39.3031 16.4108 39.3407 16.5344C39.2525 16.861 39.2997 17.1206 39.4427 17.2649C39.5794 17.4025 39.6039 17.4396 39.6204 17.5552C39.6413 17.7033 39.7048 17.8313 39.802 17.9099C39.8848 17.9767 39.948 18.0851 39.9585 18.1597C39.9689 18.2337 40.266 18.5303 40.4033 18.6138C40.4191 18.6232 40.4306 18.6367 40.445 18.6614C40.4476 18.6658 40.4545 18.6783 40.4609 18.6899C40.466 18.699 40.4707 18.7076 40.4728 18.7113C40.4859 18.7341 40.4985 18.7538 40.5136 18.7739C40.4632 19.0297 40.4924 19.2998 40.588 19.6893C40.2822 19.9297 39.9474 20.0291 39.7161 19.956C39.4975 19.8869 39.4253 19.6775 39.5546 19.4107L39.522 19.3845C39.2614 19.5935 38.8872 19.7179 38.5772 19.7162C38.2777 19.7145 38.1344 19.5991 38.2277 19.4109L38.2014 19.381C37.4353 19.6499 37.051 19.5054 37.1847 19.1754L37.1569 19.1473C36.5288 19.3987 36.0305 19.2297 36.1534 18.9818L36.1286 18.9515C35.6068 19.094 35.1494 19.0499 35.07 18.922C35.0199 18.8407 35.1417 18.6235 35.2975 18.4951L35.2766 18.4582C35.0233 18.5511 34.7683 18.5664 34.4752 18.5222C34.3658 18.5055 34.3167 18.4822 34.307 18.4532C34.2998 18.4314 34.3039 18.4193 34.3439 18.3316L34.3501 18.3178C34.4594 18.0708 34.5 17.9999 34.6444 17.8645C34.6506 17.8587 34.6537 17.8558 34.6569 17.8529C34.6601 17.85 34.6634 17.8471 34.67 17.8412L34.6517 17.8039C34.0243 17.9279 33.4895 17.9496 33.1167 17.8239C33.1118 17.8223 33.0988 17.8181 33.0863 17.8141C33.0757 17.8107 33.0656 17.8075 33.0615 17.8061C33.0169 17.7913 32.9897 17.7785 32.9762 17.7644C32.9637 17.7513 32.9652 17.7382 32.9896 17.7136C33.1258 17.5764 33.3894 17.3907 33.6497 17.2791L33.6382 17.2381C32.6077 17.3907 31.5862 17.3534 31.2216 17.0387ZM31.2216 17.0387C31.2042 17.0237 31.1884 17.0081 31.1741 16.9919L31.1537 17.0272C31.1759 17.0318 31.1985 17.0356 31.2216 17.0387ZM34.3087 14.5559C34.3043 14.5437 34.3014 14.5336 34.3002 14.5259L34.276 14.5507C34.2869 14.5522 34.2978 14.554 34.3087 14.5559ZM31.1783 13.4678C31.1777 13.4512 31.178 13.4352 31.1793 13.4198L31.1428 13.4331C31.1539 13.4443 31.1657 13.4559 31.1783 13.4678ZM30.4035 14.0817C30.3935 14.056 30.3845 14.0307 30.3764 14.0059L30.3418 14.0286C30.361 14.0459 30.3816 14.0636 30.4035 14.0817ZM29.8237 14.5661C29.8208 14.5466 29.8186 14.5273 29.8172 14.5081L29.7809 14.5252C29.7951 14.539 29.8094 14.5526 29.8237 14.5661ZM29.4584 15.0933C29.4533 15.0643 29.4504 15.0355 29.4497 15.0068L29.4101 15.0186C29.4259 15.0443 29.4419 15.0692 29.4584 15.0933Z" fill="black"/>
<path fill-rule="evenodd" clip-rule="evenodd" d="M43.9626 16.9089L43.9639 16.9094C43.8004 17.1132 43.3441 17.1956 43.0409 17.0505L44.0247 16.7535C44.0236 16.7899 44.0142 16.8244 43.9981 16.8565L43.9633 16.8684L43.9626 16.9089ZM44.0231 16.8479L43.9981 16.8565C43.9953 16.862 43.9923 16.8675 43.9891 16.8729C43.9854 16.8715 43.9816 16.8701 43.9778 16.8687L43.9774 16.8912C43.9732 16.8973 43.9686 16.9034 43.9639 16.9094L43.9874 16.9181C43.8233 17.1633 43.3145 17.249 42.9926 17.0741L42.9987 17.0633L43.0409 17.0505C43.0312 17.0458 43.0216 17.0409 43.0122 17.0358C43.0155 17.0282 43.0187 17.0205 43.0216 17.0126L44.04 16.7318C44.042 16.773 44.036 16.8118 44.0231 16.8479ZM44.0093 16.8803C44.0026 16.8779 43.9959 16.8754 43.9891 16.8729C43.9855 16.8791 43.9816 16.8852 43.9774 16.8912L43.9771 16.9091L43.9975 16.9021C43.9943 16.9075 43.9909 16.9129 43.9874 16.9181C44.449 17.0853 44.8806 16.9849 44.9575 16.5613L44.9295 16.5371L44.0231 16.8479C44.0191 16.859 44.0145 16.8698 44.0093 16.8803ZM44.0352 16.8892L43.9975 16.9021C44.0017 16.895 44.0057 16.8877 44.0093 16.8803C44.018 16.8834 44.0266 16.8863 44.0352 16.8892ZM44.9075 16.59C44.8211 16.9398 44.4482 17.0275 44.0352 16.8892L44.9075 16.59ZM44.9075 16.59C44.9104 16.5782 44.913 16.566 44.9153 16.5536L44.9433 16.5778L44.9075 16.59ZM42.0422 17.1399L42.0276 17.132L42.0337 17.092L43.0194 16.8973L43.0448 16.9216C43.0398 16.9542 43.032 16.9845 43.0216 17.0126L42.9787 17.0244L42.974 17.0635C42.9801 17.0671 42.9863 17.0707 42.9926 17.0741C42.8406 17.3342 42.4186 17.3392 42.0444 17.141L42.1023 17.1292C42.4954 17.3274 42.9228 17.2838 42.9967 16.9466L43.0277 16.9403L43.0024 16.9151C43.0008 16.9259 42.9989 16.9364 42.9967 16.9466L42.1023 17.1292C42.0842 17.1201 42.0661 17.1104 42.0481 17.1002L42.0422 17.1399ZM42.0422 17.1399L42.0444 17.141L42.042 17.1415L42.0422 17.1399ZM43.0122 17.0358C43.008 17.0452 43.0035 17.0544 42.9987 17.0633L42.991 17.0656L42.9957 17.0264L43.0036 17.031L43.0122 17.0358Z" fill="black"/>
<path fill-rule="evenodd" clip-rule="evenodd" d="M39.3812 15.4698C39.4459 15.4355 39.478 15.4258 39.5505 15.412C39.5685 15.4085 39.5796 15.4061 39.5914 15.4026C39.6372 15.3893 39.6767 15.3637 39.7293 15.31C40.0691 14.9625 40.6146 14.575 40.936 14.4362L40.9386 14.4421C40.9504 14.4366 40.9586 14.4394 40.9728 14.4539C40.9789 14.4601 40.9997 14.4855 41.0084 14.4961L41.0122 14.5007C41.0759 14.5749 41.1458 14.5992 41.2594 14.5567C41.3308 14.5298 41.3667 14.4778 41.3808 14.4029C41.3848 14.3816 41.3862 14.3679 41.3891 14.3285C41.3928 14.2794 41.3969 14.2669 41.4052 14.2662L41.4051 14.2652L41.4069 14.2648C41.4658 14.2523 41.5234 14.2471 41.5882 14.2488L41.5893 14.2058C41.5223 14.2041 41.4623 14.2094 41.4012 14.222C41.3944 14.2227 41.3885 14.2239 41.3834 14.2259C41.3301 14.2381 41.2744 14.256 41.2027 14.2832C41.1553 14.3012 40.9507 14.3836 40.9528 14.3827C40.6308 14.5105 40.0543 14.9163 39.6987 15.2799C39.651 15.3286 39.6176 15.3502 39.5795 15.3613C39.5693 15.3643 39.5593 15.3665 39.5425 15.3697C39.4661 15.3843 39.4303 15.3951 39.3611 15.4318L39.3812 15.4698ZM41.3521 14.2754C41.3574 14.2477 41.3661 14.2326 41.3834 14.2259L41.3981 14.2227L41.4012 14.222L41.4014 14.222L41.4051 14.2652C41.3917 14.2679 41.382 14.2697 41.3738 14.2712L41.3576 14.2742L41.3521 14.2754ZM40.9929 14.413L41.061 14.386L41.061 14.386L41.061 14.386L41.061 14.386C41.2806 14.2987 41.3209 14.2827 41.3521 14.2754C41.3496 14.2889 41.3479 14.3052 41.3464 14.3251C41.3436 14.3627 41.3423 14.3754 41.3387 14.3945C41.3273 14.4552 41.3005 14.494 41.2447 14.515C41.1491 14.5508 41.0971 14.5328 41.0443 14.4712L41.0433 14.47C41.0378 14.4633 41.0112 14.4307 41.0029 14.4223C40.9996 14.4189 40.9963 14.4158 40.9929 14.413ZM40.9929 14.413C40.9706 14.3944 40.9475 14.3894 40.921 14.4017L40.936 14.4362C40.9471 14.4314 40.958 14.4269 40.9685 14.4227L40.9929 14.413ZM48.6455 16.489L48.6254 16.4964L48.6106 16.456L48.6451 16.4433C48.6462 16.458 48.6463 16.4732 48.6455 16.489ZM48.482 16.8707C48.5472 16.7912 48.6074 16.6774 48.6325 16.5739C48.6396 16.5442 48.644 16.5159 48.6455 16.489C49.5806 16.1426 50.1024 15.9198 50.7297 15.5569C51.0539 15.3694 51.3552 15.1668 51.633 14.9461L51.6064 14.9123C51.3303 15.1318 51.0307 15.3331 50.7083 15.5197C50.0869 15.8791 49.569 16.1007 48.6451 16.4433C48.6384 16.356 48.5963 16.2879 48.5156 16.2483C49.3337 15.9818 50.0985 15.6231 50.3915 15.3347L50.3615 15.304C50.0679 15.593 49.2816 15.9581 48.4494 16.2245C48.4738 16.2306 48.4959 16.2386 48.5156 16.2483L48.4505 16.2693L48.439 16.2662L48.4494 16.2245C48.2051 16.3027 47.9568 16.3724 47.7159 16.4291C47.6597 16.4021 47.5917 16.3793 47.5116 16.361C46.9996 16.244 46.2289 16.3678 45.7577 16.64C45.6943 16.624 45.6314 16.6093 45.5698 16.5961C45.7128 16.4683 45.7879 16.3043 45.7296 16.1503L45.6895 16.1656C45.8078 16.4778 45.2839 16.8553 44.8345 16.7703L44.8265 16.8125C45.0745 16.8595 45.3442 16.7736 45.5276 16.6312C45.7545 16.678 46.0027 16.7472 46.2249 16.8251L46.2253 16.8279L46.2304 16.827C46.4914 16.9189 46.7158 17.0228 46.8261 17.1168C46.9536 17.225 47.0208 17.3213 47.0167 17.3949C47.0123 17.4755 46.9192 17.5377 46.7203 17.573C46.4729 17.6171 46.314 17.6282 46.0935 17.6042C46.0507 17.5958 46.0078 17.5876 45.9648 17.5795L45.9634 17.5872C45.8815 17.5749 45.7898 17.5588 45.6831 17.5387C45.3792 17.3239 44.913 17.1126 44.4315 16.9465L44.4176 16.9872C44.8919 17.1508 45.3526 17.3594 45.652 17.5694L45.6507 17.5764L45.666 17.5793C45.7515 17.6403 45.8232 17.7013 45.8775 17.7614C46.0091 17.9071 45.9925 18.0039 45.8481 18.0597C45.7056 18.1147 45.4525 18.1209 45.1621 18.077C44.6164 17.9941 43.7103 17.529 43.2501 17.1167L43.2216 17.1488C43.4996 17.3979 43.9369 17.6652 44.3621 17.8583L44.361 17.8594C44.4659 17.9654 44.5634 18.1199 44.607 18.2605C44.6479 18.3923 44.5951 18.4566 44.4746 18.447C44.3127 18.4346 44.1933 18.4065 44.0374 18.3321L44.0311 18.3453C43.9565 18.2596 43.856 18.178 43.7292 18.1086C43.383 17.9188 42.932 17.52 42.7222 17.2275L42.6874 17.2526C42.9009 17.5504 43.3569 17.9535 43.7087 18.1463C44.1067 18.3643 44.2285 18.6989 44.1072 18.8757C44.0001 19.0322 43.6423 19.0527 43.2855 18.8402C42.8592 18.5859 42.3666 17.7777 42.3006 17.2083L42.258 17.2133C42.3256 17.7956 42.8255 18.6158 43.2636 18.8771C43.3349 18.9196 43.4066 18.9532 43.4766 18.9785C43.509 19.0682 43.5223 19.18 43.5141 19.3548C43.5038 19.574 43.3431 19.722 43.1471 19.6478C42.9535 19.5747 42.8043 19.412 42.7044 19.2097L42.666 19.2288C42.7703 19.4399 42.9267 19.6105 43.132 19.6881C43.1858 19.7085 43.2374 19.7143 43.2849 19.7082C43.4008 19.9547 43.4644 20.1356 43.4563 20.2014C43.4441 20.3006 43.4183 20.3308 43.3278 20.3097L43.3181 20.3516C43.4395 20.3799 43.4839 20.3278 43.4988 20.2067C43.5082 20.1301 43.4453 19.9496 43.3279 19.699C43.352 19.6918 43.3746 19.6814 43.3957 19.6681C43.5588 19.8843 43.6783 20.0383 43.8256 20.2165C43.8697 20.2699 43.9127 20.3207 43.9543 20.3688C44.1089 20.5472 44.2405 20.6817 44.3435 20.7622L44.3698 20.7283C44.2695 20.6499 44.1395 20.517 43.9866 20.3406C43.9452 20.2928 43.9025 20.2422 43.8585 20.189C43.7119 20.0116 43.5928 19.8581 43.4302 19.6425C43.5038 19.5793 43.5513 19.4769 43.5569 19.3569C43.5619 19.2512 43.5591 19.1671 43.549 19.0964C43.974 19.5886 44.9719 20.5125 45.2691 20.6811L45.2902 20.6436C44.9862 20.4712 43.9211 19.4807 43.5328 19.0108L43.5319 19.0116L43.5273 18.9955C43.7763 19.0722 43.9994 19.0437 44.1096 18.9386C44.3585 19.2648 45.1346 19.7228 45.5348 19.7995L45.5428 19.7573C45.1497 19.6819 44.3741 19.2229 44.1386 18.9057L44.1425 18.9001C44.2152 18.7941 44.2123 18.6425 44.1312 18.4892C44.4141 18.7266 44.8898 19.0765 45.3301 19.3832L45.3546 19.3478C44.8839 19.02 44.3719 18.642 44.1014 18.4074C44.2254 18.4577 44.334 18.4794 44.4712 18.4899C44.5348 18.495 44.5852 18.4813 44.6183 18.4516C44.9177 18.7639 45.6874 19.3927 45.9932 19.5441L46.0122 19.5055C45.7102 19.356 44.9382 18.7249 44.6451 18.4175C44.6675 18.3761 44.6699 18.3185 44.648 18.2477C44.6111 18.1289 44.5382 18.0017 44.454 17.8989C44.7094 18.0088 44.9559 18.0891 45.1557 18.1195C45.2158 18.1286 45.2744 18.1356 45.3309 18.1405L45.3282 18.1436C45.7046 18.478 46.4022 18.9357 46.8116 19.1313L46.83 19.0925C46.4378 18.9051 45.7763 18.4734 45.3952 18.1452C45.5091 18.152 45.6127 18.1496 45.7009 18.1382C45.8175 18.2327 46.0339 18.3652 46.3444 18.5376C46.3845 18.5598 46.4262 18.5828 46.4697 18.6065C46.5758 18.6644 46.8307 18.8007 46.9889 18.8852L46.9891 18.8854L47.1198 18.9553L47.1402 18.9175L47.009 18.8473L47.009 18.8473L47.0086 18.8471C46.8504 18.7625 46.596 18.6265 46.4902 18.5688C46.4468 18.545 46.4052 18.5221 46.3651 18.4999C46.0828 18.3432 45.8787 18.2196 45.7588 18.1289C45.7978 18.1213 45.8329 18.1116 45.8635 18.0998C45.8953 18.0875 45.922 18.0731 45.9436 18.0566C46.7367 18.558 47.2417 18.8227 47.7581 18.9429L47.7678 18.901C47.2597 18.7827 46.7594 18.5211 45.9757 18.026C46.0142 17.9795 46.0203 17.9212 45.9916 17.8542C46.0817 17.8903 46.1877 17.9347 46.3225 17.9923C46.383 18.0181 46.554 18.0918 46.6658 18.14L46.7643 18.1825L46.8506 18.2195C47.3452 18.4309 47.6557 18.5514 47.8687 18.6063L47.8793 18.5646C47.6692 18.5105 47.3599 18.3904 46.8674 18.1799L46.7811 18.1429L46.6827 18.1005C46.5709 18.0523 46.3998 17.9786 46.3393 17.9527C46.1794 17.8844 46.0597 17.8346 45.9591 17.795L45.959 17.7953C45.9452 17.775 45.9287 17.754 45.9092 17.7325C45.8686 17.6875 45.8188 17.6422 45.7612 17.5969C45.8881 17.6198 45.993 17.6364 46.087 17.6467C46.9055 17.8066 47.6957 18.0166 47.8889 18.1827L47.9168 18.15C47.7369 17.9954 47.0891 17.8115 46.3627 17.6587C46.4741 17.655 46.587 17.6404 46.7278 17.6153C46.8457 17.5944 46.9319 17.5631 46.9869 17.5217L46.9872 17.5247C47.0199 17.5213 47.0521 17.5176 47.0837 17.5135C47.4544 17.6738 48.0492 17.7177 48.3363 17.5796C48.4268 17.7602 48.2867 18.0322 48.1253 18.0839L48.1384 18.1249C48.2273 18.0964 48.3093 18.0123 48.3589 17.9097C48.7806 18.0084 49.7282 18.0274 50.1876 17.9262L50.1787 17.8827C49.7285 17.9819 48.7965 17.9639 48.3767 17.8683C48.3951 17.8201 48.4061 17.7692 48.4076 17.7189C49.0375 17.776 49.7959 17.7285 50.1825 17.5434L50.1646 17.503C49.7856 17.6844 49.0302 17.7314 48.4063 17.6742C48.4026 17.6342 48.3923 17.5953 48.3741 17.5593C48.3789 17.5564 48.3835 17.5535 48.3881 17.5505C48.4369 17.5183 48.4769 17.4823 48.5083 17.4442C49.2836 17.3327 49.8554 17.1525 50.3772 16.8909C50.4901 16.8342 50.7264 16.7009 50.9173 16.5932C51.0444 16.5215 51.1514 16.4611 51.1887 16.4422C51.2567 16.4076 51.3203 16.3783 51.3829 16.353L51.3669 16.3131C51.3031 16.3389 51.2384 16.3687 51.1693 16.4038C51.1312 16.4232 51.0229 16.4843 50.8948 16.5565L50.8945 16.5567L50.8944 16.5568L50.8944 16.5568C50.7037 16.6643 50.4695 16.7965 50.358 16.8524C49.8495 17.1073 49.293 17.2844 48.543 17.3956C48.5778 17.3387 48.5953 17.2785 48.596 17.2191C49.8997 16.8914 51.0289 16.4027 51.788 15.7778L51.7608 15.7446C51.0089 16.3635 49.8882 16.8491 48.5935 17.1754C48.5815 17.0813 48.5267 16.9922 48.4316 16.9258C49.1204 16.7784 49.5728 16.5761 50.4446 16.0892L50.5016 16.0574C50.7491 15.9192 50.8826 15.8463 51.0367 15.7673L51.0172 15.729C50.8625 15.8083 50.7287 15.8813 50.4807 16.0198L50.4238 16.0516C49.5808 16.5224 49.1328 16.7254 48.482 16.8707ZM48.4306 16.9251C48.4477 16.9098 48.465 16.8914 48.482 16.8707L48.4202 16.8842L48.4285 16.9236C48.4216 16.9189 48.4144 16.9142 48.407 16.9097L48.3847 16.9463L48.396 16.9535C48.0255 17.2495 47.6599 17.4244 47.1691 17.5013C47.1452 17.4925 47.1221 17.4832 47.0998 17.4736L47.0828 17.5131L47.0837 17.5135C47.1126 17.5097 47.1411 17.5057 47.1691 17.5013C47.5437 17.6391 48.0982 17.6665 48.343 17.5278L48.3388 17.5604L48.329 17.5661C48.3316 17.5706 48.334 17.5751 48.3363 17.5796C48.3496 17.5733 48.3622 17.5665 48.3741 17.5593C48.3716 17.5543 48.3689 17.5493 48.366 17.5444L48.3391 17.5602L48.3438 17.5273C48.351 17.5232 48.3579 17.519 48.3645 17.5146C48.6006 17.3586 48.6097 17.1159 48.4226 16.9724L48.4291 16.9263L48.4285 16.9236L48.4306 16.9251ZM48.4149 16.9666L48.4189 16.9351L48.396 16.9535C48.4025 16.9578 48.4088 16.9622 48.4149 16.9666ZM48.4149 16.9666L48.4226 16.9724L48.3438 17.5273L48.343 17.5278L48.4149 16.9666ZM48.3391 17.5602L48.3388 17.5604L48.3363 17.5796L48.3391 17.5602ZM48.4306 16.9251L48.4293 16.9263L48.4316 16.9258L48.4306 16.9251ZM48.5935 17.1754C48.5954 17.1898 48.5962 17.2044 48.596 17.2191L48.5718 17.2252L48.5614 17.1834L48.5935 17.1754ZM48.543 17.3956L48.4861 17.4039L48.4921 17.4465L48.5083 17.4442C48.5213 17.4283 48.5329 17.4121 48.543 17.3956ZM48.4063 17.6742L48.3879 17.6725L48.3839 17.7167L48.4076 17.7189C48.408 17.7039 48.4076 17.689 48.4063 17.6742ZM48.3767 17.8683L48.3525 17.8626L48.3425 17.9058L48.3589 17.9097C48.3654 17.8962 48.3714 17.8824 48.3767 17.8683ZM47.0318 17.4765C47.0156 17.4784 46.9993 17.4802 46.9828 17.4819L46.9869 17.5217C47.0054 17.5078 47.0203 17.4928 47.0318 17.4765ZM46.9347 17.159C47.0194 17.246 47.0634 17.326 47.0595 17.3972C47.058 17.4261 47.0487 17.4526 47.0318 17.4765C47.5927 17.4113 47.9871 17.2303 48.392 16.9016C48.4707 16.8376 48.5599 16.6914 48.5908 16.5637C48.6271 16.4135 48.5853 16.3084 48.4505 16.2693C48.2246 16.3413 47.9956 16.406 47.772 16.46C47.7548 16.4492 47.7361 16.4389 47.7159 16.4291L47.7145 16.4295L47.7243 16.4713L47.772 16.46C47.851 16.5095 47.8976 16.57 47.9129 16.6393C47.9358 16.7423 47.885 16.8557 47.792 16.9436C47.6329 17.0942 47.2899 17.1825 46.9347 17.159ZM46.8856 17.1118C46.9032 17.1277 46.9196 17.1435 46.9347 17.159C46.9153 17.1577 46.896 17.1561 46.8766 17.1541L46.8808 17.1113L46.8856 17.1118ZM46.3177 16.8128C46.287 16.8175 46.2578 16.8223 46.2304 16.827L46.2249 16.8251L46.2182 16.7841L46.2315 16.7818C46.2607 16.792 46.2895 16.8023 46.3177 16.8128ZM45.8179 16.6556C46.2827 16.4039 47.0145 16.2915 47.5021 16.4029C47.7295 16.4549 47.8474 16.5417 47.8711 16.6487C47.8901 16.7345 47.8457 16.8338 47.7626 16.9123C47.6058 17.0607 47.2481 17.1472 46.8856 17.1118C46.8754 17.1026 46.8648 17.0933 46.8538 17.084C46.7498 16.9954 46.5518 16.8996 46.3177 16.8128C46.6631 16.7594 47.1998 16.7073 47.4777 16.7073V16.6629C47.1749 16.6629 46.5706 16.7238 46.2315 16.7818C46.0992 16.7356 45.9582 16.6926 45.8179 16.6556ZM45.8179 16.6556C45.7978 16.6503 45.7777 16.6451 45.7577 16.64L45.7471 16.6462L45.7687 16.6833C45.7848 16.6739 45.8012 16.6646 45.8179 16.6556ZM46.3627 17.6587C46.2743 17.6616 46.1868 17.6577 46.087 17.6467C46.0437 17.6383 46.0003 17.63 45.9569 17.6218L45.9634 17.5872C46.0095 17.5941 46.0526 17.5997 46.0935 17.6042C46.184 17.6218 46.2739 17.64 46.3627 17.6587ZM45.959 17.7953L45.9435 17.8351L45.9916 17.8542C45.9835 17.8353 45.9727 17.8156 45.959 17.7953ZM45.9757 18.026C45.9667 18.0369 45.956 18.0471 45.9436 18.0566L45.9299 18.0479L45.9528 18.0116L45.9757 18.026ZM45.7588 18.1289C45.7459 18.1192 45.734 18.1098 45.7231 18.1009L45.696 18.1341L45.7009 18.1382C45.721 18.1355 45.7403 18.1324 45.7588 18.1289ZM45.3952 18.1452C45.3741 18.1439 45.3527 18.1424 45.3309 18.1405L45.3566 18.1114C45.3691 18.1225 45.382 18.1338 45.3952 18.1452ZM44.6451 18.4175L44.6335 18.4052L44.6023 18.4347L44.6183 18.4516C44.6291 18.4419 44.6381 18.4305 44.6451 18.4175ZM44.071 18.3946C44.0813 18.3991 44.0914 18.4033 44.1014 18.4074C44.0803 18.3891 44.0606 18.3716 44.0426 18.3552L44.0411 18.3569L44.0311 18.3453L44.019 18.3709L44.0255 18.374L44.0138 18.387C44.0477 18.4179 44.0871 18.4522 44.1312 18.4892C44.1145 18.4576 44.0944 18.426 44.071 18.3946ZM44.071 18.3946C44.0562 18.3882 44.041 18.3813 44.0255 18.374L44.0411 18.3569C44.0516 18.3694 44.0616 18.382 44.071 18.3946ZM44.1386 18.9057C44.13 18.9174 44.1204 18.9284 44.1096 18.9386C44.1031 18.9301 44.0969 18.9216 44.0912 18.9132L44.1264 18.8887C44.1303 18.8943 44.1343 18.9 44.1386 18.9057ZM43.5319 19.0116C43.5389 19.0378 43.5446 19.0658 43.549 19.0964C43.5316 19.0763 43.5152 19.0568 43.4998 19.0382L43.5319 19.0116ZM43.4302 19.6425L43.4175 19.6257L43.3833 19.6517L43.3957 19.6681C43.4077 19.6605 43.4193 19.6519 43.4302 19.6425ZM43.3279 19.699L43.3135 19.6683L43.2748 19.6868L43.2849 19.7082C43.2996 19.7063 43.314 19.7032 43.3279 19.699ZM43.5273 18.9955C43.5105 18.9903 43.4936 18.9846 43.4766 18.9785L43.4743 18.9722L43.5144 18.9571C43.5191 18.9695 43.5234 18.9822 43.5273 18.9955ZM44.454 17.8989C44.4235 17.8858 44.3929 17.8722 44.3621 17.8583L44.3914 17.8291C44.4127 17.8507 44.4337 17.8741 44.454 17.8989ZM45.7612 17.5969C45.7365 17.5775 45.7104 17.5581 45.6831 17.5387L45.6587 17.5341L45.652 17.5694L45.666 17.5793C45.6991 17.5855 45.7307 17.5914 45.7612 17.5969ZM45.5276 16.6312C45.5422 16.6198 45.5563 16.6081 45.5698 16.5961C45.5522 16.5923 45.5347 16.5887 45.5173 16.5852L45.5089 16.6273L45.5276 16.6312ZM42.9117 16.1953C42.732 16.2464 42.6313 16.2981 42.4422 16.4197L42.4647 16.4575C42.6507 16.3379 42.7481 16.2879 42.923 16.2382L42.9117 16.1953ZM43.7471 17.0833C44.2405 17.3633 44.9038 17.678 45.3642 17.8452L45.3788 17.8048C44.9208 17.6384 44.2597 17.3247 43.7682 17.0459L43.7471 17.0833ZM45.541 17.1076C45.185 17.0341 44.8776 16.986 44.5677 16.959L44.5714 16.9162C44.8831 16.9433 45.1921 16.9917 45.5497 17.0655C45.6931 17.0951 45.8411 17.128 46.0308 17.1719L46.2103 17.2137C46.3287 17.2414 46.4689 17.2741 46.5259 17.2872L46.5163 17.3292C46.4593 17.316 46.3195 17.2834 46.2012 17.2557L46.2007 17.2556L46.2005 17.2556L46.0212 17.2138C45.8318 17.1699 45.684 17.1371 45.541 17.1076ZM42.4715 17.2565C42.5586 17.5194 43.1753 18.2936 43.4662 18.477L43.489 18.4406C43.2064 18.2624 42.5961 17.4962 42.5122 17.2429L42.4715 17.2565ZM43.0131 19.1201C42.9169 18.885 42.3206 17.9945 42.0013 17.5748L42.0354 17.5487C42.3571 17.9715 42.9546 18.8639 43.0527 19.1037L43.0131 19.1201ZM42.8625 17.1958C43.0616 17.4222 43.7136 17.92 44.0106 18.0401L44.0266 18.0002C43.7363 17.8829 43.0896 17.389 42.8947 17.1674L42.8625 17.1958ZM41.6515 14.7833C41.5315 14.8457 41.444 14.9369 41.3718 15.0639L41.4087 15.0865C41.477 14.9665 41.5587 14.8813 41.6707 14.8231L41.6515 14.7833ZM39.6591 16.1884C39.6472 16.0265 39.6639 15.8157 39.7078 15.6643L39.749 15.6764C39.7066 15.8224 39.6903 16.0282 39.7018 16.1853L39.6591 16.1884ZM39.6884 16.4551C39.6532 16.6052 39.6792 16.9544 39.7272 17.1476L39.7688 17.1371C39.7223 16.9501 39.6968 16.6072 39.7301 16.4649L39.6884 16.4551ZM39.84 17.6102C39.8201 17.5785 39.805 17.5487 39.7953 17.5207L39.8357 17.5057C39.8441 17.5301 39.8577 17.557 39.8759 17.586C39.8987 17.6223 39.9281 17.6609 39.9636 17.7022C39.9929 17.7364 40.0168 17.7621 40.0625 17.8097L40.0321 17.841C39.9859 17.7929 39.9616 17.7667 39.9316 17.7318C39.8948 17.6889 39.8641 17.6486 39.84 17.6102ZM40.0067 16.7119C39.9871 16.9614 40.124 17.435 40.2632 17.5955C40.2937 17.8611 40.4779 18.2413 40.7377 18.5032L40.7681 18.4729C40.5149 18.2177 40.3351 17.8463 40.3006 17.5787C40.1643 17.4159 40.0306 16.9538 40.0494 16.7153L40.0067 16.7119ZM39.9489 16.4338C39.9268 16.2761 39.9215 16.118 39.9394 16.0175L39.9816 16.0251C39.9646 16.1202 39.9698 16.2742 39.9914 16.4278L39.9489 16.4338ZM40.3174 15.0382C40.232 15.2538 40.1844 15.7098 40.2098 15.8878C40.2146 15.9219 40.214 15.9305 40.199 16.0737C40.1716 16.3348 40.1824 16.5328 40.2687 16.7886L40.3093 16.7749C40.2253 16.5259 40.2148 16.3337 40.2416 16.0782C40.2573 15.9285 40.2578 15.9213 40.2523 15.8817C40.2278 15.7109 40.2747 15.2625 40.3572 15.0541L40.3174 15.0382ZM40.6165 16.6905C40.525 16.3834 40.5217 15.646 40.6162 15.2558L40.6578 15.266C40.5651 15.649 40.5684 16.3788 40.6575 16.6782L40.6165 16.6905ZM40.4999 16.8063C40.4482 17.0353 40.4537 17.3005 40.52 17.5001L40.5606 17.4865C40.497 17.2948 40.4916 17.0375 40.5417 16.8157L40.4999 16.8063ZM41.278 16.4548C41.0211 16.1679 40.8655 15.7401 40.8761 15.4061L40.919 15.4075C40.9087 15.7304 41.0603 16.1474 41.3098 16.426L41.278 16.4548ZM40.8087 16.4779C40.7791 16.8485 40.8003 17.1889 40.8677 17.3834C40.8851 17.4336 40.8973 17.4946 40.9145 17.6063C40.9226 17.6596 40.9272 17.6901 40.9312 17.7152C40.9379 17.758 40.9441 17.7941 40.9507 17.8287C40.9831 17.9975 41.0256 18.1216 41.093 18.2176L41.128 18.1929C41.0649 18.1029 41.0241 17.9839 40.9928 17.8206C40.9863 17.7865 40.9802 17.7509 40.9735 17.7084C40.9696 17.6835 40.965 17.6532 40.9569 17.5998C40.9393 17.4854 40.9267 17.4228 40.9082 17.3693C40.8431 17.1815 40.8222 16.8465 40.8514 16.4814L40.8087 16.4779ZM41.1538 17.0822L41.1378 17.0213L41.1792 17.0102L41.1953 17.0714C41.2176 17.1576 41.2308 17.2226 41.2368 17.2875C41.2456 17.3812 41.2372 17.462 41.2073 17.5311L41.168 17.514C41.1947 17.4524 41.2023 17.3785 41.1942 17.2915C41.1883 17.2294 41.1756 17.1664 41.1538 17.0822ZM41.3893 16.7392C41.4606 16.9734 41.5049 17.26 41.4947 17.3845L41.5374 17.3881C41.5482 17.2573 41.503 16.9656 41.4303 16.7266L41.3893 16.7392ZM41.6908 18.635C41.6026 18.4798 41.5226 18.2318 41.5043 18.0317L41.547 18.0278C41.5647 18.2217 41.6428 18.4637 41.7281 18.6137L41.6908 18.635ZM41.1865 18.6215C41.2674 18.8654 41.4063 19.1173 41.532 19.2165L41.5585 19.1827C41.441 19.0899 41.3056 18.8445 41.2272 18.6079L41.1865 18.6215ZM42.3752 19.3041C42.2893 19.0442 42.2331 18.9179 42.0975 18.7248L42.1326 18.7C42.271 18.8973 42.3288 19.027 42.4158 19.2906L42.3752 19.3041Z" fill="black"/>
<path fill-rule="evenodd" clip-rule="evenodd" d="M40.5284 18.7823C40.5552 18.7852 40.5718 18.7862 40.6178 18.7885C40.7245 18.7939 40.762 18.8048 40.8101 18.8557C40.8418 18.8893 40.8733 18.94 40.9073 19.0139C41.0259 19.2718 41.35 19.6661 41.5395 19.789L41.5393 19.7891C41.7902 20.2306 41.9016 20.8134 41.8238 21.1262C41.8014 20.9886 41.7235 20.8827 41.6032 20.796C41.5565 20.7623 41.5267 20.7451 41.4456 20.7019C41.3382 20.7958 41.1816 20.9038 41.1026 20.9207L41.1115 20.9628C41.2007 20.9437 41.3643 20.8308 41.4513 20.7354C41.4908 20.7699 41.5169 20.788 41.5457 20.808L41.5457 20.808L41.5458 20.8081L41.5458 20.8081C41.556 20.8152 41.5666 20.8225 41.5782 20.8309C41.6902 20.9117 41.7614 21.0086 41.7816 21.1338L41.8236 21.1269L41.8208 21.1378L41.8621 21.149C41.9454 20.8404 41.8447 20.273 41.6077 19.8246C41.8998 19.9592 42.0865 20.1108 42.1231 20.3247L42.1638 20.3298L42.1848 20.2827C42.2822 20.0633 42.3192 19.9125 42.2821 19.7567L42.2857 19.7611L42.32 19.8024C42.4275 19.9319 42.5066 20.0271 42.5652 20.0991L42.5612 20.0997C42.5669 20.1407 42.5723 20.2031 42.5788 20.2982C42.5799 20.3152 42.583 20.3643 42.5865 20.4202C42.5913 20.4962 42.5969 20.5845 42.5994 20.6213C42.6148 20.8473 42.6303 20.9978 42.6512 21.096L42.6932 21.0869C42.6727 20.9915 42.6574 20.8422 42.6422 20.6184C42.6397 20.5817 42.6341 20.4937 42.6293 20.4178C42.6258 20.3617 42.6227 20.3124 42.6215 20.2953C42.6176 20.2377 42.6141 20.192 42.6106 20.1555C42.702 20.2701 42.7258 20.3102 42.7382 20.3536C42.7419 20.3666 42.7446 20.3799 42.7478 20.3956L42.7478 20.3956L42.7478 20.3956L42.7513 20.4132C42.7871 20.5842 42.9245 20.8187 43.0624 20.9694L43.0939 20.9403C42.9608 20.7949 42.8272 20.5668 42.7933 20.4044L42.7887 20.3818C42.7853 20.3648 42.7825 20.3505 42.7785 20.3365C42.7571 20.2617 42.7028 20.1963 42.3584 19.7815L42.3584 19.7815L42.3584 19.7815L42.3584 19.7815L42.3584 19.7814L42.3187 19.7336C42.2894 19.6984 42.263 19.6661 42.238 19.6349L42.2019 19.6573C42.2871 19.8432 42.2631 19.9977 42.1503 20.2546C42.0867 20.0497 41.8915 19.9049 41.6023 19.775C41.4353 19.7001 41.0709 19.2672 40.9462 18.9959C40.9104 18.9181 40.8766 18.8636 40.8412 18.8261C40.7835 18.765 40.7368 18.7514 40.6199 18.7456C40.5748 18.7433 40.5586 18.7423 40.533 18.7396L40.5284 18.7823ZM42.6106 20.1555C42.6083 20.131 42.606 20.1107 42.6036 20.0937L42.5652 20.0991C42.5819 20.1198 42.597 20.1385 42.6106 20.1555ZM41.8236 21.1269L41.8239 21.1269L41.8238 21.1262L41.8236 21.1269ZM41.6077 19.8246L41.5848 19.8142C41.5708 19.8079 41.5557 19.7994 41.5395 19.789L41.5765 19.7678C41.5872 19.7865 41.5975 19.8054 41.6077 19.8246ZM40.8289 19.4342C40.904 19.6612 40.9637 19.9336 40.9698 20.0913L41.0126 20.0897C41.0063 19.9273 40.9459 19.6511 40.8696 19.4207L40.8289 19.4342ZM41.4786 20.5531C41.4719 20.4258 41.392 20.0924 41.3125 19.8703L41.3528 19.8558C41.4336 20.0815 41.5144 20.4187 41.5214 20.5508L41.4786 20.5531ZM42.2273 20.4755C42.2895 20.6259 42.3288 20.8634 42.3162 21.0049L42.3589 21.0087C42.3721 20.8601 42.3316 20.6157 42.2668 20.459L42.2273 20.4755Z" fill="black"/>
</g>
</svg>
